<?xml version="1.0" encoding="utf-8" ?>
<svg baseProfile="full" height="1300px" version="1.1" width="1500px" xmlns="http://www.w3.org/2000/svg" xmlns:ev="http://www.w3.org/2001/xml-events" xmlns:xlink="http://www.w3.org/1999/xlink"><defs /><polyline fill="white" points="272,-40 264,216 8,240 16,344 312,320 416,320 464,328 448,768 1224,768 1224,560 1256,288 536,192 536,208 480,200 472,224 416,0 432,0 432,-40 272,-40" stroke="black" stroke-width="3.5" /><g id="floor_n"><g id="395_room"><polygon fill="rgb(119,151,159)" points="1168,704 1216,704 1216,680 1168,680" stroke="black" stroke-width="1" /><text opacity="0" style="font-family:'Dejavu Sans';font-size:14;" x="0" y="0">M22</text><text opacity="0" style="font-family:'Dejavu Sans';font-size:14;" x="0" y="16">M22 Hardware</text><text opacity="0" style="font-family:'Dejavu Sans';font-size=14:" x="0" y="32">staffsec06, cpgpc01, bigmac, chrisair2, karenmac, staffsec15</text><text opacity="0" style="font-family:'Dejavu Sans';font-size=14:" x="0" y="48">M22 People</text><text opacity="0" style="font-family:'Dejavu Sans';font-size:14;" x="0" y="64">Sharon Elizabeth  Connor, Karen Valelli</text><text fill="rgb(178,76,63)" font-size="8px" opacity="1" style="font-family:'Dejavu Sans';" x="1184" y="692">M22</text></g><g id="490_room"><polygon fill="rgb(119,151,159)" points="1168,408 1232,416 1232,368 1192,360 1192,344 1176,344" stroke="black" stroke-width="1" /><text opacity="0" style="font-family:'Dejavu Sans';font-size:14;" x="0" y="0">M09</text><text opacity="0" style="font-family:'Dejavu Sans';font-size:14;" x="0" y="16">M09 Hardware</text><text opacity="0" style="font-family:'Dejavu Sans';font-size=14:" x="0" y="32">amethyst, mel03, roseair, sleyimac.ch.private.cam.ac.uk, solstice, amethyst, staffsec12, seahorse, staffsec11, jacquimac</text><text opacity="0" style="font-family:'Dejavu Sans';font-size=14:" x="0" y="48">M09 People</text><text opacity="0" style="font-family:'Dejavu Sans';font-size:14;" x="0" y="64">Jacqueline Worster</text><text fill="rgb(178,76,63)" font-size="8px" opacity="1" style="font-family:'Dejavu Sans';" x="1192" y="380">M09</text></g><g id="394_room"><polygon fill="rgb(119,151,159)" points="1152,680 1216,680 1216,632 1152,632" stroke="black" stroke-width="1" /><text opacity="0" style="font-family:'Dejavu Sans';font-size:14;" x="0" y="0">M21</text><text opacity="0" style="font-family:'Dejavu Sans';font-size:14;" x="0" y="16">M21 Hardware</text><text opacity="0" style="font-family:'Dejavu Sans';font-size=14:" x="0" y="32">mbajk, ajk01, cpgpclap01</text><text opacity="0" style="font-family:'Dejavu Sans';font-size=14:" x="0" y="48">M21 People</text><text opacity="0" style="font-family:'Dejavu Sans';font-size:14;" x="0" y="64">Clare Grey</text><text fill="rgb(178,76,63)" font-size="8px" opacity="1" style="font-family:'Dejavu Sans';" x="1176" y="656">M21</text></g><g id="381_room"><polygon fill="rgb(119,151,159)" points="1128,320 1176,320 1184,280 1128,272" stroke="black" stroke-width="1" /><text opacity="0" style="font-family:'Dejavu Sans';font-size:14;" x="0" y="0">M04</text><text opacity="0" style="font-family:'Dejavu Sans';font-size:14;" x="0" y="16">M04 Hardware</text><text opacity="0" style="font-family:'Dejavu Sans';font-size=14:" x="0" y="32">hfgreer, chiana, trance, zonda, Peter Grice, fiercegrace, fiercegrace, Unknown</text><text opacity="0" style="font-family:'Dejavu Sans';font-size=14:" x="0" y="48">M04 People</text><text opacity="0" style="font-family:'Dejavu Sans';font-size:14;" x="0" y="64">Peter Grice, Rebecca Myers, Heather Greer</text><text fill="rgb(178,76,63)" font-size="8px" opacity="1" style="font-family:'Dejavu Sans';" x="1148" y="296">M04</text></g><g id="387_room"><polygon fill="rgb(119,151,159)" points="1160,512 1224,512 1224,464 1160,464" stroke="black" stroke-width="1" /><text opacity="0" style="font-family:'Dejavu Sans';font-size:14;" x="0" y="0">M14</text><text opacity="0" style="font-family:'Dejavu Sans';font-size:14;" x="0" y="16">M14 Hardware</text><text opacity="0" style="font-family:'Dejavu Sans';font-size=14:" x="0" y="32">adb1, scoop, if01, ab01, js01, chewymarv, deadline, if02, Courtenay, bat02, profair2, scoop2, takapuna, djp15 autoreg for 3387institutional</text><text opacity="0" style="font-family:'Dejavu Sans';font-size=14:" x="0" y="48">M14 People</text><text opacity="0" style="font-family:'Dejavu Sans';font-size:14;" x="0" y="64">Stuart Warren, Alan Battersby, Anthony Kirby, Brian Thrush, Jack Lewis, Jim Staunton, Timothy Dickens, David Buckingham, Ian Fleming, Brian Johnson, Ray Freeman</text><text fill="rgb(178,76,63)" font-size="8px" opacity="1" style="font-family:'Dejavu Sans';" x="1184" y="488">M14</text></g><g id="400_room"><polygon fill="rgb(119,151,159)" points="296,-16 320,-16 320,-40 296,-40" stroke="black" stroke-width="1" /><text opacity="0" style="font-family:'Dejavu Sans';font-size:14;" x="0" y="0">M30</text><text opacity="0" style="font-family:'Dejavu Sans';font-size:14;" x="0" y="16">M30 Hardware</text><text opacity="0" style="font-family:'Dejavu Sans';font-size=14:" x="0" y="32" /><text opacity="0" style="font-family:'Dejavu Sans';font-size=14:" x="0" y="48">M30 People</text><text opacity="0" style="font-family:'Dejavu Sans';font-size:14;" x="0" y="64" /><text fill="rgb(178,76,63)" font-size="8px" opacity="1" style="font-family:'Dejavu Sans';" x="300" y="-20">M30</text></g><g id="390_room"><polygon fill="rgb(119,151,159)" points="1088,552 1128,552 1128,528 1088,528" stroke="black" stroke-width="1" /><text opacity="0" style="font-family:'Dejavu Sans';font-size:14;" x="0" y="0">M17</text><text opacity="0" style="font-family:'Dejavu Sans';font-size:14;" x="0" y="16">M17 Hardware</text><text opacity="0" style="font-family:'Dejavu Sans';font-size=14:" x="0" y="32" /><text opacity="0" style="font-family:'Dejavu Sans';font-size=14:" x="0" y="48">M17 People</text><text opacity="0" style="font-family:'Dejavu Sans';font-size:14;" x="0" y="64" /><text fill="rgb(178,76,63)" font-size="8px" opacity="1" style="font-family:'Dejavu Sans';" x="1100" y="540">M17</text></g><g id="392_room"><polygon fill="rgb(119,151,159)" points="1152,608 1224,608 1224,560 1152,560" stroke="black" stroke-width="1" /><text opacity="0" style="font-family:'Dejavu Sans';font-size:14;" x="0" y="0">M18</text><text opacity="0" style="font-family:'Dejavu Sans';font-size:14;" x="0" y="16">M18 Hardware</text><text opacity="0" style="font-family:'Dejavu Sans';font-size=14:" x="0" y="32">greygroup-1, greygroup-2, humptydumpty, m18-linux-tosh, ubuntu-build, iMac-G4, jackie-pc, chippy, lemongrass, old-arbin, eggandchips, reggae, petespc, wherry, iwms2laptop, pot, harper2, comanche, vyom, chemdns112, dawkins, noodles, hodor, troy, brandy, iMac-G4, gyrfalcon</text><text opacity="0" style="font-family:'Dejavu Sans';font-size=14:" x="0" y="48">M18 People</text><text opacity="0" style="font-family:'Dejavu Sans';font-size:14;" x="0" y="64">Patrick Donnelly, Robert Harrison, David Pratt</text><text fill="rgb(178,76,63)" font-size="8px" opacity="1" style="font-family:'Dejavu Sans';" x="1180" y="584">M18</text></g><g id="396_room"><polygon fill="rgb(119,151,159)" points="1152,760 1216,760 1216,704 1152,704" stroke="black" stroke-width="1" /><text opacity="0" style="font-family:'Dejavu Sans';font-size:14;" x="0" y="0">M23</text><text opacity="0" style="font-family:'Dejavu Sans';font-size:14;" x="0" y="16">M23 Hardware</text><text opacity="0" style="font-family:'Dejavu Sans';font-size=14:" x="0" y="32">massterpiece, folksinger, robinson-laptop, massterpiece, masstermind, kjv26 autoreg for 4150personal, haruna, chrisair, betula, valium</text><text opacity="0" style="font-family:'Dejavu Sans';font-size=14:" x="0" y="48">M23 People</text><text opacity="0" style="font-family:'Dejavu Sans';font-size:14;" x="0" y="64">Christopher Dobson</text><text fill="rgb(178,76,63)" font-size="8px" opacity="1" style="font-family:'Dejavu Sans';" x="1176" y="732">M23</text></g><g id="385_room"><polygon fill="rgb(119,151,159)" points="1136,480 1136,432 1088,432 1088,480" stroke="black" stroke-width="1" /><text opacity="0" style="font-family:'Dejavu Sans';font-size:14;" x="0" y="0">M12</text><text opacity="0" style="font-family:'Dejavu Sans';font-size:14;" x="0" y="16">M12 Hardware</text><text opacity="0" style="font-family:'Dejavu Sans';font-size=14:" x="0" y="32">abellimac, abelltower, profair, abelliris, Sionnach, profair3</text><text opacity="0" style="font-family:'Dejavu Sans';font-size=14:" x="0" y="48">M12 People</text><text opacity="0" style="font-family:'Dejavu Sans';font-size:14;" x="0" y="64">Marko Hyvonen, Christopher Abell</text><text fill="rgb(178,76,63)" font-size="8px" opacity="1" style="font-family:'Dejavu Sans';" x="1104" y="456">M12</text></g><g id="382_room"><polygon fill="rgb(119,151,159)" points="1176,344 1192,344 1192,360 1240,368 1240,296 1184,288" stroke="black" stroke-width="1" /><text opacity="0" style="font-family:'Dejavu Sans';font-size:14;" x="0" y="0">M08</text><text opacity="0" style="font-family:'Dejavu Sans';font-size:14;" x="0" y="16">M08 Hardware</text><text opacity="0" style="font-family:'Dejavu Sans';font-size=14:" x="0" y="32">totster, cymru, pg10003 autoreg for 4351personal, braque, charon, pg10003 autoreg for 4351personal, blackmobile, veyron, abh10, gemballa, shelby, mel-sec, rmm32 autoreg for 569personal, pg10003 autoreg for 4351personal, carrera, jivamukti, mel-sec02</text><text opacity="0" style="font-family:'Dejavu Sans';font-size=14:" x="0" y="48">M08 People</text><text opacity="0" style="font-family:'Dejavu Sans';font-size:14;" x="0" y="64">Steven Ley</text><text fill="rgb(178,76,63)" font-size="8px" opacity="1" style="font-family:'Dejavu Sans';" x="1200" y="328">M08</text></g><g id="384_room"><polygon fill="rgb(119,151,159)" points="1160,464 1224,464 1232,416 1168,408" stroke="black" stroke-width="1" /><text opacity="0" style="font-family:'Dejavu Sans';font-size:14;" x="0" y="0">M11</text><text opacity="0" style="font-family:'Dejavu Sans';font-size:14;" x="0" y="16">M11 Hardware</text><text opacity="0" style="font-family:'Dejavu Sans';font-size=14:" x="0" y="32">mel02, polymer1, polymer2, wilhelm1, mel08, wtsh1, oas23 autoreg for 4106institutional, oas23 autoreg for 4106institutional, wtshpclap15</text><text opacity="0" style="font-family:'Dejavu Sans';font-size=14:" x="0" y="48">M11 People</text><text opacity="0" style="font-family:'Dejavu Sans';font-size:14;" x="0" y="64">Oren Scherman</text><text fill="rgb(178,76,63)" font-size="8px" opacity="1" style="font-family:'Dejavu Sans';" x="1188" y="436">M11</text></g><g id="397_room"><polygon fill="rgb(119,151,159)" points="1104,696 1112,696 1112,720 1136,720 1136,760 1104,760" stroke="black" stroke-width="1" /><text opacity="0" style="font-family:'Dejavu Sans';font-size:14;" x="0" y="0">M24</text><text opacity="0" style="font-family:'Dejavu Sans';font-size:14;" x="0" y="16">M24 Hardware</text><text opacity="0" style="font-family:'Dejavu Sans';font-size=14:" x="0" y="32">milo06, milo04, milo03, milo05, dk10012vaio, milo01</text><text opacity="0" style="font-family:'Dejavu Sans';font-size=14:" x="0" y="48">M24 People</text><text opacity="0" style="font-family:'Dejavu Sans';font-size:14;" x="0" y="64">David Klenerman</text><text fill="rgb(178,76,63)" font-size="8px" opacity="1" style="font-family:'Dejavu Sans';" x="1112" y="728">M24</text></g><g id="391_room"><polygon fill="rgb(119,151,159)" points="1080,600 1128,600 1128,552 1080,552" stroke="black" stroke-width="1" /><text opacity="0" style="font-family:'Dejavu Sans';font-size:14;" x="0" y="0">M17A</text><text opacity="0" style="font-family:'Dejavu Sans';font-size:14;" x="0" y="16">M17A Hardware</text><text opacity="0" style="font-family:'Dejavu Sans';font-size=14:" x="0" y="32">dingledell, maclaren, sauf, bromo, niamhthesqueeze.ch.cam.ac.uk</text><text opacity="0" style="font-family:'Dejavu Sans';font-size=14:" x="0" y="48">M17A People</text><text opacity="0" style="font-family:'Dejavu Sans';font-size:14;" x="0" y="64">Richard Turner</text><text fill="rgb(178,76,63)" font-size="8px" opacity="1" style="font-family:'Dejavu Sans';" x="1096" y="576">M17A</text></g><g id="393_room"><polygon fill="rgb(119,151,159)" points="1176,632 1224,632 1224,608 1176,608" stroke="black" stroke-width="1" /><text opacity="0" style="font-family:'Dejavu Sans';font-size:14;" x="0" y="0">M18B</text><text opacity="0" style="font-family:'Dejavu Sans';font-size:14;" x="0" y="16">M18B Hardware</text><text opacity="0" style="font-family:'Dejavu Sans';font-size=14:" x="0" y="32" /><text opacity="0" style="font-family:'Dejavu Sans';font-size=14:" x="0" y="48">M18B People</text><text opacity="0" style="font-family:'Dejavu Sans';font-size:14;" x="0" y="64" /><text fill="rgb(178,76,63)" font-size="8px" opacity="1" style="font-family:'Dejavu Sans';" x="1192" y="620">M18B</text></g><g id="522_room"><polygon fill="rgb(119,151,159)" points="1152,632 1176,632 1176,608 1152,608" stroke="black" stroke-width="1" /><text opacity="0" style="font-family:'Dejavu Sans';font-size:14;" x="0" y="0">M18A</text><text opacity="0" style="font-family:'Dejavu Sans';font-size:14;" x="0" y="16">M18A Hardware</text><text opacity="0" style="font-family:'Dejavu Sans';font-size=14:" x="0" y="32">tamar-huey, blackrain, faxgate, pitemp1, thermo1, westham</text><text opacity="0" style="font-family:'Dejavu Sans';font-size=14:" x="0" y="48">M18A People</text><text opacity="0" style="font-family:'Dejavu Sans';font-size:14;" x="0" y="64" /><text fill="rgb(178,76,63)" font-size="8px" opacity="1" style="font-family:'Dejavu Sans';" x="1156" y="620">M18A</text></g><g id="677_room"><polygon fill="rgb(119,151,159)" points="1152,704 1168,704 1168,680 1152,680" stroke="black" stroke-width="1" /><text opacity="0" style="font-family:'Dejavu Sans';font-size:14;" x="0" y="0">M20</text><text opacity="0" style="font-family:'Dejavu Sans';font-size:14;" x="0" y="16">M20 Hardware</text><text opacity="0" style="font-family:'Dejavu Sans';font-size=14:" x="0" y="32" /><text opacity="0" style="font-family:'Dejavu Sans';font-size=14:" x="0" y="48">M20 People</text><text opacity="0" style="font-family:'Dejavu Sans';font-size:14;" x="0" y="64" /><text fill="rgb(178,76,63)" font-size="8px" opacity="1" style="font-family:'Dejavu Sans';" x="1152" y="692">M20</text></g><g id="386_room"><polygon fill="rgb(119,151,159)" points="1088,504 1136,504 1136,480 1088,480" stroke="black" stroke-width="1" /><text opacity="0" style="font-family:'Dejavu Sans';font-size:14;" x="0" y="0">M13</text><text opacity="0" style="font-family:'Dejavu Sans';font-size:14;" x="0" y="16">M13 Hardware</text><text opacity="0" style="font-family:'Dejavu Sans';font-size=14:" x="0" y="32">cmb3, incolumitas, stapleton, incolumitas2, boleyn, orion, zeolite, djp15 autoreg for 229institutional, woodstock, camoys, felbrigge</text><text opacity="0" style="font-family:'Dejavu Sans';font-size=14:" x="0" y="48">M13 People</text><text opacity="0" style="font-family:'Dejavu Sans';font-size:14;" x="0" y="64">Timothy Dickens</text><text fill="rgb(178,76,63)" font-size="8px" opacity="1" style="font-family:'Dejavu Sans';" x="1104" y="492">M13</text></g><g id="389_room"><polygon fill="rgb(119,151,159)" points="1160,560 1224,560 1224,512 1160,512" stroke="black" stroke-width="1" /><text opacity="0" style="font-family:'Dejavu Sans';font-size:14;" x="0" y="0">M16</text><text opacity="0" style="font-family:'Dejavu Sans';font-size:14;" x="0" y="16">M16 Hardware</text><text opacity="0" style="font-family:'Dejavu Sans';font-size=14:" x="0" y="32">gb453retina, deidre4, wallaby, redwing, winky, deidre2, polymer4, windmill2, dartmouth, dalakhani, sopclap02p, windmill, windmill3, shelburne, yarmouth, hugo, greyvisitor1, gb453 autoreg for 6711personal, verlet2, halifax, gbpc1, cygnus, bernardes1</text><text opacity="0" style="font-family:'Dejavu Sans';font-size=14:" x="0" y="48">M16 People</text><text opacity="0" style="font-family:'Dejavu Sans';font-size:14;" x="0" y="64">Jason Chin, Ruth Lynden-Bell, Richard Lambert, Anthony Stone</text><text fill="rgb(178,76,63)" font-size="8px" opacity="1" style="font-family:'Dejavu Sans';" x="1184" y="536">M16</text></g><g id="399_room"><polygon fill="rgb(119,151,159)" points="320,-8 360,-8 360,-32 320,-32" stroke="black" stroke-width="1" /><text opacity="0" style="font-family:'Dejavu Sans';font-size:14;" x="0" y="0">M29</text><text opacity="0" style="font-family:'Dejavu Sans';font-size:14;" x="0" y="16">M29 Hardware</text><text opacity="0" style="font-family:'Dejavu Sans';font-size=14:" x="0" y="32" /><text opacity="0" style="font-family:'Dejavu Sans';font-size=14:" x="0" y="48">M29 People</text><text opacity="0" style="font-family:'Dejavu Sans';font-size:14;" x="0" y="64" /><text fill="rgb(178,76,63)" font-size="8px" opacity="1" style="font-family:'Dejavu Sans';" x="332" y="-16">M29</text></g><g id="388_room"><polygon fill="rgb(119,151,159)" points="1088,528 1128,528 1128,504 1088,504" stroke="black" stroke-width="1" /><text opacity="0" style="font-family:'Dejavu Sans';font-size:14;" x="0" y="0">M15</text><text opacity="0" style="font-family:'Dejavu Sans';font-size:14;" x="0" y="16">M15 Hardware</text><text opacity="0" style="font-family:'Dejavu Sans';font-size=14:" x="0" y="32" /><text opacity="0" style="font-family:'Dejavu Sans';font-size=14:" x="0" y="48">M15 People</text><text opacity="0" style="font-family:'Dejavu Sans';font-size:14;" x="0" y="64" /><text fill="rgb(178,76,63)" font-size="8px" opacity="1" style="font-family:'Dejavu Sans';" x="1100" y="516">M15</text></g><g id="515_room"><polygon fill="rgb(119,151,159)" points="1056,696 1088,696 1088,672 1056,672" stroke="black" stroke-width="1" /><text opacity="0" style="font-family:'Dejavu Sans';font-size:14;" x="0" y="0">M25A</text><text opacity="0" style="font-family:'Dejavu Sans';font-size:14;" x="0" y="16">M25A Hardware</text><text opacity="0" style="font-family:'Dejavu Sans';font-size=14:" x="0" y="32" /><text opacity="0" style="font-family:'Dejavu Sans';font-size=14:" x="0" y="48">M25A People</text><text opacity="0" style="font-family:'Dejavu Sans';font-size:14;" x="0" y="64" /><text fill="rgb(178,76,63)" font-size="8px" opacity="1" style="font-family:'Dejavu Sans';" x="1064" y="684">M25A</text></g><g id="597_room"><polygon fill="rgb(119,151,159)" points="1080,712 1080,752 1104,752 1104,712" stroke="black" stroke-width="1" /><text opacity="0" style="font-family:'Dejavu Sans';font-size:14;" x="0" y="0">M25</text><text opacity="0" style="font-family:'Dejavu Sans';font-size:14;" x="0" y="16">M25 Hardware</text><text opacity="0" style="font-family:'Dejavu Sans';font-size=14:" x="0" y="32" /><text opacity="0" style="font-family:'Dejavu Sans';font-size=14:" x="0" y="48">M25 People</text><text opacity="0" style="font-family:'Dejavu Sans';font-size:14;" x="0" y="64" /><text fill="rgb(178,76,63)" font-size="8px" opacity="1" style="font-family:'Dejavu Sans';" x="1084" y="732">M25</text></g><g id="1205_room"><polygon fill="rgb(119,151,159)" points="1056,752 1080,752 1080,712 1056,712" stroke="black" stroke-width="1" /><text opacity="0" style="font-family:'Dejavu Sans';font-size:14;" x="0" y="0">Mezzanine Duct H</text><text opacity="0" style="font-family:'Dejavu Sans';font-size:14;" x="0" y="16">Mezzanine Duct H Hardware</text><text opacity="0" style="font-family:'Dejavu Sans';font-size=14:" x="0" y="32" /><text opacity="0" style="font-family:'Dejavu Sans';font-size=14:" x="0" y="48">Mezzanine Duct H People</text><text opacity="0" style="font-family:'Dejavu Sans';font-size:14;" x="0" y="64" /><text fill="rgb(178,76,63)" font-size="8px" opacity="1" style="font-family:'Dejavu Sans';" x="1060" y="732">Mezzanine Duct H</text></g><g id="1206_room"><polygon fill="rgb(119,151,159)" points="1056,696 1056,712 1080,712 1080,696" stroke="black" stroke-width="1" /><text opacity="0" style="font-family:'Dejavu Sans';font-size:14;" x="0" y="0">Mezzanine Duct H Entry</text><text opacity="0" style="font-family:'Dejavu Sans';font-size:14;" x="0" y="16">Mezzanine Duct H Entry Hardware</text><text opacity="0" style="font-family:'Dejavu Sans';font-size=14:" x="0" y="32" /><text opacity="0" style="font-family:'Dejavu Sans';font-size=14:" x="0" y="48">Mezzanine Duct H Entry People</text><text opacity="0" style="font-family:'Dejavu Sans';font-size:14;" x="0" y="64" /><text fill="rgb(178,76,63)" font-size="8px" opacity="1" style="font-family:'Dejavu Sans';" x="1060" y="704">Mezzanine Duct H Entry</text></g><g id="1207_room"><polygon fill="rgb(119,151,159)" points="1088,624 1128,624 1128,608 1088,608" stroke="black" stroke-width="1" /><text opacity="0" style="font-family:'Dejavu Sans';font-size:14;" x="0" y="0">Mezzanine Duct G</text><text opacity="0" style="font-family:'Dejavu Sans';font-size:14;" x="0" y="16">Mezzanine Duct G Hardware</text><text opacity="0" style="font-family:'Dejavu Sans';font-size=14:" x="0" y="32" /><text opacity="0" style="font-family:'Dejavu Sans';font-size=14:" x="0" y="48">Mezzanine Duct G People</text><text opacity="0" style="font-family:'Dejavu Sans';font-size:14;" x="0" y="64" /><text fill="rgb(178,76,63)" font-size="8px" opacity="1" style="font-family:'Dejavu Sans';" x="1100" y="616">Mezzanine Duct G</text></g><g id="1208_room"><polygon fill="rgb(119,151,159)" points="1096,408 1096,432 1136,432 1136,416 1120,416 1120,408" stroke="black" stroke-width="1" /><text opacity="0" style="font-family:'Dejavu Sans';font-size:14;" x="0" y="0">Mezzanine Duct E</text><text opacity="0" style="font-family:'Dejavu Sans';font-size:14;" x="0" y="16">Mezzanine Duct E Hardware</text><text opacity="0" style="font-family:'Dejavu Sans';font-size=14:" x="0" y="32" /><text opacity="0" style="font-family:'Dejavu Sans';font-size=14:" x="0" y="48">Mezzanine Duct E People</text><text opacity="0" style="font-family:'Dejavu Sans';font-size:14;" x="0" y="64" /><text fill="rgb(178,76,63)" font-size="8px" opacity="1" style="font-family:'Dejavu Sans';" x="1108" y="420">Mezzanine Duct E</text></g><g id="1209_room"><polygon fill="rgb(119,151,159)" points="1112,720 1152,720 1152,696 1112,696" stroke="black" stroke-width="1" /><text opacity="0" style="font-family:'Dejavu Sans';font-size:14;" x="0" y="0">Mezzanine North West Lift</text><text opacity="0" style="font-family:'Dejavu Sans';font-size:14;" x="0" y="16">Mezzanine North West Lift Hardware</text><text opacity="0" style="font-family:'Dejavu Sans';font-size=14:" x="0" y="32" /><text opacity="0" style="font-family:'Dejavu Sans';font-size=14:" x="0" y="48">Mezzanine North West Lift People</text><text opacity="0" style="font-family:'Dejavu Sans';font-size:14;" x="0" y="64" /><text fill="rgb(178,76,63)" font-size="8px" opacity="1" style="font-family:'Dejavu Sans';" x="1124" y="708">Mezzanine North West Lift</text></g><g id="1210_room"><polygon fill="rgb(119,151,159)" points="1144,344 1176,344 1176,320 1144,320" stroke="black" stroke-width="1" /><text opacity="0" style="font-family:'Dejavu Sans';font-size:14;" x="0" y="0">Mezzanine South West Lift</text><text opacity="0" style="font-family:'Dejavu Sans';font-size:14;" x="0" y="16">Mezzanine South West Lift Hardware</text><text opacity="0" style="font-family:'Dejavu Sans';font-size=14:" x="0" y="32" /><text opacity="0" style="font-family:'Dejavu Sans';font-size=14:" x="0" y="48">Mezzanine South West Lift People</text><text opacity="0" style="font-family:'Dejavu Sans';font-size:14;" x="0" y="64" /><text fill="rgb(178,76,63)" font-size="8px" opacity="1" style="font-family:'Dejavu Sans';" x="1152" y="332">Mezzanine South West Lift</text></g><g id="1211_room"><polygon fill="rgb(119,151,159)" points="1080,328 1096,328 1104,280 1080,280" stroke="black" stroke-width="1" /><text opacity="0" style="font-family:'Dejavu Sans';font-size:14;" x="0" y="0">Mezzanine Duct D</text><text opacity="0" style="font-family:'Dejavu Sans';font-size:14;" x="0" y="16">Mezzanine Duct D Hardware</text><text opacity="0" style="font-family:'Dejavu Sans';font-size=14:" x="0" y="32" /><text opacity="0" style="font-family:'Dejavu Sans';font-size=14:" x="0" y="48">Mezzanine Duct D People</text><text opacity="0" style="font-family:'Dejavu Sans';font-size:14;" x="0" y="64" /><text fill="rgb(178,76,63)" font-size="8px" opacity="1" style="font-family:'Dejavu Sans';" x="1084" y="304">Mezzanine Duct D</text></g><g id="1212_room"><polygon fill="rgb(128,128,128)" points="1056,624 1056,672 1144,672 1144,624" stroke="black" stroke-width="1" /><text opacity="0" style="font-family:'Dejavu Sans';font-size:14;" x="0" y="0">Mezzanine North West Stairs</text><text opacity="0" style="font-family:'Dejavu Sans';font-size:14;" x="0" y="16">Mezzanine North West Stairs Hardware</text><text opacity="0" style="font-family:'Dejavu Sans';font-size=14:" x="0" y="32" /><text opacity="0" style="font-family:'Dejavu Sans';font-size=14:" x="0" y="48">Mezzanine North West Stairs People</text><text opacity="0" style="font-family:'Dejavu Sans';font-size:14;" x="0" y="64" /><text fill="rgb(178,76,63)" font-size="8px" opacity="1" style="font-family:'Dejavu Sans';" x="1092" y="648">Mezzanine North West Stairs</text></g><g id="1213_room"><polygon fill="rgb(128,128,128)" points="1080,360 1088,400 1160,408 1160,368" stroke="black" stroke-width="1" /><text opacity="0" style="font-family:'Dejavu Sans';font-size:14;" x="0" y="0">Mezzanine South West Stairs</text><text opacity="0" style="font-family:'Dejavu Sans';font-size:14;" x="0" y="16">Mezzanine South West Stairs Hardware</text><text opacity="0" style="font-family:'Dejavu Sans';font-size=14:" x="0" y="32" /><text opacity="0" style="font-family:'Dejavu Sans';font-size=14:" x="0" y="48">Mezzanine South West Stairs People</text><text opacity="0" style="font-family:'Dejavu Sans';font-size:14;" x="0" y="64" /><text fill="rgb(178,76,63)" font-size="8px" opacity="1" style="font-family:'Dejavu Sans';" x="1112" y="384">Mezzanine South West Stairs</text></g><g id="1214_room"><polygon fill="rgb(119,151,159)" points="264,-16 296,-16 296,-40 264,-40" stroke="black" stroke-width="1" /><text opacity="0" style="font-family:'Dejavu Sans';font-size:14;" x="0" y="0">Mezzanine Duct Q</text><text opacity="0" style="font-family:'Dejavu Sans';font-size:14;" x="0" y="16">Mezzanine Duct Q Hardware</text><text opacity="0" style="font-family:'Dejavu Sans';font-size=14:" x="0" y="32" /><text opacity="0" style="font-family:'Dejavu Sans';font-size=14:" x="0" y="48">Mezzanine Duct Q People</text><text opacity="0" style="font-family:'Dejavu Sans';font-size:14;" x="0" y="64" /><text fill="rgb(178,76,63)" font-size="8px" opacity="1" style="font-family:'Dejavu Sans';" x="272" y="-20">Mezzanine Duct Q</text></g><g id="1215_room"><polygon fill="rgb(119,151,159)" points="32,240 48,312 56,312 48,240" stroke="black" stroke-width="1" /><text opacity="0" style="font-family:'Dejavu Sans';font-size:14;" x="0" y="0">Mezzanine Duct O</text><text opacity="0" style="font-family:'Dejavu Sans';font-size:14;" x="0" y="16">Mezzanine Duct O Hardware</text><text opacity="0" style="font-family:'Dejavu Sans';font-size=14:" x="0" y="32" /><text opacity="0" style="font-family:'Dejavu Sans';font-size=14:" x="0" y="48">Mezzanine Duct O People</text><text opacity="0" style="font-family:'Dejavu Sans';font-size:14;" x="0" y="64" /><text fill="rgb(178,76,63)" font-size="8px" opacity="1" style="font-family:'Dejavu Sans';" x="36" y="276">Mezzanine Duct O</text></g><g id="1216_room"><polygon fill="rgb(128,128,128)" points="8,240 16,312 48,312 32,240" stroke="black" stroke-width="1" /><text opacity="0" style="font-family:'Dejavu Sans';font-size:14;" x="0" y="0">Mezzanine Far East Stairs</text><text opacity="0" style="font-family:'Dejavu Sans';font-size:14;" x="0" y="16">Mezzanine Far East Stairs Hardware</text><text opacity="0" style="font-family:'Dejavu Sans';font-size=14:" x="0" y="32" /><text opacity="0" style="font-family:'Dejavu Sans';font-size=14:" x="0" y="48">Mezzanine Far East Stairs People</text><text opacity="0" style="font-family:'Dejavu Sans';font-size:14;" x="0" y="64" /><text fill="rgb(178,76,63)" font-size="8px" opacity="1" style="font-family:'Dejavu Sans';" x="20" y="276">Mezzanine Far East Stairs</text></g><g id="1217_room"><polygon fill="rgb(128,128,128)" points="360,-8 424,-8 424,-40 320,-40 320,-32 360,-32" stroke="black" stroke-width="1" /><text opacity="0" style="font-family:'Dejavu Sans';font-size:14;" x="0" y="0">Mezzanine South Stairs</text><text opacity="0" style="font-family:'Dejavu Sans';font-size:14;" x="0" y="16">Mezzanine South Stairs Hardware</text><text opacity="0" style="font-family:'Dejavu Sans';font-size=14:" x="0" y="32" /><text opacity="0" style="font-family:'Dejavu Sans';font-size=14:" x="0" y="48">Mezzanine South Stairs People</text><text opacity="0" style="font-family:'Dejavu Sans';font-size:14;" x="0" y="64" /><text fill="rgb(178,76,63)" font-size="8px" opacity="1" style="font-family:'Dejavu Sans';" x="364" y="-20">Mezzanine South Stairs</text></g><g id="1218_room"><polygon fill="rgb(119,151,159)" points="440,560 536,560 536,400 448,384" stroke="black" stroke-width="1" /><text opacity="0" style="font-family:'Dejavu Sans';font-size:14;" x="0" y="0">Mezzanine LT1 Atrium</text><text opacity="0" style="font-family:'Dejavu Sans';font-size:14;" x="0" y="16">Mezzanine LT1 Atrium Hardware</text><text opacity="0" style="font-family:'Dejavu Sans';font-size=14:" x="0" y="32" /><text opacity="0" style="font-family:'Dejavu Sans';font-size=14:" x="0" y="48">Mezzanine LT1 Atrium People</text><text opacity="0" style="font-family:'Dejavu Sans';font-size:14;" x="0" y="64" /><text fill="rgb(178,76,63)" font-size="8px" opacity="1" style="font-family:'Dejavu Sans';" x="480" y="472">Mezzanine LT1 Atrium</text></g><g id="1219_room"><polygon fill="rgb(128,128,128)" points="1088,672 1088,696 1144,696 1144,672" stroke="black" stroke-width="1" /><text opacity="0" style="font-family:'Dejavu Sans';font-size:14;" x="0" y="0">Mezzanine North West Corridor</text><text opacity="0" style="font-family:'Dejavu Sans';font-size:14;" x="0" y="16">Mezzanine North West Corridor Hardware</text><text opacity="0" style="font-family:'Dejavu Sans';font-size=14:" x="0" y="32" /><text opacity="0" style="font-family:'Dejavu Sans';font-size=14:" x="0" y="48">Mezzanine North West Corridor People</text><text opacity="0" style="font-family:'Dejavu Sans';font-size:14;" x="0" y="64" /><text fill="rgb(178,76,63)" font-size="8px" opacity="1" style="font-family:'Dejavu Sans';" x="1108" y="684">Mezzanine North West Corridor</text></g><g id="1220_room"><polygon fill="rgb(128,128,128)" points="1144,416 1128,632 1144,632 1160,416" stroke="black" stroke-width="1" /><text opacity="0" style="font-family:'Dejavu Sans';font-size:14;" x="0" y="0">Mezzanine West Corridor</text><text opacity="0" style="font-family:'Dejavu Sans';font-size:14;" x="0" y="16">Mezzanine West Corridor Hardware</text><text opacity="0" style="font-family:'Dejavu Sans';font-size=14:" x="0" y="32" /><text opacity="0" style="font-family:'Dejavu Sans';font-size=14:" x="0" y="48">Mezzanine West Corridor People</text><text opacity="0" style="font-family:'Dejavu Sans';font-size:14;" x="0" y="64" /><text fill="rgb(178,76,63)" font-size="8px" opacity="1" style="font-family:'Dejavu Sans';" x="1136" y="524">Mezzanine West Corridor</text></g><g id="1221_room"><polygon fill="rgb(128,128,128)" points="1104,312 1096,360 1168,368 1168,344 1144,344 1144,320" stroke="black" stroke-width="1" /><text opacity="0" style="font-family:'Dejavu Sans';font-size:14;" x="0" y="0">Mezzanine South West Corridor</text><text opacity="0" style="font-family:'Dejavu Sans';font-size:14;" x="0" y="16">Mezzanine South West Corridor Hardware</text><text opacity="0" style="font-family:'Dejavu Sans';font-size=14:" x="0" y="32" /><text opacity="0" style="font-family:'Dejavu Sans';font-size=14:" x="0" y="48">Mezzanine South West Corridor People</text><text opacity="0" style="font-family:'Dejavu Sans';font-size:14;" x="0" y="64" /><text fill="rgb(178,76,63)" font-size="8px" opacity="1" style="font-family:'Dejavu Sans';" x="1124" y="340">Mezzanine South West Corridor</text></g><g id="1375_room"><polygon fill="rgb(128,128,128)" points="1088,672 1088,696 1152,696 1152,672" stroke="black" stroke-width="1" /><text opacity="0" style="font-family:'Dejavu Sans';font-size:14;" x="0" y="0">mezz-north-corridor</text><text opacity="0" style="font-family:'Dejavu Sans';font-size:14;" x="0" y="16">mezz-north-corridor Hardware</text><text opacity="0" style="font-family:'Dejavu Sans';font-size=14:" x="0" y="32" /><text opacity="0" style="font-family:'Dejavu Sans';font-size=14:" x="0" y="48">mezz-north-corridor People</text><text opacity="0" style="font-family:'Dejavu Sans';font-size:14;" x="0" y="64" /><text fill="rgb(178,76,63)" font-size="8px" opacity="1" style="font-family:'Dejavu Sans';" x="1112" y="684">mezz-north-corridor</text></g><g id="1376_room"><polygon fill="rgb(128,128,128)" points="1136,416 1128,672 1144,672 1152,416" stroke="black" stroke-width="1" /><text opacity="0" style="font-family:'Dejavu Sans';font-size:14;" x="0" y="0">mezz-west-corridor</text><text opacity="0" style="font-family:'Dejavu Sans';font-size:14;" x="0" y="16">mezz-west-corridor Hardware</text><text opacity="0" style="font-family:'Dejavu Sans';font-size=14:" x="0" y="32" /><text opacity="0" style="font-family:'Dejavu Sans';font-size=14:" x="0" y="48">mezz-west-corridor People</text><text opacity="0" style="font-family:'Dejavu Sans';font-size:14;" x="0" y="64" /><text fill="rgb(178,76,63)" font-size="8px" opacity="1" style="font-family:'Dejavu Sans';" x="1132" y="544">mezz-west-corridor</text></g><g id="1377_room"><polygon fill="rgb(128,128,128)" points="1088,320 1080,376 1160,368 1168,344 1144,344 1144,320" stroke="black" stroke-width="1" /><text opacity="0" style="font-family:'Dejavu Sans';font-size:14;" x="0" y="0">mezz-south-corridor</text><text opacity="0" style="font-family:'Dejavu Sans';font-size:14;" x="0" y="16">mezz-south-corridor Hardware</text><text opacity="0" style="font-family:'Dejavu Sans';font-size=14:" x="0" y="32" /><text opacity="0" style="font-family:'Dejavu Sans';font-size=14:" x="0" y="48">mezz-south-corridor People</text><text opacity="0" style="font-family:'Dejavu Sans';font-size:14;" x="0" y="64" /><text fill="rgb(178,76,63)" font-size="8px" opacity="1" style="font-family:'Dejavu Sans';" x="1116" y="348">mezz-south-corridor</text></g></g></svg>