<?xml version="1.0" encoding="utf-8" ?>
<svg baseProfile="full" height="1300px" version="1.1" width="1500px" xmlns="http://www.w3.org/2000/svg" xmlns:ev="http://www.w3.org/2001/xml-events" xmlns:xlink="http://www.w3.org/1999/xlink"><defs /><polyline fill="white" points="272,-40 264,216 8,240 16,344 312,320 416,320 464,328 448,768 1224,768 1224,560 1256,288 536,192 536,208 480,200 472,224 416,0 432,0 432,-40 272,-40" stroke="black" stroke-width="3.5" /><g id="floor_n"><g id="222_room"><polygon fill="rgb(119,151,159)" points="1192,648 1192,672 1216,672 1216,640" stroke="black" stroke-width="1" /><text opacity="0" style="font-family:'Dejavu Sans';font-size:14;" x="0" y="0">415</text><text opacity="0" style="font-family:'Dejavu Sans';font-size:14;" x="0" y="16">415 Hardware</text><text opacity="0" style="font-family:'Dejavu Sans';font-size=14:" x="0" y="32">titan</text><text opacity="0" style="font-family:'Dejavu Sans';font-size=14:" x="0" y="48">415 People</text><text opacity="0" style="font-family:'Dejavu Sans';font-size:14;" x="0" y="64" /><text fill="rgb(178,76,63)" font-size="8px" opacity="1" style="font-family:'Dejavu Sans';" x="1196" y="656">415</text></g><g id="210_room"><polygon fill="rgb(119,151,159)" points="1088,360 1080,400 1120,408 1120,360" stroke="black" stroke-width="1" /><text opacity="0" style="font-family:'Dejavu Sans';font-size:14;" x="0" y="0">404</text><text opacity="0" style="font-family:'Dejavu Sans';font-size:14;" x="0" y="16">404 Hardware</text><text opacity="0" style="font-family:'Dejavu Sans';font-size=14:" x="0" y="32" /><text opacity="0" style="font-family:'Dejavu Sans';font-size=14:" x="0" y="48">404 People</text><text opacity="0" style="font-family:'Dejavu Sans';font-size:14;" x="0" y="64" /><text fill="rgb(178,76,63)" font-size="8px" opacity="1" style="font-family:'Dejavu Sans';" x="1092" y="384">404</text></g><g id="223_room"><polygon fill="rgb(119,151,159)" points="1160,640 1160,704 1184,704 1184,640" stroke="black" stroke-width="1" /><text opacity="0" style="font-family:'Dejavu Sans';font-size:14;" x="0" y="0">416</text><text opacity="0" style="font-family:'Dejavu Sans';font-size:14;" x="0" y="16">416 Hardware</text><text opacity="0" style="font-family:'Dejavu Sans';font-size=14:" x="0" y="32">Unknown, bo237 autoreg for 1274personal, tecra, azadi, elanor, rljpclap04, dragster, bo237 autoreg for 1274personal, oamp2 autoreg for 3157personal, oamp2 autoreg for 3157personal, incus, bo237 autoreg for 1274personal, bo237 autoreg for 1274personal, rf10001 autoreg for 425institutional</text><text opacity="0" style="font-family:'Dejavu Sans';font-size=14:" x="0" y="48">416 People</text><text opacity="0" style="font-family:'Dejavu Sans';font-size:14;" x="0" y="64">Bin Ouyang</text><text fill="rgb(178,76,63)" font-size="8px" opacity="1" style="font-family:'Dejavu Sans';" x="1164" y="672">416</text></g><g id="230_room"><polygon fill="rgb(119,151,159)" points="1104,432 1104,448 1128,448 1128,432" stroke="black" stroke-width="1" /><text opacity="0" style="font-family:'Dejavu Sans';font-size:14;" x="0" y="0">426</text><text opacity="0" style="font-family:'Dejavu Sans';font-size:14;" x="0" y="16">426 Hardware</text><text opacity="0" style="font-family:'Dejavu Sans';font-size=14:" x="0" y="32">mim25 autoreg for 425institutional, BBCRDS, svalbard</text><text opacity="0" style="font-family:'Dejavu Sans';font-size=14:" x="0" y="48">426 People</text><text opacity="0" style="font-family:'Dejavu Sans';font-size:14;" x="0" y="64" /><text fill="rgb(178,76,63)" font-size="8px" opacity="1" style="font-family:'Dejavu Sans';" x="1108" y="440">426</text></g><g id="224_room"><polygon fill="rgb(119,151,159)" points="1160,608 1160,640 1184,640 1184,632 1192,632 1192,608" stroke="black" stroke-width="1" /><text opacity="0" style="font-family:'Dejavu Sans';font-size:14;" x="0" y="0">417</text><text opacity="0" style="font-family:'Dejavu Sans';font-size:14;" x="0" y="16">417 Hardware</text><text opacity="0" style="font-family:'Dejavu Sans';font-size=14:" x="0" y="32">HOWARTH</text><text opacity="0" style="font-family:'Dejavu Sans';font-size=14:" x="0" y="48">417 People</text><text opacity="0" style="font-family:'Dejavu Sans';font-size:14;" x="0" y="64" /><text fill="rgb(178,76,63)" font-size="8px" opacity="1" style="font-family:'Dejavu Sans';" x="1168" y="624">417</text></g><g id="232_room"><polygon fill="rgb(119,151,159)" points="1072,624 1072,672 1104,672 1104,624" stroke="black" stroke-width="1" /><text opacity="0" style="font-family:'Dejavu Sans';font-size:14;" x="0" y="0">430</text><text opacity="0" style="font-family:'Dejavu Sans';font-size:14;" x="0" y="16">430 Hardware</text><text opacity="0" style="font-family:'Dejavu Sans';font-size=14:" x="0" y="32" /><text opacity="0" style="font-family:'Dejavu Sans';font-size=14:" x="0" y="48">430 People</text><text opacity="0" style="font-family:'Dejavu Sans';font-size:14;" x="0" y="64" /><text fill="rgb(178,76,63)" font-size="8px" opacity="1" style="font-family:'Dejavu Sans';" x="1080" y="648">430</text></g><g id="212_room"><polygon fill="rgb(119,151,159)" points="1192,288 1176,424 1200,424 1200,384 1232,384 1248,296" stroke="black" stroke-width="1" /><text opacity="0" style="font-family:'Dejavu Sans';font-size:14;" x="0" y="0">406</text><text opacity="0" style="font-family:'Dejavu Sans';font-size:14;" x="0" y="16">406 Hardware</text><text opacity="0" style="font-family:'Dejavu Sans';font-size=14:" x="0" y="32">cedrus, sluseholmen, ubeauty, dma, pd260 autoreg for 4034institutional, mango, sjf53 autoreg for 4034institutional, sjf53 autoreg for 5079institutional, ros-pc, bmm40 autoreg for 4034institutional, cims, bmm40 autoreg for 7086institutional</text><text opacity="0" style="font-family:'Dejavu Sans';font-size=14:" x="0" y="48">406 People</text><text opacity="0" style="font-family:'Dejavu Sans';font-size:14;" x="0" y="64">Markus Kalberer</text><text fill="rgb(178,76,63)" font-size="8px" opacity="1" style="font-family:'Dejavu Sans';" x="1204" y="356">406</text></g><g id="231_room"><polygon fill="rgb(119,151,159)" points="1064,672 1064,712 1112,712 1112,672" stroke="black" stroke-width="1" /><text opacity="0" style="font-family:'Dejavu Sans';font-size:14;" x="0" y="0">429</text><text opacity="0" style="font-family:'Dejavu Sans';font-size:14;" x="0" y="16">429 Hardware</text><text opacity="0" style="font-family:'Dejavu Sans';font-size=14:" x="0" y="32">pjg48 autoreg for 5079personal, rhino, poplar, osterbro, quercus, norrebro, christianshavn, peacock, bispebjerg</text><text opacity="0" style="font-family:'Dejavu Sans';font-size=14:" x="0" y="48">429 People</text><text opacity="0" style="font-family:'Dejavu Sans';font-size:14;" x="0" y="64">Peter James Gallimore</text><text fill="rgb(178,76,63)" font-size="8px" opacity="1" style="font-family:'Dejavu Sans';" x="1080" y="692">429</text></g><g id="226_room"><polygon fill="rgb(119,151,159)" points="1104,720 1152,720 1152,752 1104,752" stroke="black" stroke-width="1" /><text opacity="0" style="font-family:'Dejavu Sans';font-size:14;" x="0" y="0">418</text><text opacity="0" style="font-family:'Dejavu Sans';font-size:14;" x="0" y="16">418 Hardware</text><text opacity="0" style="font-family:'Dejavu Sans';font-size=14:" x="0" y="32">xmac.atm, pyrocumulus, rljmac, rljair, djp15 autoreg for 425institutional, djp15 autoreg for 425institutional</text><text opacity="0" style="font-family:'Dejavu Sans';font-size=14:" x="0" y="48">418 People</text><text opacity="0" style="font-family:'Dejavu Sans';font-size:14;" x="0" y="64">Rod Jones</text><text fill="rgb(178,76,63)" font-size="8px" opacity="1" style="font-family:'Dejavu Sans';" x="1120" y="736">418</text></g><g id="229_room"><polygon fill="rgb(119,151,159)" points="1104,448 1096,552 1136,552 1144,432 1128,432 1128,448" stroke="black" stroke-width="1" /><text opacity="0" style="font-family:'Dejavu Sans';font-size:14;" x="0" y="0">425</text><text opacity="0" style="font-family:'Dejavu Sans';font-size:14;" x="0" y="16">425 Hardware</text><text opacity="0" style="font-family:'Dejavu Sans';font-size=14:" x="0" y="32">airless, lightning, congestus, mah1002 autoreg for 5115personal, parhelion, fractus, oamp2 autoreg for 425institutional, oamp2 autoreg for 425institutional, rf10001 autoreg for 425institutional</text><text opacity="0" style="font-family:'Dejavu Sans';font-size=14:" x="0" y="48">425 People</text><text opacity="0" style="font-family:'Dejavu Sans';font-size:14;" x="0" y="64">Andrea Di Antonio</text><text fill="rgb(178,76,63)" font-size="8px" opacity="1" style="font-family:'Dejavu Sans';" x="1112" y="492">425</text></g><g id="221_room"><polygon fill="rgb(119,151,159)" points="1160,704 1160,752 1216,752 1216,672 1192,672 1192,648 1208,640 1216,640 1216,608 1192,608 1192,632 1184,632 1184,704" stroke="black" stroke-width="1" /><text opacity="0" style="font-family:'Dejavu Sans';font-size:14;" x="0" y="0">414</text><text opacity="0" style="font-family:'Dejavu Sans';font-size:14;" x="0" y="16">414 Hardware</text><text opacity="0" style="font-family:'Dejavu Sans';font-size=14:" x="0" y="32">exbox3, aqweblogger, typhoon, omega, irspec, oamp2 autoreg for 425institutional, ronoco2</text><text opacity="0" style="font-family:'Dejavu Sans';font-size=14:" x="0" y="48">414 People</text><text opacity="0" style="font-family:'Dejavu Sans';font-size:14;" x="0" y="64">Bin Ouyang, Raymond Freshwater</text><text fill="rgb(178,76,63)" font-size="8px" opacity="1" style="font-family:'Dejavu Sans';" x="1180" y="680">414</text></g><g id="217_room"><polygon fill="rgb(119,151,159)" points="1160,552 1160,584 1200,584 1200,552" stroke="black" stroke-width="1" /><text opacity="0" style="font-family:'Dejavu Sans';font-size:14;" x="0" y="0">411</text><text opacity="0" style="font-family:'Dejavu Sans';font-size:14;" x="0" y="16">411 Hardware</text><text opacity="0" style="font-family:'Dejavu Sans';font-size=14:" x="0" y="32">nacreous, halo, pjones, Bearcroft</text><text opacity="0" style="font-family:'Dejavu Sans';font-size=14:" x="0" y="48">411 People</text><text opacity="0" style="font-family:'Dejavu Sans';font-size:14;" x="0" y="64">Raymond Freshwater</text><text fill="rgb(178,76,63)" font-size="8px" opacity="1" style="font-family:'Dejavu Sans';" x="1172" y="568">411</text></g><g id="218_room"><polygon fill="rgb(119,151,159)" points="1200,584 1224,584 1224,552 1200,552" stroke="black" stroke-width="1" /><text opacity="0" style="font-family:'Dejavu Sans';font-size:14;" x="0" y="0">412</text><text opacity="0" style="font-family:'Dejavu Sans';font-size:14;" x="0" y="16">412 Hardware</text><text opacity="0" style="font-family:'Dejavu Sans';font-size=14:" x="0" y="32">rf10001 autoreg for 5281institutional, glory2</text><text opacity="0" style="font-family:'Dejavu Sans';font-size=14:" x="0" y="48">412 People</text><text opacity="0" style="font-family:'Dejavu Sans';font-size:14;" x="0" y="64">Raymond Freshwater</text><text fill="rgb(178,76,63)" font-size="8px" opacity="1" style="font-family:'Dejavu Sans';" x="1204" y="568">412</text></g><g id="710_room"><polygon fill="rgb(119,151,159)" points="344,216 344,248 328,248 328,264 344,264 344,288 320,288 320,312 408,312 520,328 536,232 416,216" stroke="black" stroke-width="1" /><text opacity="0" style="font-family:'Dejavu Sans';font-size:14;" x="0" y="0">Plant Room 2</text><text opacity="0" style="font-family:'Dejavu Sans';font-size:14;" x="0" y="16">Plant Room 2 Hardware</text><text opacity="0" style="font-family:'Dejavu Sans';font-size=14:" x="0" y="32" /><text opacity="0" style="font-family:'Dejavu Sans';font-size=14:" x="0" y="48">Plant Room 2 People</text><text opacity="0" style="font-family:'Dejavu Sans';font-size:14;" x="0" y="64" /><text fill="rgb(178,76,63)" font-size="8px" opacity="1" style="font-family:'Dejavu Sans';" x="420" y="272">Plant Room 2</text></g><g id="211_room"><polygon fill="rgb(119,151,159)" points="1136,280 1136,312 1176,320 1176,288" stroke="black" stroke-width="1" /><text opacity="0" style="font-family:'Dejavu Sans';font-size:14;" x="0" y="0">405</text><text opacity="0" style="font-family:'Dejavu Sans';font-size:14;" x="0" y="16">405 Hardware</text><text opacity="0" style="font-family:'Dejavu Sans';font-size=14:" x="0" y="32">orestad, fireice, spruce</text><text opacity="0" style="font-family:'Dejavu Sans';font-size=14:" x="0" y="48">405 People</text><text opacity="0" style="font-family:'Dejavu Sans';font-size:14;" x="0" y="64">Markus Kalberer</text><text fill="rgb(178,76,63)" font-size="8px" opacity="1" style="font-family:'Dejavu Sans';" x="1148" y="300">405</text></g><g id="213_room"><polygon fill="rgb(119,151,159)" points="1200,384 1200,432 1232,440 1232,384" stroke="black" stroke-width="1" /><text opacity="0" style="font-family:'Dejavu Sans';font-size:14;" x="0" y="0">407</text><text opacity="0" style="font-family:'Dejavu Sans';font-size:14;" x="0" y="16">407 Hardware</text><text opacity="0" style="font-family:'Dejavu Sans';font-size=14:" x="0" y="32">transparent, chile, muffin, creative, diac, gonzesse, tapcon, manik, Ingleside, pjg48 autoreg for 5079personal, islandsbrygge, fraxinus, djp15 autoreg for 4034institutional, Unknown, fphw2 autoreg for 4034institutional, tumble, ootischenia, bmm40 autoreg for 6452personal</text><text opacity="0" style="font-family:'Dejavu Sans';font-size=14:" x="0" y="48">407 People</text><text opacity="0" style="font-family:'Dejavu Sans';font-size:14;" x="0" y="64">Anna Fee, Arthur Timothy Zielinski, Steven John Campbell, Markus Kalberer</text><text fill="rgb(178,76,63)" font-size="8px" opacity="1" style="font-family:'Dejavu Sans';" x="1208" y="412">407</text></g><g id="214_room"><polygon fill="rgb(119,151,159)" points="1168,480 1224,480 1232,440 1200,432 1200,424 1176,424 1176,432 1168,432" stroke="black" stroke-width="1" /><text opacity="0" style="font-family:'Dejavu Sans';font-size:14;" x="0" y="0">408</text><text opacity="0" style="font-family:'Dejavu Sans';font-size:14;" x="0" y="16">408 Hardware</text><text opacity="0" style="font-family:'Dejavu Sans';font-size=14:" x="0" y="32">nantwi, newftir, newdiac, opaque, sjf53 autoreg for 4034institutional, fphw2 autoreg for 4034institutional, picarro</text><text opacity="0" style="font-family:'Dejavu Sans';font-size=14:" x="0" y="48">408 People</text><text opacity="0" style="font-family:'Dejavu Sans';font-size:14;" x="0" y="64">Markus Kalberer</text><text fill="rgb(178,76,63)" font-size="8px" opacity="1" style="font-family:'Dejavu Sans';" x="1192" y="452">408</text></g><g id="219_room"><polygon fill="rgb(119,151,159)" points="1160,584 1160,608 1192,608 1192,584" stroke="black" stroke-width="1" /><text opacity="0" style="font-family:'Dejavu Sans';font-size:14;" x="0" y="0">413</text><text opacity="0" style="font-family:'Dejavu Sans';font-size:14;" x="0" y="16">413 Hardware</text><text opacity="0" style="font-family:'Dejavu Sans';font-size=14:" x="0" y="32">cyclone, rain, monsoon, hurricane, cumulas, rljpclap01, rljpclap01p, dial, cyclone2, oamp2 autoreg for 3157personal, oamp2 autoreg for 3157personal, oamp2 autoreg for 3157personal, susquehanna, dell413</text><text opacity="0" style="font-family:'Dejavu Sans';font-size=14:" x="0" y="48">413 People</text><text opacity="0" style="font-family:'Dejavu Sans';font-size:14;" x="0" y="64" /><text fill="rgb(178,76,63)" font-size="8px" opacity="1" style="font-family:'Dejavu Sans';" x="1168" y="596">413</text></g><g id="760_room"><polygon fill="rgb(119,151,159)" points="1112,280 1112,296 1136,296 1136,280" stroke="black" stroke-width="1" /><text opacity="0" style="font-family:'Dejavu Sans';font-size:14;" x="0" y="0">433</text><text opacity="0" style="font-family:'Dejavu Sans';font-size:14;" x="0" y="16">433 Hardware</text><text opacity="0" style="font-family:'Dejavu Sans';font-size=14:" x="0" y="32" /><text opacity="0" style="font-family:'Dejavu Sans';font-size=14:" x="0" y="48">433 People</text><text opacity="0" style="font-family:'Dejavu Sans';font-size:14;" x="0" y="64" /><text fill="rgb(178,76,63)" font-size="8px" opacity="1" style="font-family:'Dejavu Sans';" x="1116" y="288">433</text></g><g id="227_room"><polygon fill="rgb(119,151,159)" points="1072,712 1072,736 1064,736 1064,752 1104,752 1104,720 1112,720 1112,712" stroke="black" stroke-width="1" /><text opacity="0" style="font-family:'Dejavu Sans';font-size:14;" x="0" y="0">419</text><text opacity="0" style="font-family:'Dejavu Sans';font-size:14;" x="0" y="16">419 Hardware</text><text opacity="0" style="font-family:'Dejavu Sans';font-size=14:" x="0" y="32">accentchief, mkmaclap01, creativeness, mkmac01, accentchief2, mk594 autoreg for 4034personal, kalbererair</text><text opacity="0" style="font-family:'Dejavu Sans';font-size=14:" x="0" y="48">419 People</text><text opacity="0" style="font-family:'Dejavu Sans';font-size:14;" x="0" y="64">Markus Kalberer</text><text fill="rgb(178,76,63)" font-size="8px" opacity="1" style="font-family:'Dejavu Sans';" x="1080" y="732">419</text></g><g id="228_room"><polygon fill="rgb(119,151,159)" points="1096,552 1096,600 1136,600 1136,552" stroke="black" stroke-width="1" /><text opacity="0" style="font-family:'Dejavu Sans';font-size:14;" x="0" y="0">424</text><text opacity="0" style="font-family:'Dejavu Sans';font-size:14;" x="0" y="16">424 Hardware</text><text opacity="0" style="font-family:'Dejavu Sans';font-size=14:" x="0" y="32">capillatus, orkney, tornado, ec571 autoreg for 7480personal, stress, thunder, frost, kernow, pileus, darcheville, rljpclap02p, rljpclap03p, sensor, storm, pannus, chill, arcus, rb636 autoreg for 5889personal, oamp2 autoreg for 3157personal, pegasus, oamp2 autoreg for 425institutional, oamp2 autoreg for 3157personal, vega, humilis, kevin, oamp2 autoreg for 3157personal, oamp2 autoreg for 3157personal, uncinus, hollister, oamp2 autoreg for 3157personal</text><text opacity="0" style="font-family:'Dejavu Sans';font-size=14:" x="0" y="48">424 People</text><text opacity="0" style="font-family:'Dejavu Sans';font-size:14;" x="0" y="64">Evangelia Chatzidiakou, Ronan Baron, Anika Krause, Olalekan Popoola, Xiangxu Meng, Tabea Kohler</text><text fill="rgb(178,76,63)" font-size="8px" opacity="1" style="font-family:'Dejavu Sans';" x="1108" y="576">424</text></g><g id="756_room"><polygon fill="rgb(119,151,159)" points="1120,624 1136,624 1136,600 1120,600" stroke="black" stroke-width="1" /><text opacity="0" style="font-family:'Dejavu Sans';font-size:14;" x="0" y="0">423</text><text opacity="0" style="font-family:'Dejavu Sans';font-size:14;" x="0" y="16">423 Hardware</text><text opacity="0" style="font-family:'Dejavu Sans';font-size=14:" x="0" y="32" /><text opacity="0" style="font-family:'Dejavu Sans';font-size=14:" x="0" y="48">423 People</text><text opacity="0" style="font-family:'Dejavu Sans';font-size:14;" x="0" y="64" /><text fill="rgb(178,76,63)" font-size="8px" opacity="1" style="font-family:'Dejavu Sans';" x="1120" y="612">423</text></g><g id="758_room"><polygon fill="rgb(119,151,159)" points="1112,320 1112,336 1120,336 1120,320" stroke="black" stroke-width="1" /><text opacity="0" style="font-family:'Dejavu Sans';font-size:14;" x="0" y="0">431</text><text opacity="0" style="font-family:'Dejavu Sans';font-size:14;" x="0" y="16">431 Hardware</text><text opacity="0" style="font-family:'Dejavu Sans';font-size=14:" x="0" y="32" /><text opacity="0" style="font-family:'Dejavu Sans';font-size=14:" x="0" y="48">431 People</text><text opacity="0" style="font-family:'Dejavu Sans';font-size:14;" x="0" y="64" /><text fill="rgb(178,76,63)" font-size="8px" opacity="1" style="font-family:'Dejavu Sans';" x="1108" y="328">431</text></g><g id="759_room"><polygon fill="rgb(119,151,159)" points="1112,296 1112,312 1120,312 1120,296" stroke="black" stroke-width="1" /><text opacity="0" style="font-family:'Dejavu Sans';font-size:14;" x="0" y="0">432</text><text opacity="0" style="font-family:'Dejavu Sans';font-size:14;" x="0" y="16">432 Hardware</text><text opacity="0" style="font-family:'Dejavu Sans';font-size=14:" x="0" y="32" /><text opacity="0" style="font-family:'Dejavu Sans';font-size=14:" x="0" y="48">432 People</text><text opacity="0" style="font-family:'Dejavu Sans';font-size:14;" x="0" y="64" /><text fill="rgb(178,76,63)" font-size="8px" opacity="1" style="font-family:'Dejavu Sans';" x="1108" y="304">432</text></g><g id="762_room"><polygon fill="rgb(119,151,159)" points="1120,336 1152,336 1152,312 1136,312 1136,296 1120,296" stroke="black" stroke-width="1" /><text opacity="0" style="font-family:'Dejavu Sans';font-size:14;" x="0" y="0">403</text><text opacity="0" style="font-family:'Dejavu Sans';font-size:14;" x="0" y="16">403 Hardware</text><text opacity="0" style="font-family:'Dejavu Sans';font-size=14:" x="0" y="32" /><text opacity="0" style="font-family:'Dejavu Sans';font-size=14:" x="0" y="48">403 People</text><text opacity="0" style="font-family:'Dejavu Sans';font-size:14;" x="0" y="64" /><text fill="rgb(178,76,63)" font-size="8px" opacity="1" style="font-family:'Dejavu Sans';" x="1128" y="316">403</text></g><g id="220_room"><polygon fill="rgb(119,151,159)" points="1192,608 1224,608 1224,584 1192,584" stroke="black" stroke-width="1" /><text opacity="0" style="font-family:'Dejavu Sans';font-size:14;" x="0" y="0">413A</text><text opacity="0" style="font-family:'Dejavu Sans';font-size:14;" x="0" y="16">413A Hardware</text><text opacity="0" style="font-family:'Dejavu Sans';font-size=14:" x="0" y="32">kelvin, ps683 autoreg for 7243personal, ps683 autoreg for 7243personal, bureau</text><text opacity="0" style="font-family:'Dejavu Sans';font-size=14:" x="0" y="48">413A People</text><text opacity="0" style="font-family:'Dejavu Sans';font-size:14;" x="0" y="64" /><text fill="rgb(178,76,63)" font-size="8px" opacity="1" style="font-family:'Dejavu Sans';" x="1200" y="596">413A</text></g><g id="763_room"><polygon fill="rgb(119,151,159)" points="1104,408 1104,432 1152,432 1152,416 1128,416 1128,408" stroke="black" stroke-width="1" /><text opacity="0" style="font-family:'Dejavu Sans';font-size:14;" x="0" y="0">427</text><text opacity="0" style="font-family:'Dejavu Sans';font-size:14;" x="0" y="16">427 Hardware</text><text opacity="0" style="font-family:'Dejavu Sans';font-size=14:" x="0" y="32" /><text opacity="0" style="font-family:'Dejavu Sans';font-size=14:" x="0" y="48">427 People</text><text opacity="0" style="font-family:'Dejavu Sans';font-size:14;" x="0" y="64" /><text fill="rgb(178,76,63)" font-size="8px" opacity="1" style="font-family:'Dejavu Sans';" x="1120" y="420">427</text></g><g id="1279_room"><polygon fill="rgb(128,128,128)" points="1104,624 1104,672 1136,672 1136,624" stroke="black" stroke-width="1" /><text opacity="0" style="font-family:'Dejavu Sans';font-size:14;" x="0" y="0">4thFloor North West Stairs</text><text opacity="0" style="font-family:'Dejavu Sans';font-size:14;" x="0" y="16">4thFloor North West Stairs Hardware</text><text opacity="0" style="font-family:'Dejavu Sans';font-size=14:" x="0" y="32" /><text opacity="0" style="font-family:'Dejavu Sans';font-size=14:" x="0" y="48">4thFloor North West Stairs People</text><text opacity="0" style="font-family:'Dejavu Sans';font-size:14;" x="0" y="64" /><text fill="rgb(178,76,63)" font-size="8px" opacity="1" style="font-family:'Dejavu Sans';" x="1112" y="648">4thFloor North West Stairs</text></g><g id="1280_room"><polygon fill="rgb(119,151,159)" points="1096,624 1120,624 1120,600 1096,600" stroke="black" stroke-width="1" /><text opacity="0" style="font-family:'Dejavu Sans';font-size:14;" x="0" y="0">4th Floor Duct G</text><text opacity="0" style="font-family:'Dejavu Sans';font-size:14;" x="0" y="16">4th Floor Duct G Hardware</text><text opacity="0" style="font-family:'Dejavu Sans';font-size=14:" x="0" y="32" /><text opacity="0" style="font-family:'Dejavu Sans';font-size=14:" x="0" y="48">4th Floor Duct G People</text><text opacity="0" style="font-family:'Dejavu Sans';font-size:14;" x="0" y="64" /><text fill="rgb(178,76,63)" font-size="8px" opacity="1" style="font-family:'Dejavu Sans';" x="1100" y="612">4th Floor Duct G</text></g><g id="1281_room"><polygon fill="rgb(128,128,128)" points="1120,360 1120,408 1152,408 1152,368" stroke="black" stroke-width="1" /><text opacity="0" style="font-family:'Dejavu Sans';font-size:14;" x="0" y="0">4th Floor South West Stairs</text><text opacity="0" style="font-family:'Dejavu Sans';font-size:14;" x="0" y="16">4th Floor South West Stairs Hardware</text><text opacity="0" style="font-family:'Dejavu Sans';font-size=14:" x="0" y="32" /><text opacity="0" style="font-family:'Dejavu Sans';font-size=14:" x="0" y="48">4th Floor South West Stairs People</text><text opacity="0" style="font-family:'Dejavu Sans';font-size:14;" x="0" y="64" /><text fill="rgb(178,76,63)" font-size="8px" opacity="1" style="font-family:'Dejavu Sans';" x="1128" y="384">4th Floor South West Stairs</text></g><g id="1282_room"><polygon fill="rgb(119,151,159)" points="544,192 528,280 536,280 528,328 1072,400 1088,264" stroke="black" stroke-width="1" /><text opacity="0" style="font-family:'Dejavu Sans';font-size:14;" x="0" y="0">Plant Room 1 4th Floor</text><text opacity="0" style="font-family:'Dejavu Sans';font-size:14;" x="0" y="16">Plant Room 1 4th Floor Hardware</text><text opacity="0" style="font-family:'Dejavu Sans';font-size=14:" x="0" y="32" /><text opacity="0" style="font-family:'Dejavu Sans';font-size=14:" x="0" y="48">Plant Room 1 4th Floor People</text><text opacity="0" style="font-family:'Dejavu Sans';font-size:14;" x="0" y="64" /><text fill="rgb(178,76,63)" font-size="8px" opacity="1" style="font-family:'Dejavu Sans';" x="800" y="296">Plant Room 1 4th Floor</text></g><g id="1283_room"><polygon fill="rgb(119,151,159)" points="296,-32 280,208 304,208 304,192 320,192 320,208 376,216 384,-8 368,-8 368,-32" stroke="black" stroke-width="1" /><text opacity="0" style="font-family:'Dejavu Sans';font-size:14;" x="0" y="0">Plant Room 3 4th Floor</text><text opacity="0" style="font-family:'Dejavu Sans';font-size:14;" x="0" y="16">Plant Room 3 4th Floor Hardware</text><text opacity="0" style="font-family:'Dejavu Sans';font-size=14:" x="0" y="32" /><text opacity="0" style="font-family:'Dejavu Sans';font-size=14:" x="0" y="48">Plant Room 3 4th Floor People</text><text opacity="0" style="font-family:'Dejavu Sans';font-size:14;" x="0" y="64" /><text fill="rgb(178,76,63)" font-size="8px" opacity="1" style="font-family:'Dejavu Sans';" x="324" y="92">Plant Room 3 4th Floor</text></g><g id="1284_room"><polygon fill="rgb(119,151,159)" points="328,216 328,248 344,248 344,216" stroke="black" stroke-width="1" /><text opacity="0" style="font-family:'Dejavu Sans';font-size:14;" x="0" y="0">4th Floor Duct A</text><text opacity="0" style="font-family:'Dejavu Sans';font-size:14;" x="0" y="16">4th Floor Duct A Hardware</text><text opacity="0" style="font-family:'Dejavu Sans';font-size=14:" x="0" y="32" /><text opacity="0" style="font-family:'Dejavu Sans';font-size=14:" x="0" y="48">4th Floor Duct A People</text><text opacity="0" style="font-family:'Dejavu Sans';font-size:14;" x="0" y="64" /><text fill="rgb(178,76,63)" font-size="8px" opacity="1" style="font-family:'Dejavu Sans';" x="328" y="232">4th Floor Duct A</text></g><g id="1285_room"><polygon fill="rgb(119,151,159)" points="272,224 296,312 320,312 320,216 272,216" stroke="black" stroke-width="1" /><text opacity="0" style="font-family:'Dejavu Sans';font-size:14;" x="0" y="0">Plant Room 4 4th Floor</text><text opacity="0" style="font-family:'Dejavu Sans';font-size:14;" x="0" y="16">Plant Room 4 4th Floor Hardware</text><text opacity="0" style="font-family:'Dejavu Sans';font-size=14:" x="0" y="32" /><text opacity="0" style="font-family:'Dejavu Sans';font-size=14:" x="0" y="48">Plant Room 4 4th Floor People</text><text opacity="0" style="font-family:'Dejavu Sans';font-size:14;" x="0" y="64" /><text fill="rgb(178,76,63)" font-size="8px" opacity="1" style="font-family:'Dejavu Sans';" x="288" y="264">Plant Room 4 4th Floor</text></g><g id="1286_room"><polygon fill="rgb(119,151,159)" points="272,224 296,312 320,312 320,216 272,216" stroke="black" stroke-width="1" /><text opacity="0" style="font-family:'Dejavu Sans';font-size:14;" x="0" y="0">Boiler Room 4th Floor</text><text opacity="0" style="font-family:'Dejavu Sans';font-size:14;" x="0" y="16">Boiler Room 4th Floor Hardware</text><text opacity="0" style="font-family:'Dejavu Sans';font-size=14:" x="0" y="32" /><text opacity="0" style="font-family:'Dejavu Sans';font-size=14:" x="0" y="48">Boiler Room 4th Floor People</text><text opacity="0" style="font-family:'Dejavu Sans';font-size:14;" x="0" y="64" /><text fill="rgb(178,76,63)" font-size="8px" opacity="1" style="font-family:'Dejavu Sans';" x="288" y="264">Boiler Room 4th Floor</text></g><g id="1287_room"><polygon fill="rgb(119,151,159)" points="64,240 72,336 120,328 112,240" stroke="black" stroke-width="1" /><text opacity="0" style="font-family:'Dejavu Sans';font-size:14;" x="0" y="0">4th Floor Open Chiller Area</text><text opacity="0" style="font-family:'Dejavu Sans';font-size:14;" x="0" y="16">4th Floor Open Chiller Area Hardware</text><text opacity="0" style="font-family:'Dejavu Sans';font-size=14:" x="0" y="32" /><text opacity="0" style="font-family:'Dejavu Sans';font-size=14:" x="0" y="48">4th Floor Open Chiller Area People</text><text opacity="0" style="font-family:'Dejavu Sans';font-size:14;" x="0" y="64" /><text fill="rgb(178,76,63)" font-size="8px" opacity="1" style="font-family:'Dejavu Sans';" x="84" y="288">4th Floor Open Chiller Area</text></g><g id="1288_room"><polygon fill="rgb(119,151,159)" points="40,240 40,272 24,272 24,304 48,304 48,336 64,344 56,240" stroke="black" stroke-width="1" /><text opacity="0" style="font-family:'Dejavu Sans';font-size:14;" x="0" y="0">4th Floor Ower Plant Roof</text><text opacity="0" style="font-family:'Dejavu Sans';font-size:14;" x="0" y="16">4th Floor Ower Plant Roof Hardware</text><text opacity="0" style="font-family:'Dejavu Sans';font-size=14:" x="0" y="32" /><text opacity="0" style="font-family:'Dejavu Sans';font-size=14:" x="0" y="48">4th Floor Ower Plant Roof People</text><text opacity="0" style="font-family:'Dejavu Sans';font-size:14;" x="0" y="64" /><text fill="rgb(178,76,63)" font-size="8px" opacity="1" style="font-family:'Dejavu Sans';" x="36" y="292">4th Floor Ower Plant Roof</text></g><g id="1289_room"><polygon fill="rgb(119,151,159)" points="16,240 24,272 40,272 40,240" stroke="black" stroke-width="1" /><text opacity="0" style="font-family:'Dejavu Sans';font-size:14;" x="0" y="0">4th Floor South Flue</text><text opacity="0" style="font-family:'Dejavu Sans';font-size:14;" x="0" y="16">4th Floor South Flue Hardware</text><text opacity="0" style="font-family:'Dejavu Sans';font-size=14:" x="0" y="32" /><text opacity="0" style="font-family:'Dejavu Sans';font-size=14:" x="0" y="48">4th Floor South Flue People</text><text opacity="0" style="font-family:'Dejavu Sans';font-size:14;" x="0" y="64" /><text fill="rgb(178,76,63)" font-size="8px" opacity="1" style="font-family:'Dejavu Sans';" x="20" y="256">4th Floor South Flue</text></g><g id="1290_room"><polygon fill="rgb(119,151,159)" points="24,304 24,336 48,336 48,304" stroke="black" stroke-width="1" /><text opacity="0" style="font-family:'Dejavu Sans';font-size:14;" x="0" y="0">4th Floor North Flue</text><text opacity="0" style="font-family:'Dejavu Sans';font-size:14;" x="0" y="16">4th Floor North Flue Hardware</text><text opacity="0" style="font-family:'Dejavu Sans';font-size=14:" x="0" y="32" /><text opacity="0" style="font-family:'Dejavu Sans';font-size=14:" x="0" y="48">4th Floor North Flue People</text><text opacity="0" style="font-family:'Dejavu Sans';font-size:14;" x="0" y="64" /><text fill="rgb(178,76,63)" font-size="8px" opacity="1" style="font-family:'Dejavu Sans';" x="28" y="320">4th Floor North Flue</text></g></g></svg>