<?xml version="1.0" encoding="utf-8" ?>
<svg baseProfile="full" height="1300px" version="1.1" width="1500px" xmlns="http://www.w3.org/2000/svg" xmlns:ev="http://www.w3.org/2001/xml-events" xmlns:xlink="http://www.w3.org/1999/xlink"><defs /><polyline fill="white" points="272,-40 264,216 8,240 16,344 312,320 416,320 464,328 448,768 1224,768 1224,560 1256,288 536,192 536,208 480,200 472,224 416,0 432,0 432,-40 272,-40" stroke="black" stroke-width="3.5" /><g id="floor_n"><g id="408_room"><polygon fill="rgb(119,151,159)" points="16,336 16,368 56,368 56,336" stroke="black" stroke-width="1" /><text opacity="0" style="font-family:'Dejavu Sans';font-size:14;" x="0" y="0">SB31</text><text opacity="0" style="font-family:'Dejavu Sans';font-size:14;" x="0" y="16">SB31 Hardware</text><text opacity="0" style="font-family:'Dejavu Sans';font-size=14:" x="0" y="32" /><text opacity="0" style="font-family:'Dejavu Sans';font-size=14:" x="0" y="48">SB31 People</text><text opacity="0" style="font-family:'Dejavu Sans';font-size:14;" x="0" y="64" /><text fill="rgb(178,76,63)" font-size="8px" opacity="1" style="font-family:'Dejavu Sans';" x="28" y="352">SB31</text></g><g id="409_room"><polygon fill="rgb(119,151,159)" points="16,304 16,336 56,336 56,304" stroke="black" stroke-width="1" /><text opacity="0" style="font-family:'Dejavu Sans';font-size:14;" x="0" y="0">SB32</text><text opacity="0" style="font-family:'Dejavu Sans';font-size:14;" x="0" y="16">SB32 Hardware</text><text opacity="0" style="font-family:'Dejavu Sans';font-size=14:" x="0" y="32" /><text opacity="0" style="font-family:'Dejavu Sans';font-size=14:" x="0" y="48">SB32 People</text><text opacity="0" style="font-family:'Dejavu Sans';font-size:14;" x="0" y="64" /><text fill="rgb(178,76,63)" font-size="8px" opacity="1" style="font-family:'Dejavu Sans';" x="28" y="320">SB32</text></g><g id="618_room"><polygon fill="rgb(128,128,128)" points="8,296 8,304 88,296 88,288" stroke="black" stroke-width="1" /><text opacity="0" style="font-family:'Dejavu Sans';font-size:14;" x="0" y="0">SB140</text><text opacity="0" style="font-family:'Dejavu Sans';font-size:14;" x="0" y="16">SB140 Hardware</text><text opacity="0" style="font-family:'Dejavu Sans';font-size=14:" x="0" y="32" /><text opacity="0" style="font-family:'Dejavu Sans';font-size=14:" x="0" y="48">SB140 People</text><text opacity="0" style="font-family:'Dejavu Sans';font-size:14;" x="0" y="64" /><text fill="rgb(178,76,63)" font-size="8px" opacity="1" style="font-family:'Dejavu Sans';" x="40" y="296">SB140</text></g><g id="1319_room"><polygon fill="rgb(128,128,128)" points="8,248 8,296 40,296 40,248" stroke="black" stroke-width="1" /><text opacity="0" style="font-family:'Dejavu Sans';font-size:14;" x="0" y="0">Sub Basement Far East Stairs</text><text opacity="0" style="font-family:'Dejavu Sans';font-size:14;" x="0" y="16">Sub Basement Far East Stairs Hardware</text><text opacity="0" style="font-family:'Dejavu Sans';font-size=14:" x="0" y="32" /><text opacity="0" style="font-family:'Dejavu Sans';font-size=14:" x="0" y="48">Sub Basement Far East Stairs People</text><text opacity="0" style="font-family:'Dejavu Sans';font-size:14;" x="0" y="64" /><text fill="rgb(178,76,63)" font-size="8px" opacity="1" style="font-family:'Dejavu Sans';" x="16" y="272">Sub Basement Far East Stairs</text></g><g id="1320_room"><polygon fill="rgb(119,151,159)" points="40,248 40,296 56,296 56,248" stroke="black" stroke-width="1" /><text opacity="0" style="font-family:'Dejavu Sans';font-size:14;" x="0" y="0">Sub Basement Duct O</text><text opacity="0" style="font-family:'Dejavu Sans';font-size:14;" x="0" y="16">Sub Basement Duct O Hardware</text><text opacity="0" style="font-family:'Dejavu Sans';font-size=14:" x="0" y="32" /><text opacity="0" style="font-family:'Dejavu Sans';font-size=14:" x="0" y="48">Sub Basement Duct O People</text><text opacity="0" style="font-family:'Dejavu Sans';font-size:14;" x="0" y="64" /><text fill="rgb(178,76,63)" font-size="8px" opacity="1" style="font-family:'Dejavu Sans';" x="40" y="272">Sub Basement Duct O</text></g><g id="624_room"><polygon fill="rgb(119,151,159)" points="8,216 8,248 48,248 48,216" stroke="black" stroke-width="1" /><text opacity="0" style="font-family:'Dejavu Sans';font-size:14;" x="0" y="0">SB170</text><text opacity="0" style="font-family:'Dejavu Sans';font-size:14;" x="0" y="16">SB170 Hardware</text><text opacity="0" style="font-family:'Dejavu Sans';font-size=14:" x="0" y="32" /><text opacity="0" style="font-family:'Dejavu Sans';font-size=14:" x="0" y="48">SB170 People</text><text opacity="0" style="font-family:'Dejavu Sans';font-size:14;" x="0" y="64" /><text fill="rgb(178,76,63)" font-size="8px" opacity="1" style="font-family:'Dejavu Sans';" x="20" y="232">SB170</text></g><g id="407_room"><polygon fill="rgb(119,151,159)" points="56,296 56,368 136,360 128,288" stroke="black" stroke-width="1" /><text opacity="0" style="font-family:'Dejavu Sans';font-size:14;" x="0" y="0">SB30</text><text opacity="0" style="font-family:'Dejavu Sans';font-size:14;" x="0" y="16">SB30 Hardware</text><text opacity="0" style="font-family:'Dejavu Sans';font-size=14:" x="0" y="32">blowers2, blowers3</text><text opacity="0" style="font-family:'Dejavu Sans';font-size=14:" x="0" y="48">SB30 People</text><text opacity="0" style="font-family:'Dejavu Sans';font-size:14;" x="0" y="64">Keith Parmenter</text><text fill="rgb(178,76,63)" font-size="8px" opacity="1" style="font-family:'Dejavu Sans';" x="88" y="328">SB30</text></g><g id="405_room"><polygon fill="rgb(119,151,159)" points="128,288 136,360 208,352 208,312 184,312 184,288" stroke="black" stroke-width="1" /><text opacity="0" style="font-family:'Dejavu Sans';font-size:14;" x="0" y="0">SB20</text><text opacity="0" style="font-family:'Dejavu Sans';font-size:14;" x="0" y="16">SB20 Hardware</text><text opacity="0" style="font-family:'Dejavu Sans';font-size=14:" x="0" y="32">electrical2, electrical1</text><text opacity="0" style="font-family:'Dejavu Sans';font-size=14:" x="0" y="48">SB20 People</text><text opacity="0" style="font-family:'Dejavu Sans';font-size:14;" x="0" y="64">Alessandro Crosara</text><text fill="rgb(178,76,63)" font-size="8px" opacity="1" style="font-family:'Dejavu Sans';" x="160" y="324">SB20</text></g><g id="406_room"><polygon fill="rgb(119,151,159)" points="184,288 184,312 208,312 200,280" stroke="black" stroke-width="1" /><text opacity="0" style="font-family:'Dejavu Sans';font-size:14;" x="0" y="0">SB21</text><text opacity="0" style="font-family:'Dejavu Sans';font-size:14;" x="0" y="16">SB21 Hardware</text><text opacity="0" style="font-family:'Dejavu Sans';font-size=14:" x="0" y="32" /><text opacity="0" style="font-family:'Dejavu Sans';font-size=14:" x="0" y="48">SB21 People</text><text opacity="0" style="font-family:'Dejavu Sans';font-size:14;" x="0" y="64" /><text fill="rgb(178,76,63)" font-size="8px" opacity="1" style="font-family:'Dejavu Sans';" x="188" y="296">SB21</text></g><g id="403_room"><polygon fill="rgb(119,151,159)" points="232,272 232,296 256,296 256,272" stroke="black" stroke-width="1" /><text opacity="0" style="font-family:'Dejavu Sans';font-size:14;" x="0" y="0">SB11</text><text opacity="0" style="font-family:'Dejavu Sans';font-size:14;" x="0" y="16">SB11 Hardware</text><text opacity="0" style="font-family:'Dejavu Sans';font-size=14:" x="0" y="32">chief09</text><text opacity="0" style="font-family:'Dejavu Sans';font-size=14:" x="0" y="48">SB11 People</text><text opacity="0" style="font-family:'Dejavu Sans';font-size:14;" x="0" y="64" /><text fill="rgb(178,76,63)" font-size="8px" opacity="1" style="font-family:'Dejavu Sans';" x="236" y="284">SB11</text></g><g id="404_room"><polygon fill="rgb(119,151,159)" points="256,272 256,296 272,296 272,272" stroke="black" stroke-width="1" /><text opacity="0" style="font-family:'Dejavu Sans';font-size:14;" x="0" y="0">SB12</text><text opacity="0" style="font-family:'Dejavu Sans';font-size:14;" x="0" y="16">SB12 Hardware</text><text opacity="0" style="font-family:'Dejavu Sans';font-size=14:" x="0" y="32">lpkf</text><text opacity="0" style="font-family:'Dejavu Sans';font-size=14:" x="0" y="48">SB12 People</text><text opacity="0" style="font-family:'Dejavu Sans';font-size:14;" x="0" y="64" /><text fill="rgb(178,76,63)" font-size="8px" opacity="1" style="font-family:'Dejavu Sans';" x="256" y="284">SB12</text></g><g id="402_room"><polygon fill="rgb(119,151,159)" points="200,280 208,352 304,344 304,248 272,248 272,296 232,296 232,272" stroke="black" stroke-width="1" /><text opacity="0" style="font-family:'Dejavu Sans';font-size:14;" x="0" y="0">SB10</text><text opacity="0" style="font-family:'Dejavu Sans';font-size:14;" x="0" y="16">SB10 Hardware</text><text opacity="0" style="font-family:'Dejavu Sans';font-size=14:" x="0" y="32">arrhenius2016, electron7, fido4000, electron1, electron5, electron8, electron4</text><text opacity="0" style="font-family:'Dejavu Sans';font-size=14:" x="0" y="48">SB10 People</text><text opacity="0" style="font-family:'Dejavu Sans';font-size:14;" x="0" y="64">Wayne Bailey, Manuel Dieter Hans Wentscher</text><text fill="rgb(178,76,63)" font-size="8px" opacity="1" style="font-family:'Dejavu Sans';" x="244" y="300">SB10</text></g><g id="617_room"><polygon fill="rgb(119,151,159)" points="240,200 240,248 304,248 304,200" stroke="black" stroke-width="1" /><text opacity="0" style="font-family:'Dejavu Sans';font-size:14;" x="0" y="0">SB130</text><text opacity="0" style="font-family:'Dejavu Sans';font-size:14;" x="0" y="16">SB130 Hardware</text><text opacity="0" style="font-family:'Dejavu Sans';font-size=14:" x="0" y="32" /><text opacity="0" style="font-family:'Dejavu Sans';font-size=14:" x="0" y="48">SB130 People</text><text opacity="0" style="font-family:'Dejavu Sans';font-size:14;" x="0" y="64" /><text fill="rgb(178,76,63)" font-size="8px" opacity="1" style="font-family:'Dejavu Sans';" x="264" y="224">SB130</text></g><g id="1321_room"><polygon fill="rgb(119,151,159)" points="304,200 304,248 328,248 328,200" stroke="black" stroke-width="1" /><text opacity="0" style="font-family:'Dejavu Sans';font-size:14;" x="0" y="0">Sub Basement Duct A</text><text opacity="0" style="font-family:'Dejavu Sans';font-size:14;" x="0" y="16">Sub Basement Duct A Hardware</text><text opacity="0" style="font-family:'Dejavu Sans';font-size=14:" x="0" y="32" /><text opacity="0" style="font-family:'Dejavu Sans';font-size=14:" x="0" y="48">Sub Basement Duct A People</text><text opacity="0" style="font-family:'Dejavu Sans';font-size:14;" x="0" y="64" /><text fill="rgb(178,76,63)" font-size="8px" opacity="1" style="font-family:'Dejavu Sans';" x="308" y="224">Sub Basement Duct A</text></g><g id="1322_room"><polygon fill="rgb(128,128,128)" points="224,200 232,272 272,272 272,248 248,248 248,200" stroke="black" stroke-width="1" /><text opacity="0" style="font-family:'Dejavu Sans';font-size:14;" x="0" y="0">Sub Basement Stairs</text><text opacity="0" style="font-family:'Dejavu Sans';font-size:14;" x="0" y="16">Sub Basement Stairs Hardware</text><text opacity="0" style="font-family:'Dejavu Sans';font-size=14:" x="0" y="32" /><text opacity="0" style="font-family:'Dejavu Sans';font-size=14:" x="0" y="48">Sub Basement Stairs People</text><text opacity="0" style="font-family:'Dejavu Sans';font-size:14;" x="0" y="64" /><text fill="rgb(178,76,63)" font-size="8px" opacity="1" style="font-family:'Dejavu Sans';" x="240" y="236">Sub Basement Stairs</text></g><g id="623_room"><polygon fill="rgb(119,151,159)" points="240,184 240,200 248,200 248,184" stroke="black" stroke-width="1" /><text opacity="0" style="font-family:'Dejavu Sans';font-size:14;" x="0" y="0">SB120</text><text opacity="0" style="font-family:'Dejavu Sans';font-size:14;" x="0" y="16">SB120 Hardware</text><text opacity="0" style="font-family:'Dejavu Sans';font-size=14:" x="0" y="32" /><text opacity="0" style="font-family:'Dejavu Sans';font-size=14:" x="0" y="48">SB120 People</text><text opacity="0" style="font-family:'Dejavu Sans';font-size:14;" x="0" y="64" /><text fill="rgb(178,76,63)" font-size="8px" opacity="1" style="font-family:'Dejavu Sans';" x="236" y="192">SB120</text></g><g id="619_room"><polygon fill="rgb(119,151,159)" points="240,168 240,184 248,184 248,168" stroke="black" stroke-width="1" /><text opacity="0" style="font-family:'Dejavu Sans';font-size:14;" x="0" y="0">SB150</text><text opacity="0" style="font-family:'Dejavu Sans';font-size:14;" x="0" y="16">SB150 Hardware</text><text opacity="0" style="font-family:'Dejavu Sans';font-size=14:" x="0" y="32" /><text opacity="0" style="font-family:'Dejavu Sans';font-size=14:" x="0" y="48">SB150 People</text><text opacity="0" style="font-family:'Dejavu Sans';font-size:14;" x="0" y="64" /><text fill="rgb(178,76,63)" font-size="8px" opacity="1" style="font-family:'Dejavu Sans';" x="236" y="176">SB150</text></g><g id="615_room"><polygon fill="rgb(119,151,159)" points="224,128 224,168 248,168 248,128" stroke="black" stroke-width="1" /><text opacity="0" style="font-family:'Dejavu Sans';font-size:14;" x="0" y="0">SB110</text><text opacity="0" style="font-family:'Dejavu Sans';font-size:14;" x="0" y="16">SB110 Hardware</text><text opacity="0" style="font-family:'Dejavu Sans';font-size=14:" x="0" y="32" /><text opacity="0" style="font-family:'Dejavu Sans';font-size=14:" x="0" y="48">SB110 People</text><text opacity="0" style="font-family:'Dejavu Sans';font-size:14;" x="0" y="64" /><text fill="rgb(178,76,63)" font-size="8px" opacity="1" style="font-family:'Dejavu Sans';" x="228" y="148">SB110</text></g><g id="614_room"><polygon fill="rgb(128,128,128)" points="200,168 200,280 232,280 232,272 224,200 240,200 240,168" stroke="black" stroke-width="1" /><text opacity="0" style="font-family:'Dejavu Sans';font-size:14;" x="0" y="0">SB100</text><text opacity="0" style="font-family:'Dejavu Sans';font-size:14;" x="0" y="16">SB100 Hardware</text><text opacity="0" style="font-family:'Dejavu Sans';font-size=14:" x="0" y="32">chief09</text><text opacity="0" style="font-family:'Dejavu Sans';font-size=14:" x="0" y="48">SB100 People</text><text opacity="0" style="font-family:'Dejavu Sans';font-size:14;" x="0" y="64" /><text fill="rgb(178,76,63)" font-size="8px" opacity="1" style="font-family:'Dejavu Sans';" x="212" y="224">SB100</text></g><g id="411_room"><polygon fill="rgb(119,151,159)" points="96,144 192,136 200,224 152,232 144,168 96,176" stroke="black" stroke-width="1" /><text opacity="0" style="font-family:'Dejavu Sans';font-size:14;" x="0" y="0">SB50</text><text opacity="0" style="font-family:'Dejavu Sans';font-size:14;" x="0" y="16">SB50 Hardware</text><text opacity="0" style="font-family:'Dejavu Sans';font-size=14:" x="0" y="32" /><text opacity="0" style="font-family:'Dejavu Sans';font-size=14:" x="0" y="48">SB50 People</text><text opacity="0" style="font-family:'Dejavu Sans';font-size:14;" x="0" y="64" /><text fill="rgb(178,76,63)" font-size="8px" opacity="1" style="font-family:'Dejavu Sans';" x="140" y="184">SB50</text></g><g id="412_room"><polygon fill="rgb(119,151,159)" points="96,176 96,216 152,216 144,168" stroke="black" stroke-width="1" /><text opacity="0" style="font-family:'Dejavu Sans';font-size:14;" x="0" y="0">SB51</text><text opacity="0" style="font-family:'Dejavu Sans';font-size:14;" x="0" y="16">SB51 Hardware</text><text opacity="0" style="font-family:'Dejavu Sans';font-size=14:" x="0" y="32" /><text opacity="0" style="font-family:'Dejavu Sans';font-size=14:" x="0" y="48">SB51 People</text><text opacity="0" style="font-family:'Dejavu Sans';font-size:14;" x="0" y="64" /><text fill="rgb(178,76,63)" font-size="8px" opacity="1" style="font-family:'Dejavu Sans';" x="116" y="192">SB51</text></g><g id="413_room"><polygon fill="rgb(119,151,159)" points="152,232 152,264 200,264 200,232" stroke="black" stroke-width="1" /><text opacity="0" style="font-family:'Dejavu Sans';font-size:14;" x="0" y="0">SB60</text><text opacity="0" style="font-family:'Dejavu Sans';font-size:14;" x="0" y="16">SB60 Hardware</text><text opacity="0" style="font-family:'Dejavu Sans';font-size=14:" x="0" y="32" /><text opacity="0" style="font-family:'Dejavu Sans';font-size=14:" x="0" y="48">SB60 People</text><text opacity="0" style="font-family:'Dejavu Sans';font-size:14;" x="0" y="64" /><text fill="rgb(178,76,63)" font-size="8px" opacity="1" style="font-family:'Dejavu Sans';" x="168" y="248">SB60</text></g><g id="414_room"><polygon fill="rgb(119,151,159)" points="96,216 104,256 120,256 120,264 152,264 144,216" stroke="black" stroke-width="1" /><text opacity="0" style="font-family:'Dejavu Sans';font-size:14;" x="0" y="0">SB70</text><text opacity="0" style="font-family:'Dejavu Sans';font-size:14;" x="0" y="16">SB70 Hardware</text><text opacity="0" style="font-family:'Dejavu Sans';font-size=14:" x="0" y="32" /><text opacity="0" style="font-family:'Dejavu Sans';font-size=14:" x="0" y="48">SB70 People</text><text opacity="0" style="font-family:'Dejavu Sans';font-size:14;" x="0" y="64" /><text fill="rgb(178,76,63)" font-size="8px" opacity="1" style="font-family:'Dejavu Sans';" x="116" y="240">SB70</text></g><g id="620_room"><polygon fill="rgb(119,151,159)" points="104,256 104,264 120,264 120,256" stroke="black" stroke-width="1" /><text opacity="0" style="font-family:'Dejavu Sans';font-size:14;" x="0" y="0">SB160</text><text opacity="0" style="font-family:'Dejavu Sans';font-size:14;" x="0" y="16">SB160 Hardware</text><text opacity="0" style="font-family:'Dejavu Sans';font-size=14:" x="0" y="32" /><text opacity="0" style="font-family:'Dejavu Sans';font-size=14:" x="0" y="48">SB160 People</text><text opacity="0" style="font-family:'Dejavu Sans';font-size:14;" x="0" y="64" /><text fill="rgb(178,76,63)" font-size="8px" opacity="1" style="font-family:'Dejavu Sans';" x="104" y="260">SB160</text></g><g id="613_room"><polygon fill="rgb(128,128,128)" points="88,272 88,296 200,280 200,264" stroke="black" stroke-width="1" /><text opacity="0" style="font-family:'Dejavu Sans';font-size:14;" x="0" y="0">SB90</text><text opacity="0" style="font-family:'Dejavu Sans';font-size:14;" x="0" y="16">SB90 Hardware</text><text opacity="0" style="font-family:'Dejavu Sans';font-size=14:" x="0" y="32" /><text opacity="0" style="font-family:'Dejavu Sans';font-size=14:" x="0" y="48">SB90 People</text><text opacity="0" style="font-family:'Dejavu Sans';font-size:14;" x="0" y="64" /><text fill="rgb(178,76,63)" font-size="8px" opacity="1" style="font-family:'Dejavu Sans';" x="136" y="280">SB90</text></g><g id="410_room"><polygon fill="rgb(119,151,159)" points="48,144 56,280 88,288 88,272 104,272 96,144" stroke="black" stroke-width="1" /><text opacity="0" style="font-family:'Dejavu Sans';font-size:14;" x="0" y="0">SB40</text><text opacity="0" style="font-family:'Dejavu Sans';font-size:14;" x="0" y="16">SB40 Hardware</text><text opacity="0" style="font-family:'Dejavu Sans';font-size=14:" x="0" y="32">spw19 autoreg for 1170personal, chief03, chief06, chief04, sandworm, sura, chief08, elecmon, russlaptop, sodabread</text><text opacity="0" style="font-family:'Dejavu Sans';font-size=14:" x="0" y="48">SB40 People</text><text opacity="0" style="font-family:'Dejavu Sans';font-size:14;" x="0" y="64">Russel Oates, Andrew Milner, Robert Baron, John Palmer, Richard Preston, Harry Rogerson</text><text fill="rgb(178,76,63)" font-size="8px" opacity="1" style="font-family:'Dejavu Sans';" x="68" y="216">SB40</text></g></g></svg>