<?xml version="1.0" encoding="utf-8" ?>
<svg baseProfile="full" height="1300px" version="1.1" width="1500px" xmlns="http://www.w3.org/2000/svg" xmlns:ev="http://www.w3.org/2001/xml-events" xmlns:xlink="http://www.w3.org/1999/xlink"><defs /><polyline fill="white" points="272,-40 264,216 8,240 16,344 312,320 416,320 464,328 448,768 1224,768 1224,560 1256,288 536,192 536,208 480,200 472,224 416,0 432,0 432,-40 272,-40" stroke="black" stroke-width="3.5" /><g id="floor_n"><g id="233_room"><polygon fill="rgb(119,151,159)" points="1088,304 1088,328 1120,328 1120,304" stroke="black" stroke-width="1" /><text opacity="0" style="font-family:'Dejavu Sans';font-size:14;" x="0" y="0">5.01</text><text opacity="0" style="font-family:'Dejavu Sans';font-size:14;" x="0" y="16">5.01 Hardware</text><text opacity="0" style="font-family:'Dejavu Sans';font-size=14:" x="0" y="32">haight, wanaka, banjo23</text><text opacity="0" style="font-family:'Dejavu Sans';font-size=14:" x="0" y="48">5.01 People</text><text opacity="0" style="font-family:'Dejavu Sans';font-size:14;" x="0" y="64" /><text fill="rgb(178,76,63)" font-size="8px" opacity="1" style="font-family:'Dejavu Sans';" x="1096" y="316">5.01</text></g><g id="635_room"><polygon fill="rgb(119,151,159)" points="1120,304 1152,312 1152,336 1136,336 1136,328 1128,328 1128,336 1120,336" stroke="black" stroke-width="1" /><text opacity="0" style="font-family:'Dejavu Sans';font-size:14;" x="0" y="0">5.02</text><text opacity="0" style="font-family:'Dejavu Sans';font-size:14;" x="0" y="16">5.02 Hardware</text><text opacity="0" style="font-family:'Dejavu Sans';font-size=14:" x="0" y="32" /><text opacity="0" style="font-family:'Dejavu Sans';font-size=14:" x="0" y="48">5.02 People</text><text opacity="0" style="font-family:'Dejavu Sans';font-size:14;" x="0" y="64" /><text fill="rgb(178,76,63)" font-size="8px" opacity="1" style="font-family:'Dejavu Sans';" x="1128" y="320">5.02</text></g><g id="636_room"><polygon fill="rgb(119,151,159)" points="1088,328 1080,400 1104,400 1104,464 1168,464 1184,344" stroke="black" stroke-width="1" /><text opacity="0" style="font-family:'Dejavu Sans';font-size:14;" x="0" y="0">5.03</text><text opacity="0" style="font-family:'Dejavu Sans';font-size:14;" x="0" y="16">5.03 Hardware</text><text opacity="0" style="font-family:'Dejavu Sans';font-size=14:" x="0" y="32" /><text opacity="0" style="font-family:'Dejavu Sans';font-size=14:" x="0" y="48">5.03 People</text><text opacity="0" style="font-family:'Dejavu Sans';font-size:14;" x="0" y="64" /><text fill="rgb(178,76,63)" font-size="8px" opacity="1" style="font-family:'Dejavu Sans';" x="1124" y="396">5.03</text></g><g id="637_room"><polygon fill="rgb(119,151,159)" points="1096,600 1096,720 1120,720 1120,688 1152,688 1152,720 1160,720 1160,600" stroke="black" stroke-width="1" /><text opacity="0" style="font-family:'Dejavu Sans';font-size:14;" x="0" y="0">5.04</text><text opacity="0" style="font-family:'Dejavu Sans';font-size:14;" x="0" y="16">5.04 Hardware</text><text opacity="0" style="font-family:'Dejavu Sans';font-size=14:" x="0" y="32" /><text opacity="0" style="font-family:'Dejavu Sans';font-size=14:" x="0" y="48">5.04 People</text><text opacity="0" style="font-family:'Dejavu Sans';font-size:14;" x="0" y="64" /><text fill="rgb(178,76,63)" font-size="8px" opacity="1" style="font-family:'Dejavu Sans';" x="1120" y="660">5.04</text></g></g></svg>