<?xml version="1.0" encoding="utf-8" ?>
<svg baseProfile="full" height="1300px" version="1.1" width="1500px" xmlns="http://www.w3.org/2000/svg" xmlns:ev="http://www.w3.org/2001/xml-events" xmlns:xlink="http://www.w3.org/1999/xlink"><defs /><polyline fill="white" points="0,0 0,1 1,1 1,0" stroke="black" stroke-width="3.5" /><g id="floor_n"><g id="1371_room"><polygon fill="rgb(119,151,159)" points="208,704 208,784 352,784 352,704" stroke="black" stroke-width="1" /><text opacity="0" style="font-family:'Dejavu Sans';font-size:14;" x="0" y="0">CMI-Ground-Toilets</text><text opacity="0" style="font-family:'Dejavu Sans';font-size:14;" x="0" y="16">CMI-Ground-Toilets Hardware</text><text opacity="0" style="font-family:'Dejavu Sans';font-size=14:" x="0" y="32" /><text opacity="0" style="font-family:'Dejavu Sans';font-size=14:" x="0" y="48">CMI-Ground-Toilets People</text><text opacity="0" style="font-family:'Dejavu Sans';font-size:14;" x="0" y="64" /><text fill="rgb(178,76,63)" font-size="8px" opacity="1" style="font-family:'Dejavu Sans';" x="272" y="744">CMI-Ground-Toilets</text></g><g id="1372_room"><polygon fill="rgb(128,128,128)" points="352,704 352,784 528,784 528,704" stroke="black" stroke-width="1" /><text opacity="0" style="font-family:'Dejavu Sans';font-size:14;" x="0" y="0">CMI-Ground-Stairs</text><text opacity="0" style="font-family:'Dejavu Sans';font-size:14;" x="0" y="16">CMI-Ground-Stairs Hardware</text><text opacity="0" style="font-family:'Dejavu Sans';font-size=14:" x="0" y="32" /><text opacity="0" style="font-family:'Dejavu Sans';font-size=14:" x="0" y="48">CMI-Ground-Stairs People</text><text opacity="0" style="font-family:'Dejavu Sans';font-size:14;" x="0" y="64" /><text fill="rgb(178,76,63)" font-size="8px" opacity="1" style="font-family:'Dejavu Sans';" x="432" y="744">CMI-Ground-Stairs</text></g><g id="1373_room"><polygon fill="rgb(119,151,159)" points="560,704 560,784 608,784 608,704" stroke="black" stroke-width="1" /><text opacity="0" style="font-family:'Dejavu Sans';font-size:14;" x="0" y="0">CMI-Ground-Lift-Landing</text><text opacity="0" style="font-family:'Dejavu Sans';font-size:14;" x="0" y="16">CMI-Ground-Lift-Landing Hardware</text><text opacity="0" style="font-family:'Dejavu Sans';font-size=14:" x="0" y="32" /><text opacity="0" style="font-family:'Dejavu Sans';font-size=14:" x="0" y="48">CMI-Ground-Lift-Landing People</text><text opacity="0" style="font-family:'Dejavu Sans';font-size:14;" x="0" y="64" /><text fill="rgb(178,76,63)" font-size="8px" opacity="1" style="font-family:'Dejavu Sans';" x="576" y="744">CMI-Ground-Lift-Landing</text></g><g id="454_room"><polygon fill="rgb(119,151,159)" points="592,640 592,704 656,704 656,640" stroke="black" stroke-width="1" /><text opacity="0" style="font-family:'Dejavu Sans';font-size:14;" x="0" y="0">UG05</text><text opacity="0" style="font-family:'Dejavu Sans';font-size:14;" x="0" y="16">UG05 Hardware</text><text opacity="0" style="font-family:'Dejavu Sans';font-size=14:" x="0" y="32">foxglove, foxbat, crucible, nesoi, clematis, gemini, daffodil</text><text opacity="0" style="font-family:'Dejavu Sans';font-size=14:" x="0" y="48">UG05 People</text><text opacity="0" style="font-family:'Dejavu Sans';font-size:14;" x="0" y="64">Susan Margaret Begg</text><text fill="rgb(178,76,63)" font-size="8px" opacity="1" style="font-family:'Dejavu Sans';" x="616" y="672">UG05</text></g><g id="455_room"><polygon fill="rgb(119,151,159)" points="656,608 656,704 736,704 736,608" stroke="black" stroke-width="1" /><text opacity="0" style="font-family:'Dejavu Sans';font-size:14;" x="0" y="0">UG06</text><text opacity="0" style="font-family:'Dejavu Sans';font-size:14;" x="0" y="16">UG06 Hardware</text><text opacity="0" style="font-family:'Dejavu Sans';font-size=14:" x="0" y="32">minifox2, ursula, alexandria, minifox, manuel, puck, foxhole, foxtrot</text><text opacity="0" style="font-family:'Dejavu Sans';font-size=14:" x="0" y="48">UG06 People</text><text opacity="0" style="font-family:'Dejavu Sans';font-size:14;" x="0" y="64">Robert Glen</text><text fill="rgb(178,76,63)" font-size="8px" opacity="1" style="font-family:'Dejavu Sans';" x="688" y="656">UG06</text></g><g id="452_room"><polygon fill="rgb(119,151,159)" points="592,256 592,640 656,640 656,608 736,608 736,256" stroke="black" stroke-width="1" /><text opacity="0" style="font-family:'Dejavu Sans';font-size:14;" x="0" y="0">UG02</text><text opacity="0" style="font-family:'Dejavu Sans';font-size:14;" x="0" y="16">UG02 Hardware</text><text opacity="0" style="font-family:'Dejavu Sans';font-size=14:" x="0" y="32">pinkie, icical, enzi, poincare, einstein, blake, guanabara, greyarea, gorilla, arcturus, jalopy, mallorca, macinger, pingkan, sf510, w-gle, palma, taliga.ch, draco, augustus, old siliconsoup, marvin, obelix, malfoy, kotturoti, hugo, ares, adonis, omnibus, egoist, chga2 autoreg for 6023personal, rover, boatman, bonxie, crispa, everyman, jsa37 autoreg for 7807personal, fdr20 autoreg for 5837personal, nutmeg, rlmr1, zeus, fawley, sg552-laptop, plodge, locum, pan, mlo33 autoreg for 6005personal, fdr20 autoreg for 5837personal, busman, dirac, fiore, lilith, euryale, az338 autoreg for 7361personal, maa76 autoreg for 6431personal, mng26 autoreg for 5237personal, nightwish, maa76 autoreg for 6431personal, maa76 autoreg for 6431personal, u-gle, t-gle, v-gle, ginger, cirrus, mks37 autoreg for 6885personal, rufus, orlando, ares, cyclops, fmhb2 autoreg for 7100personal</text><text opacity="0" style="font-family:'Dejavu Sans';font-size=14:" x="0" y="48">UG02 People</text><text opacity="0" style="font-family:'Dejavu Sans';font-size:14;" x="0" y="64">Natalia Aniceto, Mohammad Afzal, Chad Allen, Andrew Wedlake, Namita Dube, Mohammad Kawsar Sharif Siam, Lewis Howard Mervin, Richard Peter Idris Lewis, Timothy Allen, Jonathan Lam, Kristaps Ermanis, Azedine Zoufir, Nadia Nasser Petersen, Matthew N. Grayson, Mark McGill, Ines Smit, Guillermo Caballero Garcia</text><text fill="rgb(178,76,63)" font-size="8px" opacity="1" style="font-family:'Dejavu Sans';" x="656" y="448">UG02</text></g><g id="456_room"><polygon fill="rgb(119,151,159)" points="528,256 528,352 592,352 592,256" stroke="black" stroke-width="1" /><text opacity="0" style="font-family:'Dejavu Sans';font-size:14;" x="0" y="0">UG07</text><text opacity="0" style="font-family:'Dejavu Sans';font-size:14;" x="0" y="16">UG07 Hardware</text><text opacity="0" style="font-family:'Dejavu Sans';font-size=14:" x="0" y="32">ParkAFM, okapi, antares, magnolia, orsina, moley, arden</text><text opacity="0" style="font-family:'Dejavu Sans';font-size=14:" x="0" y="48">UG07 People</text><text opacity="0" style="font-family:'Dejavu Sans';font-size:14;" x="0" y="64">Peter Murray-Rust, Matthew N. Grayson</text><text fill="rgb(178,76,63)" font-size="8px" opacity="1" style="font-family:'Dejavu Sans';" x="552" y="304">UG07</text></g><g id="457_room"><polygon fill="rgb(119,151,159)" points="464,256 464,352 528,352 528,256" stroke="black" stroke-width="1" /><text opacity="0" style="font-family:'Dejavu Sans';font-size:14;" x="0" y="0">UG08</text><text opacity="0" style="font-family:'Dejavu Sans';font-size:14;" x="0" y="16">UG08 Hardware</text><text opacity="0" style="font-family:'Dejavu Sans';font-size=14:" x="0" y="32">ggrant, quimby, wolf, everest, pbmobileone, lycanthrope, ljc37 autoreg for 6800personal</text><text opacity="0" style="font-family:'Dejavu Sans';font-size=14:" x="0" y="48">UG08 People</text><text opacity="0" style="font-family:'Dejavu Sans';font-size:14;" x="0" y="64">Lucy  Colwell</text><text fill="rgb(178,76,63)" font-size="8px" opacity="1" style="font-family:'Dejavu Sans';" x="488" y="304">UG08</text></g><g id="458_room"><polygon fill="rgb(119,151,159)" points="416,256 416,352 464,352 464,256" stroke="black" stroke-width="1" /><text opacity="0" style="font-family:'Dejavu Sans';font-size:14;" x="0" y="0">UG09</text><text opacity="0" style="font-family:'Dejavu Sans';font-size:14;" x="0" y="16">UG09 Hardware</text><text opacity="0" style="font-family:'Dejavu Sans';font-size=14:" x="0" y="32">charon, norwi, jenna, cally, jupiter, ab454 autoreg for 1400personal, kepler438b</text><text opacity="0" style="font-family:'Dejavu Sans';font-size=14:" x="0" y="48">UG09 People</text><text opacity="0" style="font-family:'Dejavu Sans';font-size:14;" x="0" y="64">Andreas Bender</text><text fill="rgb(178,76,63)" font-size="8px" opacity="1" style="font-family:'Dejavu Sans';" x="432" y="304">UG09</text></g><g id="459_room"><polygon fill="rgb(119,151,159)" points="352,256 352,352 416,352 416,256" stroke="black" stroke-width="1" /><text opacity="0" style="font-family:'Dejavu Sans';font-size:14;" x="0" y="0">UG10</text><text opacity="0" style="font-family:'Dejavu Sans';font-size:14;" x="0" y="16">UG10 Hardware</text><text opacity="0" style="font-family:'Dejavu Sans';font-size=14:" x="0" y="32">cedd, chad, cynibil</text><text opacity="0" style="font-family:'Dejavu Sans';font-size=14:" x="0" y="48">UG10 People</text><text opacity="0" style="font-family:'Dejavu Sans';font-size:14;" x="0" y="64">Jonathan Goodman</text><text fill="rgb(178,76,63)" font-size="8px" opacity="1" style="font-family:'Dejavu Sans';" x="376" y="304">UG10</text></g><g id="460_room"><polygon fill="rgb(119,151,159)" points="352,384 352,480 400,480 400,384" stroke="black" stroke-width="1" /><text opacity="0" style="font-family:'Dejavu Sans';font-size:14;" x="0" y="0">UG11</text><text opacity="0" style="font-family:'Dejavu Sans';font-size:14;" x="0" y="16">UG11 Hardware</text><text opacity="0" style="font-family:'Dejavu Sans';font-size=14:" x="0" y="32">beale, chubby, caelin, halpern, firefly</text><text opacity="0" style="font-family:'Dejavu Sans';font-size=14:" x="0" y="48">UG11 People</text><text opacity="0" style="font-family:'Dejavu Sans';font-size:14;" x="0" y="64" /><text fill="rgb(178,76,63)" font-size="8px" opacity="1" style="font-family:'Dejavu Sans';" x="368" y="432">UG11</text></g><g id="461_room"><polygon fill="rgb(119,151,159)" points="400,384 400,480 544,480 544,384" stroke="black" stroke-width="1" /><text opacity="0" style="font-family:'Dejavu Sans';font-size:14;" x="0" y="0">UG12</text><text opacity="0" style="font-family:'Dejavu Sans';font-size:14;" x="0" y="16">UG12 Hardware</text><text opacity="0" style="font-family:'Dejavu Sans';font-size=14:" x="0" y="32" /><text opacity="0" style="font-family:'Dejavu Sans';font-size=14:" x="0" y="48">UG12 People</text><text opacity="0" style="font-family:'Dejavu Sans';font-size:14;" x="0" y="64" /><text fill="rgb(178,76,63)" font-size="8px" opacity="1" style="font-family:'Dejavu Sans';" x="464" y="432">UG12</text></g><g id="462_room"><polygon fill="rgb(119,151,159)" points="544,384 544,480 592,480 592,384" stroke="black" stroke-width="1" /><text opacity="0" style="font-family:'Dejavu Sans';font-size:14;" x="0" y="0">UG13</text><text opacity="0" style="font-family:'Dejavu Sans';font-size:14;" x="0" y="16">UG13 Hardware</text><text opacity="0" style="font-family:'Dejavu Sans';font-size=14:" x="0" y="32" /><text opacity="0" style="font-family:'Dejavu Sans';font-size=14:" x="0" y="48">UG13 People</text><text opacity="0" style="font-family:'Dejavu Sans';font-size:14;" x="0" y="64" /><text fill="rgb(178,76,63)" font-size="8px" opacity="1" style="font-family:'Dejavu Sans';" x="560" y="432">UG13</text></g><g id="511_room"><polygon fill="rgb(119,151,159)" points="208,320 208,528 320,528 320,320" stroke="black" stroke-width="1" /><text opacity="0" style="font-family:'Dejavu Sans';font-size:14;" x="0" y="0">UG03A</text><text opacity="0" style="font-family:'Dejavu Sans';font-size:14;" x="0" y="16">UG03A Hardware</text><text opacity="0" style="font-family:'Dejavu Sans';font-size=14:" x="0" y="32">nova2, janus2, wp214-laptop, awoowo, fluppy, leela, bearstrangler, paris, ursus, ben, endurance, acer, basil, feldspar, doqon, tav, sybyl, denisdenis, robin, dante, heresiar, molo, shed, abacus, antio, obsidian, beelzebub, karoshi, lechuck, con, quiddit, saturn, arachne, daedal, dogob, dogob, mw529 autoreg for 5754personal, panthro, biggles, sybyl-new, mw529 autoreg for 5754personal, hendra, evolution, daedal (old; has been replaced by a new machine with the same name), monk, auster, sybyl-new, gd356-laptop, beam, duck, grannies, janus, chaucer, agamemnon</text><text opacity="0" style="font-family:'Dejavu Sans';font-size=14:" x="0" y="48">UG03A People</text><text opacity="0" style="font-family:'Dejavu Sans';font-size:14;" x="0" y="64">Elisa Langa, Oana Diaconescu, Benjamin Alexander-Dann, Fatima Baldo, Christopher Jones, Stephanie Ashenden, Arushi Gandhi</text><text fill="rgb(178,76,63)" font-size="8px" opacity="1" style="font-family:'Dejavu Sans';" x="256" y="424">UG03A</text></g><g id="1374_room"><polygon fill="rgb(128,128,128)" points="192,256 192,320 320,320 320,480 352,640 352,384 592,384 592,352 352,352 352,256" stroke="black" stroke-width="1" /><text opacity="0" style="font-family:'Dejavu Sans';font-size:14;" x="0" y="0">CMI-Ground-Corridor</text><text opacity="0" style="font-family:'Dejavu Sans';font-size:14;" x="0" y="16">CMI-Ground-Corridor Hardware</text><text opacity="0" style="font-family:'Dejavu Sans';font-size=14:" x="0" y="32">tcm-pc03</text><text opacity="0" style="font-family:'Dejavu Sans';font-size=14:" x="0" y="48">CMI-Ground-Corridor People</text><text opacity="0" style="font-family:'Dejavu Sans';font-size:14;" x="0" y="64" /><text fill="rgb(178,76,63)" font-size="8px" opacity="1" style="font-family:'Dejavu Sans';" x="384" y="448">CMI-Ground-Corridor</text></g><g id="627_room"><polygon fill="rgb(119,151,159)" points="352,592 352,704 592,704 592,592 576,592 528,608 480,616 432,608 368,592" stroke="black" stroke-width="1" /><text opacity="0" style="font-family:'Dejavu Sans';font-size:14;" x="0" y="0">UG01</text><text opacity="0" style="font-family:'Dejavu Sans';font-size:14;" x="0" y="16">UG01 Hardware</text><text opacity="0" style="font-family:'Dejavu Sans';font-size=14:" x="0" y="32" /><text opacity="0" style="font-family:'Dejavu Sans';font-size=14:" x="0" y="48">UG01 People</text><text opacity="0" style="font-family:'Dejavu Sans';font-size:14;" x="0" y="64" /><text fill="rgb(178,76,63)" font-size="8px" opacity="1" style="font-family:'Dejavu Sans';" x="464" y="648">UG01</text></g><g id="453_room"><polygon fill="rgb(119,151,159)" points="352,480 352,592 368,592 432,608 480,616 528,608 576,592 592,592 592,480" stroke="black" stroke-width="1" /><text opacity="0" style="font-family:'Dejavu Sans';font-size:14;" x="0" y="0">UG04</text><text opacity="0" style="font-family:'Dejavu Sans';font-size:14;" x="0" y="16">UG04 Hardware</text><text opacity="0" style="font-family:'Dejavu Sans';font-size=14:" x="0" y="32">moroto, pindu</text><text opacity="0" style="font-family:'Dejavu Sans';font-size=14:" x="0" y="48">UG04 People</text><text opacity="0" style="font-family:'Dejavu Sans';font-size:14;" x="0" y="64">Leen Kalash</text><text fill="rgb(178,76,63)" font-size="8px" opacity="1" style="font-family:'Dejavu Sans';" x="464" y="548">UG04</text></g></g></svg>