<?xml version="1.0" encoding="utf-8" ?>
<svg baseProfile="full" height="1300px" version="1.1" width="1500px" xmlns="http://www.w3.org/2000/svg" xmlns:ev="http://www.w3.org/2001/xml-events" xmlns:xlink="http://www.w3.org/1999/xlink"><defs /><polyline fill="white" points="0,0 0,1 1,1 1,0" stroke="black" stroke-width="3.5" /><g id="floor_n"><g id="437_room"><polygon fill="rgb(119,151,159)" points="208,704 208,784 240,784 240,704" stroke="black" stroke-width="1" /><text opacity="0" style="font-family:'Dejavu Sans';font-size:14;" x="0" y="0">U103</text><text opacity="0" style="font-family:'Dejavu Sans';font-size:14;" x="0" y="16">U103 Hardware</text><text opacity="0" style="font-family:'Dejavu Sans';font-size=14:" x="0" y="32" /><text opacity="0" style="font-family:'Dejavu Sans';font-size=14:" x="0" y="48">U103 People</text><text opacity="0" style="font-family:'Dejavu Sans';font-size:14;" x="0" y="64" /><text fill="rgb(178,76,63)" font-size="8px" opacity="1" style="font-family:'Dejavu Sans';" x="216" y="744">U103</text></g><g id="436_room"><polygon fill="rgb(119,151,159)" points="240,704 240,784 352,784 352,704" stroke="black" stroke-width="1" /><text opacity="0" style="font-family:'Dejavu Sans';font-size:14;" x="0" y="0">U102</text><text opacity="0" style="font-family:'Dejavu Sans';font-size:14;" x="0" y="16">U102 Hardware</text><text opacity="0" style="font-family:'Dejavu Sans';font-size=14:" x="0" y="32">sherbet, minerva, kes2, ulysses</text><text opacity="0" style="font-family:'Dejavu Sans';font-size=14:" x="0" y="48">U102 People</text><text opacity="0" style="font-family:'Dejavu Sans';font-size:14;" x="0" y="64">Michael Todd-Jones</text><text fill="rgb(178,76,63)" font-size="8px" opacity="1" style="font-family:'Dejavu Sans';" x="288" y="744">U102</text></g><g id="1365_room"><polygon fill="rgb(128,128,128)" points="352,704 352,784 528,784 528,704" stroke="black" stroke-width="1" /><text opacity="0" style="font-family:'Dejavu Sans';font-size:14;" x="0" y="0">CMI-First-Stairs</text><text opacity="0" style="font-family:'Dejavu Sans';font-size:14;" x="0" y="16">CMI-First-Stairs Hardware</text><text opacity="0" style="font-family:'Dejavu Sans';font-size=14:" x="0" y="32" /><text opacity="0" style="font-family:'Dejavu Sans';font-size=14:" x="0" y="48">CMI-First-Stairs People</text><text opacity="0" style="font-family:'Dejavu Sans';font-size:14;" x="0" y="64" /><text fill="rgb(178,76,63)" font-size="8px" opacity="1" style="font-family:'Dejavu Sans';" x="432" y="744">CMI-First-Stairs</text></g><g id="520_room"><polygon fill="rgb(119,151,159)" points="192,256 208,704 736,704 736,256" stroke="black" stroke-width="1" /><text opacity="0" style="font-family:'Dejavu Sans';font-size:14;" x="0" y="0">U101</text><text opacity="0" style="font-family:'Dejavu Sans';font-size:14;" x="0" y="16">U101 Hardware</text><text opacity="0" style="font-family:'Dejavu Sans';font-size=14:" x="0" y="32">pchemne1, chakotay, studentmac01, neelix, kes</text><text opacity="0" style="font-family:'Dejavu Sans';font-size=14:" x="0" y="48">U101 People</text><text opacity="0" style="font-family:'Dejavu Sans';font-size:14;" x="0" y="64">Michael Todd-Jones, Clair Castle</text><text fill="rgb(178,76,63)" font-size="8px" opacity="1" style="font-family:'Dejavu Sans';" x="456" y="480">U101</text></g><g id="1366_room"><polygon fill="rgb(119,151,159)" points="560,704 560,784 608,784 608,704" stroke="black" stroke-width="1" /><text opacity="0" style="font-family:'Dejavu Sans';font-size:14;" x="0" y="0">CMI-First-Lift-Landing</text><text opacity="0" style="font-family:'Dejavu Sans';font-size:14;" x="0" y="16">CMI-First-Lift-Landing Hardware</text><text opacity="0" style="font-family:'Dejavu Sans';font-size=14:" x="0" y="32" /><text opacity="0" style="font-family:'Dejavu Sans';font-size=14:" x="0" y="48">CMI-First-Lift-Landing People</text><text opacity="0" style="font-family:'Dejavu Sans';font-size:14;" x="0" y="64" /><text fill="rgb(178,76,63)" font-size="8px" opacity="1" style="font-family:'Dejavu Sans';" x="576" y="744">CMI-First-Lift-Landing</text></g></g></svg>