<?xml version="1.0" encoding="utf-8" ?>
<svg baseProfile="full" height="1300px" version="1.1" width="1500px" xmlns="http://www.w3.org/2000/svg" xmlns:ev="http://www.w3.org/2001/xml-events" xmlns:xlink="http://www.w3.org/1999/xlink"><defs /><polyline fill="white" points="0,0 0,1 1,1 1,0" stroke="black" stroke-width="3.5" /><g id="floor_n"><g id="439_room"><polygon fill="rgb(119,151,159)" points="208,480 208,704 304,704 304,480" stroke="black" stroke-width="1" /><text opacity="0" style="font-family:'Dejavu Sans';font-size:14;" x="0" y="0">U202</text><text opacity="0" style="font-family:'Dejavu Sans';font-size:14;" x="0" y="16">U202 Hardware</text><text opacity="0" style="font-family:'Dejavu Sans';font-size=14:" x="0" y="32" /><text opacity="0" style="font-family:'Dejavu Sans';font-size=14:" x="0" y="48">U202 People</text><text opacity="0" style="font-family:'Dejavu Sans';font-size:14;" x="0" y="64" /><text fill="rgb(178,76,63)" font-size="8px" opacity="1" style="font-family:'Dejavu Sans';" x="248" y="592">U202</text></g><g id="440_room"><polygon fill="rgb(119,151,159)" points="208,368 208,480 304,480 312,368" stroke="black" stroke-width="1" /><text opacity="0" style="font-family:'Dejavu Sans';font-size:14;" x="0" y="0">U203</text><text opacity="0" style="font-family:'Dejavu Sans';font-size:14;" x="0" y="16">U203 Hardware</text><text opacity="0" style="font-family:'Dejavu Sans';font-size=14:" x="0" y="32" /><text opacity="0" style="font-family:'Dejavu Sans';font-size=14:" x="0" y="48">U203 People</text><text opacity="0" style="font-family:'Dejavu Sans';font-size:14;" x="0" y="64" /><text fill="rgb(178,76,63)" font-size="8px" opacity="1" style="font-family:'Dejavu Sans';" x="252" y="424">U203</text></g><g id="626_room"><polygon fill="rgb(119,151,159)" points="208,704 208,784 352,784 352,704" stroke="black" stroke-width="1" /><text opacity="0" style="font-family:'Dejavu Sans';font-size:14;" x="0" y="0">U205</text><text opacity="0" style="font-family:'Dejavu Sans';font-size:14;" x="0" y="16">U205 Hardware</text><text opacity="0" style="font-family:'Dejavu Sans';font-size=14:" x="0" y="32">rcg28 autoreg for 370personal</text><text opacity="0" style="font-family:'Dejavu Sans';font-size=14:" x="0" y="48">U205 People</text><text opacity="0" style="font-family:'Dejavu Sans';font-size:14;" x="0" y="64" /><text fill="rgb(178,76,63)" font-size="8px" opacity="1" style="font-family:'Dejavu Sans';" x="272" y="744">U205</text></g><g id="625_room"><polygon fill="rgb(119,151,159)" points="400,368 400,416 544,416 544,368" stroke="black" stroke-width="1" /><text opacity="0" style="font-family:'Dejavu Sans';font-size:14;" x="0" y="0">U204</text><text opacity="0" style="font-family:'Dejavu Sans';font-size:14;" x="0" y="16">U204 Hardware</text><text opacity="0" style="font-family:'Dejavu Sans';font-size=14:" x="0" y="32" /><text opacity="0" style="font-family:'Dejavu Sans';font-size=14:" x="0" y="48">U204 People</text><text opacity="0" style="font-family:'Dejavu Sans';font-size:14;" x="0" y="64" /><text fill="rgb(178,76,63)" font-size="8px" opacity="1" style="font-family:'Dejavu Sans';" x="464" y="392">U204</text></g><g id="1368_room"><polygon fill="rgb(119,151,159)" points="192,256 192,368 544,368 544,256" stroke="black" stroke-width="1" /><text opacity="0" style="font-family:'Dejavu Sans';font-size:14;" x="0" y="0">Roof Space</text><text opacity="0" style="font-family:'Dejavu Sans';font-size:14;" x="0" y="16">Roof Space Hardware</text><text opacity="0" style="font-family:'Dejavu Sans';font-size=14:" x="0" y="32" /><text opacity="0" style="font-family:'Dejavu Sans';font-size=14:" x="0" y="48">Roof Space People</text><text opacity="0" style="font-family:'Dejavu Sans';font-size:14;" x="0" y="64" /><text fill="rgb(178,76,63)" font-size="8px" opacity="1" style="font-family:'Dejavu Sans';" x="360" y="312">Roof Space</text></g><g id="438_room"><polygon fill="rgb(119,151,159)" points="304,368 304,704 736,704 736,256 544,256 544,560 400,560 400,368" stroke="black" stroke-width="1" /><text opacity="0" style="font-family:'Dejavu Sans';font-size:14;" x="0" y="0">U201</text><text opacity="0" style="font-family:'Dejavu Sans';font-size:14;" x="0" y="16">U201 Hardware</text><text opacity="0" style="font-family:'Dejavu Sans';font-size=14:" x="0" y="32" /><text opacity="0" style="font-family:'Dejavu Sans';font-size=14:" x="0" y="48">U201 People</text><text opacity="0" style="font-family:'Dejavu Sans';font-size:14;" x="0" y="64" /><text fill="rgb(178,76,63)" font-size="8px" opacity="1" style="font-family:'Dejavu Sans';" x="512" y="480">U201</text></g><g id="1369_room"><polygon fill="rgb(128,128,128)" points="352,704 352,784 528,784 528,704" stroke="black" stroke-width="1" /><text opacity="0" style="font-family:'Dejavu Sans';font-size:14;" x="0" y="0">CMI-Second-Stairs</text><text opacity="0" style="font-family:'Dejavu Sans';font-size:14;" x="0" y="16">CMI-Second-Stairs Hardware</text><text opacity="0" style="font-family:'Dejavu Sans';font-size=14:" x="0" y="32" /><text opacity="0" style="font-family:'Dejavu Sans';font-size=14:" x="0" y="48">CMI-Second-Stairs People</text><text opacity="0" style="font-family:'Dejavu Sans';font-size:14;" x="0" y="64" /><text fill="rgb(178,76,63)" font-size="8px" opacity="1" style="font-family:'Dejavu Sans';" x="432" y="744">CMI-Second-Stairs</text></g></g></svg>