<?xml version="1.0" encoding="utf-8" ?>
<svg baseProfile="full" height="1300px" version="1.1" width="1500px" xmlns="http://www.w3.org/2000/svg" xmlns:ev="http://www.w3.org/2001/xml-events" xmlns:xlink="http://www.w3.org/1999/xlink"><defs /><polyline fill="white" points="0,0 0,1 1,1 1,0" stroke="black" stroke-width="3.5" /><g id="floor_n"><g id="807_room"><polygon fill="rgb(119,151,159)" points="8,552 8,752 208,752 208,552" stroke="black" stroke-width="1" /><text opacity="0" style="font-family:'Dejavu Sans';font-size:14;" x="0" y="0">LT1 (G5)</text><text opacity="0" style="font-family:'Dejavu Sans';font-size:14;" x="0" y="16">LT1 (G5) Hardware</text><text opacity="0" style="font-family:'Dejavu Sans';font-size=14:" x="0" y="32" /><text opacity="0" style="font-family:'Dejavu Sans';font-size=14:" x="0" y="48">LT1 (G5) People</text><text opacity="0" style="font-family:'Dejavu Sans';font-size:14;" x="0" y="64" /><text fill="rgb(178,76,63)" font-size="8px" opacity="1" style="font-family:'Dejavu Sans';" x="100" y="652">LT1 (G5)</text></g><g id="1339_room"><polygon fill="rgb(128,128,128)" points="208,680 208,784 312,784 312,680" stroke="black" stroke-width="1" /><text opacity="0" style="font-family:'Dejavu Sans';font-size:14;" x="0" y="0">Ground-South-Stairs</text><text opacity="0" style="font-family:'Dejavu Sans';font-size:14;" x="0" y="16">Ground-South-Stairs Hardware</text><text opacity="0" style="font-family:'Dejavu Sans';font-size=14:" x="0" y="32" /><text opacity="0" style="font-family:'Dejavu Sans';font-size=14:" x="0" y="48">Ground-South-Stairs People</text><text opacity="0" style="font-family:'Dejavu Sans';font-size:14;" x="0" y="64" /><text fill="rgb(178,76,63)" font-size="8px" opacity="1" style="font-family:'Dejavu Sans';" x="252" y="732">Ground-South-Stairs</text></g><g id="1340_room"><polygon fill="rgb(128,128,128)" points="152,480 152,544 208,544 208,680 344,680 344,640 312,640 312,480" stroke="black" stroke-width="1" /><text opacity="0" style="font-family:'Dejavu Sans';font-size:14;" x="0" y="0">Main-Foyer</text><text opacity="0" style="font-family:'Dejavu Sans';font-size:14;" x="0" y="16">Main-Foyer Hardware</text><text opacity="0" style="font-family:'Dejavu Sans';font-size=14:" x="0" y="32" /><text opacity="0" style="font-family:'Dejavu Sans';font-size=14:" x="0" y="48">Main-Foyer People</text><text opacity="0" style="font-family:'Dejavu Sans';font-size:14;" x="0" y="64" /><text fill="rgb(178,76,63)" font-size="8px" opacity="1" style="font-family:'Dejavu Sans';" x="240" y="580">Main-Foyer</text></g><g id="1341_room"><polygon fill="rgb(119,151,159)" points="312,680 312,744 344,744 344,680" stroke="black" stroke-width="1" /><text opacity="0" style="font-family:'Dejavu Sans';font-size:14;" x="0" y="0">Disabled WC</text><text opacity="0" style="font-family:'Dejavu Sans';font-size:14;" x="0" y="16">Disabled WC Hardware</text><text opacity="0" style="font-family:'Dejavu Sans';font-size=14:" x="0" y="32" /><text opacity="0" style="font-family:'Dejavu Sans';font-size=14:" x="0" y="48">Disabled WC People</text><text opacity="0" style="font-family:'Dejavu Sans';font-size:14;" x="0" y="64" /><text fill="rgb(178,76,63)" font-size="8px" opacity="1" style="font-family:'Dejavu Sans';" x="320" y="712">Disabled WC</text></g><g id="1342_room"><polygon fill="rgb(119,151,159)" points="344,680 344,744 368,744 368,680" stroke="black" stroke-width="1" /><text opacity="0" style="font-family:'Dejavu Sans';font-size:14;" x="0" y="0">G6 WC</text><text opacity="0" style="font-family:'Dejavu Sans';font-size:14;" x="0" y="16">G6 WC Hardware</text><text opacity="0" style="font-family:'Dejavu Sans';font-size=14:" x="0" y="32" /><text opacity="0" style="font-family:'Dejavu Sans';font-size=14:" x="0" y="48">G6 WC People</text><text opacity="0" style="font-family:'Dejavu Sans';font-size:14;" x="0" y="64" /><text fill="rgb(178,76,63)" font-size="8px" opacity="1" style="font-family:'Dejavu Sans';" x="348" y="712">G6 WC</text></g><g id="805_room"><polygon fill="rgb(119,151,159)" points="368,704 368,744 424,744 424,704" stroke="black" stroke-width="1" /><text opacity="0" style="font-family:'Dejavu Sans';font-size:14;" x="0" y="0">G7</text><text opacity="0" style="font-family:'Dejavu Sans';font-size:14;" x="0" y="16">G7 Hardware</text><text opacity="0" style="font-family:'Dejavu Sans';font-size=14:" x="0" y="32">chubb-panel, chubb-nvr, waitata</text><text opacity="0" style="font-family:'Dejavu Sans';font-size=14:" x="0" y="48">G7 People</text><text opacity="0" style="font-family:'Dejavu Sans';font-size:14;" x="0" y="64" /><text fill="rgb(178,76,63)" font-size="8px" opacity="1" style="font-family:'Dejavu Sans';" x="388" y="724">G7</text></g><g id="766_room"><polygon fill="rgb(119,151,159)" points="424,680 424,744 488,744 488,680" stroke="black" stroke-width="1" /><text opacity="0" style="font-family:'Dejavu Sans';font-size:14;" x="0" y="0">G8</text><text opacity="0" style="font-family:'Dejavu Sans';font-size:14;" x="0" y="16">G8 Hardware</text><text opacity="0" style="font-family:'Dejavu Sans';font-size=14:" x="0" y="32">beluga</text><text opacity="0" style="font-family:'Dejavu Sans';font-size=14:" x="0" y="48">G8 People</text><text opacity="0" style="font-family:'Dejavu Sans';font-size:14;" x="0" y="64" /><text fill="rgb(178,76,63)" font-size="8px" opacity="1" style="font-family:'Dejavu Sans';" x="448" y="712">G8</text></g><g id="806_room"><polygon fill="rgb(119,151,159)" points="488,552 488,744 584,744 584,552" stroke="black" stroke-width="1" /><text opacity="0" style="font-family:'Dejavu Sans';font-size:14;" x="0" y="0">G9 Remote Sensing</text><text opacity="0" style="font-family:'Dejavu Sans';font-size:14;" x="0" y="16">G9 Remote Sensing Hardware</text><text opacity="0" style="font-family:'Dejavu Sans';font-size=14:" x="0" y="32">Baffin, popetime, Regent, tbr22 autoreg for 6180personal, chinstrap, mukaka, towle, taku, mulock, iqaluit, nutak, igloolik, nunavut, jsa1003 autoreg for 6143personal, zs278 autoreg for 6354personal</text><text opacity="0" style="font-family:'Dejavu Sans';font-size=14:" x="0" y="48">G9 Remote Sensing People</text><text opacity="0" style="font-family:'Dejavu Sans';font-size:14;" x="0" y="64" /><text fill="rgb(178,76,63)" font-size="8px" opacity="1" style="font-family:'Dejavu Sans';" x="528" y="648">G9 Remote Sensing</text></g><g id="1343_room"><polygon fill="rgb(128,128,128)" points="344,640 344,680 360,680 360,704 424,704 424,680 488,680 488,640" stroke="black" stroke-width="1" /><text opacity="0" style="font-family:'Dejavu Sans';font-size:14;" x="0" y="0">Ground-East-Corridor</text><text opacity="0" style="font-family:'Dejavu Sans';font-size:14;" x="0" y="16">Ground-East-Corridor Hardware</text><text opacity="0" style="font-family:'Dejavu Sans';font-size=14:" x="0" y="32" /><text opacity="0" style="font-family:'Dejavu Sans';font-size=14:" x="0" y="48">Ground-East-Corridor People</text><text opacity="0" style="font-family:'Dejavu Sans';font-size:14;" x="0" y="64" /><text fill="rgb(178,76,63)" font-size="8px" opacity="1" style="font-family:'Dejavu Sans';" x="408" y="672">Ground-East-Corridor</text></g><g id="799_room"><polygon fill="rgb(119,151,159)" points="312,576 312,640 368,640 368,576" stroke="black" stroke-width="1" /><text opacity="0" style="font-family:'Dejavu Sans';font-size:14;" x="0" y="0">G11 Kitchen</text><text opacity="0" style="font-family:'Dejavu Sans';font-size:14;" x="0" y="16">G11 Kitchen Hardware</text><text opacity="0" style="font-family:'Dejavu Sans';font-size=14:" x="0" y="32" /><text opacity="0" style="font-family:'Dejavu Sans';font-size=14:" x="0" y="48">G11 Kitchen People</text><text opacity="0" style="font-family:'Dejavu Sans';font-size:14;" x="0" y="64" /><text fill="rgb(178,76,63)" font-size="8px" opacity="1" style="font-family:'Dejavu Sans';" x="332" y="608">G11 Kitchen</text></g><g id="798_room"><polygon fill="rgb(119,151,159)" points="368,576 368,640 424,640 424,576" stroke="black" stroke-width="1" /><text opacity="0" style="font-family:'Dejavu Sans';font-size:14;" x="0" y="0">G10</text><text opacity="0" style="font-family:'Dejavu Sans';font-size:14;" x="0" y="16">G10 Hardware</text><text opacity="0" style="font-family:'Dejavu Sans';font-size=14:" x="0" y="32">jenness, sweeney, meighen, Fury, boaty, Shackleton, bulli, ra395 autoreg for 6257personal, laptop1, Crozier</text><text opacity="0" style="font-family:'Dejavu Sans';font-size=14:" x="0" y="48">G10 People</text><text opacity="0" style="font-family:'Dejavu Sans';font-size:14;" x="0" y="64" /><text fill="rgb(178,76,63)" font-size="8px" opacity="1" style="font-family:'Dejavu Sans';" x="388" y="608">G10</text></g><g id="800_room"><polygon fill="rgb(119,151,159)" points="424,552 424,640 488,640 488,552" stroke="black" stroke-width="1" /><text opacity="0" style="font-family:'Dejavu Sans';font-size:14;" x="0" y="0">G12 Store</text><text opacity="0" style="font-family:'Dejavu Sans';font-size:14;" x="0" y="16">G12 Store Hardware</text><text opacity="0" style="font-family:'Dejavu Sans';font-size=14:" x="0" y="32">northwind, cartwright, cornwallis</text><text opacity="0" style="font-family:'Dejavu Sans';font-size=14:" x="0" y="48">G12 Store People</text><text opacity="0" style="font-family:'Dejavu Sans';font-size:14;" x="0" y="64" /><text fill="rgb(178,76,63)" font-size="8px" opacity="1" style="font-family:'Dejavu Sans';" x="448" y="596">G12 Store</text></g><g id="1344_room"><polygon fill="rgb(119,151,159)" points="312,552 312,576 424,576 424,552" stroke="black" stroke-width="1" /><text opacity="0" style="font-family:'Dejavu Sans';font-size:14;" x="0" y="0">G14</text><text opacity="0" style="font-family:'Dejavu Sans';font-size:14;" x="0" y="16">G14 Hardware</text><text opacity="0" style="font-family:'Dejavu Sans';font-size=14:" x="0" y="32" /><text opacity="0" style="font-family:'Dejavu Sans';font-size=14:" x="0" y="48">G14 People</text><text opacity="0" style="font-family:'Dejavu Sans';font-size:14;" x="0" y="64" /><text fill="rgb(178,76,63)" font-size="8px" opacity="1" style="font-family:'Dejavu Sans';" x="360" y="564">G14</text></g><g id="802_room"><polygon fill="rgb(119,151,159)" points="312,336 312,552 424,552 424,336" stroke="black" stroke-width="1" /><text opacity="0" style="font-family:'Dejavu Sans';font-size:14;" x="0" y="0">G15 General Office</text><text opacity="0" style="font-family:'Dejavu Sans';font-size:14;" x="0" y="16">G15 General Office Hardware</text><text opacity="0" style="font-family:'Dejavu Sans';font-size=14:" x="0" y="32">victoria, scott, crabeater, brodiaga, sprilaptop1, barbeau</text><text opacity="0" style="font-family:'Dejavu Sans';font-size=14:" x="0" y="48">G15 General Office People</text><text opacity="0" style="font-family:'Dejavu Sans';font-size:14;" x="0" y="64" /><text fill="rgb(178,76,63)" font-size="8px" opacity="1" style="font-family:'Dejavu Sans';" x="360" y="444">G15 General Office</text></g><g id="804_room"><polygon fill="rgb(119,151,159)" points="360,264 360,336 448,336 448,264" stroke="black" stroke-width="1" /><text opacity="0" style="font-family:'Dejavu Sans';font-size:14;" x="0" y="0">G3</text><text opacity="0" style="font-family:'Dejavu Sans';font-size:14;" x="0" y="16">G3 Hardware</text><text opacity="0" style="font-family:'Dejavu Sans';font-size=14:" x="0" y="32">spritill1, suka</text><text opacity="0" style="font-family:'Dejavu Sans';font-size=14:" x="0" y="48">G3 People</text><text opacity="0" style="font-family:'Dejavu Sans';font-size:14;" x="0" y="64" /><text fill="rgb(178,76,63)" font-size="8px" opacity="1" style="font-family:'Dejavu Sans';" x="396" y="300">G3</text></g><g id="1345_room"><polygon fill="rgb(128,128,128)" points="360,216 360,264 448,264 448,216" stroke="black" stroke-width="1" /><text opacity="0" style="font-family:'Dejavu Sans';font-size:14;" x="0" y="0">Ground-North-Stairs</text><text opacity="0" style="font-family:'Dejavu Sans';font-size:14;" x="0" y="16">Ground-North-Stairs Hardware</text><text opacity="0" style="font-family:'Dejavu Sans';font-size=14:" x="0" y="32" /><text opacity="0" style="font-family:'Dejavu Sans';font-size=14:" x="0" y="48">Ground-North-Stairs People</text><text opacity="0" style="font-family:'Dejavu Sans';font-size:14;" x="0" y="64" /><text fill="rgb(178,76,63)" font-size="8px" opacity="1" style="font-family:'Dejavu Sans';" x="396" y="240">Ground-North-Stairs</text></g><g id="803_room"><polygon fill="rgb(119,151,159)" points="360,144 360,216 448,216 448,144" stroke="black" stroke-width="1" /><text opacity="0" style="font-family:'Dejavu Sans';font-size:14;" x="0" y="0">G2 Director's Office</text><text opacity="0" style="font-family:'Dejavu Sans';font-size:14;" x="0" y="16">G2 Director's Office Hardware</text><text opacity="0" style="font-family:'Dejavu Sans';font-size=14:" x="0" y="32">torngat</text><text opacity="0" style="font-family:'Dejavu Sans';font-size=14:" x="0" y="48">G2 Director's Office People</text><text opacity="0" style="font-family:'Dejavu Sans';font-size:14;" x="0" y="64" /><text fill="rgb(178,76,63)" font-size="8px" opacity="1" style="font-family:'Dejavu Sans';" x="396" y="180">G2 Director's Office</text></g><g id="1346_room"><polygon fill="rgb(119,151,159)" points="160,336 160,480 312,480 392,336" stroke="black" stroke-width="1" /><text opacity="0" style="font-family:'Dejavu Sans';font-size:14;" x="0" y="0">G4</text><text opacity="0" style="font-family:'Dejavu Sans';font-size:14;" x="0" y="16">G4 Hardware</text><text opacity="0" style="font-family:'Dejavu Sans';font-size=14:" x="0" y="32" /><text opacity="0" style="font-family:'Dejavu Sans';font-size=14:" x="0" y="48">G4 People</text><text opacity="0" style="font-family:'Dejavu Sans';font-size:14;" x="0" y="64" /><text fill="rgb(178,76,63)" font-size="8px" opacity="1" style="font-family:'Dejavu Sans';" x="268" y="408">G4</text></g><g id="1347_room"><polygon fill="rgb(119,151,159)" points="72,144 72,336 352,336 352,232 160,232 160,144" stroke="black" stroke-width="1" /><text opacity="0" style="font-family:'Dejavu Sans';font-size:14;" x="0" y="0">G1</text><text opacity="0" style="font-family:'Dejavu Sans';font-size:14;" x="0" y="16">G1 Hardware</text><text opacity="0" style="font-family:'Dejavu Sans';font-size=14:" x="0" y="32" /><text opacity="0" style="font-family:'Dejavu Sans';font-size=14:" x="0" y="48">G1 People</text><text opacity="0" style="font-family:'Dejavu Sans';font-size:14;" x="0" y="64" /><text fill="rgb(178,76,63)" font-size="8px" opacity="1" style="font-family:'Dejavu Sans';" x="204" y="240">G1</text></g><g id="1348_room"><polygon fill="rgb(119,151,159)" points="160,144 160,232 352,232 352,144" stroke="black" stroke-width="1" /><text opacity="0" style="font-family:'Dejavu Sans';font-size:14;" x="0" y="0">Ground-Memorial Hall</text><text opacity="0" style="font-family:'Dejavu Sans';font-size:14;" x="0" y="16">Ground-Memorial Hall Hardware</text><text opacity="0" style="font-family:'Dejavu Sans';font-size=14:" x="0" y="32" /><text opacity="0" style="font-family:'Dejavu Sans';font-size=14:" x="0" y="48">Ground-Memorial Hall People</text><text opacity="0" style="font-family:'Dejavu Sans';font-size:14;" x="0" y="64" /><text fill="rgb(178,76,63)" font-size="8px" opacity="1" style="font-family:'Dejavu Sans';" x="248" y="188">Ground-Memorial Hall</text></g><g id="801_room"><polygon fill="rgb(119,151,159)" points="424,432 424,456 432,456 456,496 504,512 560,488 576,440 560,392 512,368 464,384 432,432" stroke="black" stroke-width="1" /><text opacity="0" style="font-family:'Dejavu Sans';font-size:14;" x="0" y="0">G13 Rotunda</text><text opacity="0" style="font-family:'Dejavu Sans';font-size:14;" x="0" y="16">G13 Rotunda Hardware</text><text opacity="0" style="font-family:'Dejavu Sans';font-size=14:" x="0" y="32" /><text opacity="0" style="font-family:'Dejavu Sans';font-size=14:" x="0" y="48">G13 Rotunda People</text><text opacity="0" style="font-family:'Dejavu Sans';font-size:14;" x="0" y="64" /><text fill="rgb(178,76,63)" font-size="8px" opacity="1" style="font-family:'Dejavu Sans';" x="492" y="440">G13 Rotunda</text></g></g></svg>