<?xml version="1.0" encoding="utf-8" ?>
<svg baseProfile="full" height="1300px" version="1.1" width="1500px" xmlns="http://www.w3.org/2000/svg" xmlns:ev="http://www.w3.org/2001/xml-events" xmlns:xlink="http://www.w3.org/1999/xlink"><defs /><polyline fill="white" points="0,0 0,1 1,1 1,0" stroke="black" stroke-width="3.5" /><g id="floor_n"><g id="767_room"><polygon fill="rgb(119,151,159)" points="0,536 0,672 368,672 368,536" stroke="black" stroke-width="1" /><text opacity="0" style="font-family:'Dejavu Sans';font-size:14;" x="0" y="0">F1 Library Catalogue</text><text opacity="0" style="font-family:'Dejavu Sans';font-size:14;" x="0" y="16">F1 Library Catalogue Hardware</text><text opacity="0" style="font-family:'Dejavu Sans';font-size=14:" x="0" y="32" /><text opacity="0" style="font-family:'Dejavu Sans';font-size=14:" x="0" y="48">F1 Library Catalogue People</text><text opacity="0" style="font-family:'Dejavu Sans';font-size:14;" x="0" y="64" /><text fill="rgb(178,76,63)" font-size="8px" opacity="1" style="font-family:'Dejavu Sans';" x="176" y="604">F1 Library Catalogue</text></g><g id="780_room"><polygon fill="rgb(119,151,159)" points="0,672 0,752 88,752 88,672" stroke="black" stroke-width="1" /><text opacity="0" style="font-family:'Dejavu Sans';font-size:14;" x="0" y="0">F8 Library Office</text><text opacity="0" style="font-family:'Dejavu Sans';font-size:14;" x="0" y="16">F8 Library Office Hardware</text><text opacity="0" style="font-family:'Dejavu Sans';font-size=14:" x="0" y="32" /><text opacity="0" style="font-family:'Dejavu Sans';font-size=14:" x="0" y="48">F8 Library Office People</text><text opacity="0" style="font-family:'Dejavu Sans';font-size:14;" x="0" y="64" /><text fill="rgb(178,76,63)" font-size="8px" opacity="1" style="font-family:'Dejavu Sans';" x="36" y="712">F8 Library Office</text></g><g id="779_room"><polygon fill="rgb(119,151,159)" points="88,672 88,752 208,752 208,672" stroke="black" stroke-width="1" /><text opacity="0" style="font-family:'Dejavu Sans';font-size:14;" x="0" y="0">F7 Library Office</text><text opacity="0" style="font-family:'Dejavu Sans';font-size:14;" x="0" y="16">F7 Library Office Hardware</text><text opacity="0" style="font-family:'Dejavu Sans';font-size=14:" x="0" y="32">Nansen, svalbard, blossom, mackay</text><text opacity="0" style="font-family:'Dejavu Sans';font-size=14:" x="0" y="48">F7 Library Office People</text><text opacity="0" style="font-family:'Dejavu Sans';font-size:14;" x="0" y="64" /><text fill="rgb(178,76,63)" font-size="8px" opacity="1" style="font-family:'Dejavu Sans';" x="140" y="712">F7 Library Office</text></g><g id="1349_room"><polygon fill="rgb(128,128,128)" points="208,672 208,784 304,784 304,672" stroke="black" stroke-width="1" /><text opacity="0" style="font-family:'Dejavu Sans';font-size:14;" x="0" y="0">First-South-Stairs</text><text opacity="0" style="font-family:'Dejavu Sans';font-size:14;" x="0" y="16">First-South-Stairs Hardware</text><text opacity="0" style="font-family:'Dejavu Sans';font-size=14:" x="0" y="32" /><text opacity="0" style="font-family:'Dejavu Sans';font-size=14:" x="0" y="48">First-South-Stairs People</text><text opacity="0" style="font-family:'Dejavu Sans';font-size:14;" x="0" y="64" /><text fill="rgb(178,76,63)" font-size="8px" opacity="1" style="font-family:'Dejavu Sans';" x="248" y="728">First-South-Stairs</text></g><g id="1350_room"><polygon fill="rgb(119,151,159)" points="328,672 328,696 304,696 304,752 368,752 368,672" stroke="black" stroke-width="1" /><text opacity="0" style="font-family:'Dejavu Sans';font-size:14;" x="0" y="0">F3 Female Toilet</text><text opacity="0" style="font-family:'Dejavu Sans';font-size:14;" x="0" y="16">F3 Female Toilet Hardware</text><text opacity="0" style="font-family:'Dejavu Sans';font-size=14:" x="0" y="32" /><text opacity="0" style="font-family:'Dejavu Sans';font-size=14:" x="0" y="48">F3 Female Toilet People</text><text opacity="0" style="font-family:'Dejavu Sans';font-size:14;" x="0" y="64" /><text fill="rgb(178,76,63)" font-size="8px" opacity="1" style="font-family:'Dejavu Sans';" x="328" y="712">F3 Female Toilet</text></g><g id="1351_room"><polygon fill="rgb(119,151,159)" points="304,672 304,696 328,696 328,672" stroke="black" stroke-width="1" /><text opacity="0" style="font-family:'Dejavu Sans';font-size:14;" x="0" y="0">First CUPD 1</text><text opacity="0" style="font-family:'Dejavu Sans';font-size:14;" x="0" y="16">First CUPD 1 Hardware</text><text opacity="0" style="font-family:'Dejavu Sans';font-size=14:" x="0" y="32" /><text opacity="0" style="font-family:'Dejavu Sans';font-size=14:" x="0" y="48">First CUPD 1 People</text><text opacity="0" style="font-family:'Dejavu Sans';font-size:14;" x="0" y="64" /><text fill="rgb(178,76,63)" font-size="8px" opacity="1" style="font-family:'Dejavu Sans';" x="308" y="684">First CUPD 1</text></g><g id="776_room"><polygon fill="rgb(119,151,159)" points="368,672 368,752 424,752 424,672" stroke="black" stroke-width="1" /><text opacity="0" style="font-family:'Dejavu Sans';font-size:14;" x="0" y="0">F4</text><text opacity="0" style="font-family:'Dejavu Sans';font-size:14;" x="0" y="16">F4 Hardware</text><text opacity="0" style="font-family:'Dejavu Sans';font-size=14:" x="0" y="32">makkovik, hackett, m18spare, fogo</text><text opacity="0" style="font-family:'Dejavu Sans';font-size=14:" x="0" y="48">F4 People</text><text opacity="0" style="font-family:'Dejavu Sans';font-size:14;" x="0" y="64" /><text fill="rgb(178,76,63)" font-size="8px" opacity="1" style="font-family:'Dejavu Sans';" x="388" y="712">F4</text></g><g id="777_room"><polygon fill="rgb(119,151,159)" points="424,672 424,752 480,752 480,672" stroke="black" stroke-width="1" /><text opacity="0" style="font-family:'Dejavu Sans';font-size:14;" x="0" y="0">F5</text><text opacity="0" style="font-family:'Dejavu Sans';font-size:14;" x="0" y="16">F5 Hardware</text><text opacity="0" style="font-family:'Dejavu Sans';font-size=14:" x="0" y="32">davy, hecla</text><text opacity="0" style="font-family:'Dejavu Sans';font-size=14:" x="0" y="48">F5 People</text><text opacity="0" style="font-family:'Dejavu Sans';font-size:14;" x="0" y="64" /><text fill="rgb(178,76,63)" font-size="8px" opacity="1" style="font-family:'Dejavu Sans';" x="444" y="712">F5</text></g><g id="778_room"><polygon fill="rgb(119,151,159)" points="376,616 376,672 480,672 480,616" stroke="black" stroke-width="1" /><text opacity="0" style="font-family:'Dejavu Sans';font-size:14;" x="0" y="0">F6</text><text opacity="0" style="font-family:'Dejavu Sans';font-size:14;" x="0" y="16">F6 Hardware</text><text opacity="0" style="font-family:'Dejavu Sans';font-size=14:" x="0" y="32">ks696 autoreg for 6912personal</text><text opacity="0" style="font-family:'Dejavu Sans';font-size=14:" x="0" y="48">F6 People</text><text opacity="0" style="font-family:'Dejavu Sans';font-size:14;" x="0" y="64" /><text fill="rgb(178,76,63)" font-size="8px" opacity="1" style="font-family:'Dejavu Sans';" x="420" y="644">F6</text></g><g id="781_room"><polygon fill="rgb(119,151,159)" points="376,536 376,616 480,616 480,536" stroke="black" stroke-width="1" /><text opacity="0" style="font-family:'Dejavu Sans';font-size:14;" x="0" y="0">F9 Film Archive</text><text opacity="0" style="font-family:'Dejavu Sans';font-size:14;" x="0" y="16">F9 Film Archive Hardware</text><text opacity="0" style="font-family:'Dejavu Sans';font-size=14:" x="0" y="32" /><text opacity="0" style="font-family:'Dejavu Sans';font-size=14:" x="0" y="48">F9 Film Archive People</text><text opacity="0" style="font-family:'Dejavu Sans';font-size:14;" x="0" y="64" /><text fill="rgb(178,76,63)" font-size="8px" opacity="1" style="font-family:'Dejavu Sans';" x="420" y="576">F9 Film Archive</text></g><g id="1352_room"><polygon fill="rgb(119,151,159)" points="480,536 480,752 584,752 584,536" stroke="black" stroke-width="1" /><text opacity="0" style="font-family:'Dejavu Sans';font-size:14;" x="0" y="0">F2 Archive</text><text opacity="0" style="font-family:'Dejavu Sans';font-size:14;" x="0" y="16">F2 Archive Hardware</text><text opacity="0" style="font-family:'Dejavu Sans';font-size=14:" x="0" y="32">southampton, maud</text><text opacity="0" style="font-family:'Dejavu Sans';font-size=14:" x="0" y="48">F2 Archive People</text><text opacity="0" style="font-family:'Dejavu Sans';font-size:14;" x="0" y="64" /><text fill="rgb(178,76,63)" font-size="8px" opacity="1" style="font-family:'Dejavu Sans';" x="524" y="644">F2 Archive</text></g><g id="769_room"><polygon fill="rgb(119,151,159)" points="144,336 144,536 208,536 208,336" stroke="black" stroke-width="1" /><text opacity="0" style="font-family:'Dejavu Sans';font-size:14;" x="0" y="0">F11 Bibliographers</text><text opacity="0" style="font-family:'Dejavu Sans';font-size:14;" x="0" y="16">F11 Bibliographers Hardware</text><text opacity="0" style="font-family:'Dejavu Sans';font-size=14:" x="0" y="32">hohol, vaska, julik, skelton</text><text opacity="0" style="font-family:'Dejavu Sans';font-size=14:" x="0" y="48">F11 Bibliographers People</text><text opacity="0" style="font-family:'Dejavu Sans';font-size:14;" x="0" y="64" /><text fill="rgb(178,76,63)" font-size="8px" opacity="1" style="font-family:'Dejavu Sans';" x="168" y="436">F11 Bibliographers</text></g><g id="768_room"><polygon fill="rgb(119,151,159)" points="208,336 208,536 304,536 304,336" stroke="black" stroke-width="1" /><text opacity="0" style="font-family:'Dejavu Sans';font-size:14;" x="0" y="0">F10 Library centre section</text><text opacity="0" style="font-family:'Dejavu Sans';font-size:14;" x="0" y="16">F10 Library centre section Hardware</text><text opacity="0" style="font-family:'Dejavu Sans';font-size=14:" x="0" y="32">klo24 autoreg for 2897personal, stareek, vaida, silni, benyon, kimmirut</text><text opacity="0" style="font-family:'Dejavu Sans';font-size=14:" x="0" y="48">F10 Library centre section People</text><text opacity="0" style="font-family:'Dejavu Sans';font-size:14;" x="0" y="64" /><text fill="rgb(178,76,63)" font-size="8px" opacity="1" style="font-family:'Dejavu Sans';" x="248" y="436">F10 Library centre section</text></g><g id="770_room"><polygon fill="rgb(119,151,159)" points="304,336 304,536 424,536 424,336" stroke="black" stroke-width="1" /><text opacity="0" style="font-family:'Dejavu Sans';font-size:14;" x="0" y="0">F12 Friends room</text><text opacity="0" style="font-family:'Dejavu Sans';font-size:14;" x="0" y="16">F12 Friends room Hardware</text><text opacity="0" style="font-family:'Dejavu Sans';font-size=14:" x="0" y="32">pudil, macaroni, snippet, chatham, gerachi, vesol, rlh45 autoreg for 6730personal, jtt27 autoreg for 6904personal</text><text opacity="0" style="font-family:'Dejavu Sans';font-size=14:" x="0" y="48">F12 Friends room People</text><text opacity="0" style="font-family:'Dejavu Sans';font-size:14;" x="0" y="64" /><text fill="rgb(178,76,63)" font-size="8px" opacity="1" style="font-family:'Dejavu Sans';" x="356" y="436">F12 Friends room</text></g><g id="1353_room"><polygon fill="rgb(119,151,159)" points="64,136 64,336 160,336 160,136" stroke="black" stroke-width="1" /><text opacity="0" style="font-family:'Dejavu Sans';font-size:14;" x="0" y="0">F15 Library</text><text opacity="0" style="font-family:'Dejavu Sans';font-size:14;" x="0" y="16">F15 Library Hardware</text><text opacity="0" style="font-family:'Dejavu Sans';font-size=14:" x="0" y="32">somerset</text><text opacity="0" style="font-family:'Dejavu Sans';font-size=14:" x="0" y="48">F15 Library People</text><text opacity="0" style="font-family:'Dejavu Sans';font-size:14;" x="0" y="64" /><text fill="rgb(178,76,63)" font-size="8px" opacity="1" style="font-family:'Dejavu Sans';" x="104" y="236">F15 Library</text></g><g id="773_room"><polygon fill="rgb(119,151,159)" points="160,224 160,336 352,336 352,224" stroke="black" stroke-width="1" /><text opacity="0" style="font-family:'Dejavu Sans';font-size:14;" x="0" y="0">F14-15</text><text opacity="0" style="font-family:'Dejavu Sans';font-size:14;" x="0" y="16">F14-15 Hardware</text><text opacity="0" style="font-family:'Dejavu Sans';font-size=14:" x="0" y="32">lhr21 autoreg for 6260personal, emperor</text><text opacity="0" style="font-family:'Dejavu Sans';font-size=14:" x="0" y="48">F14-15 People</text><text opacity="0" style="font-family:'Dejavu Sans';font-size:14;" x="0" y="64" /><text fill="rgb(178,76,63)" font-size="8px" opacity="1" style="font-family:'Dejavu Sans';" x="248" y="280">F14-15</text></g><g id="775_room"><polygon fill="rgb(119,151,159)" points="352,136 352,216 448,216 448,136" stroke="black" stroke-width="1" /><text opacity="0" style="font-family:'Dejavu Sans';font-size:14;" x="0" y="0">F17 SCAR</text><text opacity="0" style="font-family:'Dejavu Sans';font-size:14;" x="0" y="16">F17 SCAR Hardware</text><text opacity="0" style="font-family:'Dejavu Sans';font-size=14:" x="0" y="32">lc413 autoreg for 6187institutional, rb302, eg393, de280 autoreg for 6332personal, de280 autoreg for 6332personal, eagle01, rb320, rb302 autoreg for 6144personal, rb302 autoreg for 6144personal, rb302 autoreg for 6144personal</text><text opacity="0" style="font-family:'Dejavu Sans';font-size=14:" x="0" y="48">F17 SCAR People</text><text opacity="0" style="font-family:'Dejavu Sans';font-size:14;" x="0" y="64" /><text fill="rgb(178,76,63)" font-size="8px" opacity="1" style="font-family:'Dejavu Sans';" x="392" y="176">F17 SCAR</text></g><g id="1354_room"><polygon fill="rgb(128,128,128)" points="352,216 352,256 448,256 448,216" stroke="black" stroke-width="1" /><text opacity="0" style="font-family:'Dejavu Sans';font-size:14;" x="0" y="0">First-North-Stairs</text><text opacity="0" style="font-family:'Dejavu Sans';font-size:14;" x="0" y="16">First-North-Stairs Hardware</text><text opacity="0" style="font-family:'Dejavu Sans';font-size=14:" x="0" y="32" /><text opacity="0" style="font-family:'Dejavu Sans';font-size=14:" x="0" y="48">First-North-Stairs People</text><text opacity="0" style="font-family:'Dejavu Sans';font-size:14;" x="0" y="64" /><text fill="rgb(178,76,63)" font-size="8px" opacity="1" style="font-family:'Dejavu Sans';" x="392" y="236">First-North-Stairs</text></g><g id="774_room"><polygon fill="rgb(119,151,159)" points="352,256 352,336 448,336 448,256" stroke="black" stroke-width="1" /><text opacity="0" style="font-family:'Dejavu Sans';font-size:14;" x="0" y="0">F16 SCAR</text><text opacity="0" style="font-family:'Dejavu Sans';font-size:14;" x="0" y="16">F16 SCAR Hardware</text><text opacity="0" style="font-family:'Dejavu Sans';font-size=14:" x="0" y="32">fitzjames, mds68, scarsecretary1</text><text opacity="0" style="font-family:'Dejavu Sans';font-size=14:" x="0" y="48">F16 SCAR People</text><text opacity="0" style="font-family:'Dejavu Sans';font-size:14;" x="0" y="64" /><text fill="rgb(178,76,63)" font-size="8px" opacity="1" style="font-family:'Dejavu Sans';" x="392" y="296">F16 SCAR</text></g><g id="772_room"><polygon fill="rgb(119,151,159)" points="424,432 424,456 432,456 456,496 504,512 560,488 576,440 560,392 512,368 464,384 432,432" stroke="black" stroke-width="1" /><text opacity="0" style="font-family:'Dejavu Sans';font-size:14;" x="0" y="0">F13 Rotunda</text><text opacity="0" style="font-family:'Dejavu Sans';font-size:14;" x="0" y="16">F13 Rotunda Hardware</text><text opacity="0" style="font-family:'Dejavu Sans';font-size=14:" x="0" y="32">cr485 autoreg for 6529personal</text><text opacity="0" style="font-family:'Dejavu Sans';font-size=14:" x="0" y="48">F13 Rotunda People</text><text opacity="0" style="font-family:'Dejavu Sans';font-size:14;" x="0" y="64" /><text fill="rgb(178,76,63)" font-size="8px" opacity="1" style="font-family:'Dejavu Sans';" x="492" y="440">F13 Rotunda</text></g></g></svg>