<?xml version="1.0" encoding="utf-8" ?>
<svg baseProfile="full" height="1300px" version="1.1" width="1500px" xmlns="http://www.w3.org/2000/svg" xmlns:ev="http://www.w3.org/2001/xml-events" xmlns:xlink="http://www.w3.org/1999/xlink"><defs /><polyline fill="white" points="0,0 0,1 1,1 1,0" stroke="black" stroke-width="3.5" /><g id="floor_n"><g id="785_room"><polygon fill="rgb(119,151,159)" points="0,536 0,608 72,608 72,536" stroke="black" stroke-width="1" /><text opacity="0" style="font-family:'Dejavu Sans';font-size:14;" x="0" y="0">S12</text><text opacity="0" style="font-family:'Dejavu Sans';font-size:14;" x="0" y="16">S12 Hardware</text><text opacity="0" style="font-family:'Dejavu Sans';font-size=14:" x="0" y="32">hebron, leopard</text><text opacity="0" style="font-family:'Dejavu Sans';font-size=14:" x="0" y="48">S12 People</text><text opacity="0" style="font-family:'Dejavu Sans';font-size:14;" x="0" y="64" /><text fill="rgb(178,76,63)" font-size="8px" opacity="1" style="font-family:'Dejavu Sans';" x="28" y="572">S12</text></g><g id="784_room"><polygon fill="rgb(119,151,159)" points="0,608 0,672 72,672 72,608" stroke="black" stroke-width="1" /><text opacity="0" style="font-family:'Dejavu Sans';font-size:14;" x="0" y="0">S11</text><text opacity="0" style="font-family:'Dejavu Sans';font-size:14;" x="0" y="16">S11 Hardware</text><text opacity="0" style="font-family:'Dejavu Sans';font-size=14:" x="0" y="32">seal, bravo-pole, mb124, largha</text><text opacity="0" style="font-family:'Dejavu Sans';font-size=14:" x="0" y="48">S11 People</text><text opacity="0" style="font-family:'Dejavu Sans';font-size:14;" x="0" y="64" /><text fill="rgb(178,76,63)" font-size="8px" opacity="1" style="font-family:'Dejavu Sans';" x="28" y="640">S11</text></g><g id="797_room"><polygon fill="rgb(119,151,159)" points="0,672 0,752 96,752 96,672" stroke="black" stroke-width="1" /><text opacity="0" style="font-family:'Dejavu Sans';font-size:14;" x="0" y="0">S9</text><text opacity="0" style="font-family:'Dejavu Sans';font-size:14;" x="0" y="16">S9 Hardware</text><text opacity="0" style="font-family:'Dejavu Sans';font-size=14:" x="0" y="32">Minik, pv100, pv100-2, lc413 autoreg for 6193institutional, sonum</text><text opacity="0" style="font-family:'Dejavu Sans';font-size=14:" x="0" y="48">S9 People</text><text opacity="0" style="font-family:'Dejavu Sans';font-size:14;" x="0" y="64" /><text fill="rgb(178,76,63)" font-size="8px" opacity="1" style="font-family:'Dejavu Sans';" x="40" y="712">S9</text></g><g id="796_room"><polygon fill="rgb(119,151,159)" points="96,672 96,752 152,752 152,672" stroke="black" stroke-width="1" /><text opacity="0" style="font-family:'Dejavu Sans';font-size:14;" x="0" y="0">S8</text><text opacity="0" style="font-family:'Dejavu Sans';font-size:14;" x="0" y="16">S8 Hardware</text><text opacity="0" style="font-family:'Dejavu Sans';font-size=14:" x="0" y="32">ellesmere, nunatak</text><text opacity="0" style="font-family:'Dejavu Sans';font-size=14:" x="0" y="48">S8 People</text><text opacity="0" style="font-family:'Dejavu Sans';font-size:14;" x="0" y="64" /><text fill="rgb(178,76,63)" font-size="8px" opacity="1" style="font-family:'Dejavu Sans';" x="116" y="712">S8</text></g><g id="795_room"><polygon fill="rgb(119,151,159)" points="152,672 152,752 208,752 208,672" stroke="black" stroke-width="1" /><text opacity="0" style="font-family:'Dejavu Sans';font-size:14;" x="0" y="0">S7</text><text opacity="0" style="font-family:'Dejavu Sans';font-size:14;" x="0" y="16">S7 Hardware</text><text opacity="0" style="font-family:'Dejavu Sans';font-size=14:" x="0" y="32">Pooq</text><text opacity="0" style="font-family:'Dejavu Sans';font-size=14:" x="0" y="48">S7 People</text><text opacity="0" style="font-family:'Dejavu Sans';font-size:14;" x="0" y="64" /><text fill="rgb(178,76,63)" font-size="8px" opacity="1" style="font-family:'Dejavu Sans';" x="172" y="712">S7</text></g><g id="1355_room"><polygon fill="rgb(128,128,128)" points="208,672 208,784 304,784 304,672" stroke="black" stroke-width="1" /><text opacity="0" style="font-family:'Dejavu Sans';font-size:14;" x="0" y="0">Second-South-Stairs</text><text opacity="0" style="font-family:'Dejavu Sans';font-size:14;" x="0" y="16">Second-South-Stairs Hardware</text><text opacity="0" style="font-family:'Dejavu Sans';font-size=14:" x="0" y="32" /><text opacity="0" style="font-family:'Dejavu Sans';font-size=14:" x="0" y="48">Second-South-Stairs People</text><text opacity="0" style="font-family:'Dejavu Sans';font-size:14;" x="0" y="64" /><text fill="rgb(178,76,63)" font-size="8px" opacity="1" style="font-family:'Dejavu Sans';" x="248" y="728">Second-South-Stairs</text></g><g id="1356_room"><polygon fill="rgb(119,151,159)" points="304,688 304,752 368,752 368,672 336,672 336,688" stroke="black" stroke-width="1" /><text opacity="0" style="font-family:'Dejavu Sans';font-size:14;" x="0" y="0">S3 Toilet</text><text opacity="0" style="font-family:'Dejavu Sans';font-size:14;" x="0" y="16">S3 Toilet Hardware</text><text opacity="0" style="font-family:'Dejavu Sans';font-size=14:" x="0" y="32" /><text opacity="0" style="font-family:'Dejavu Sans';font-size=14:" x="0" y="48">S3 Toilet People</text><text opacity="0" style="font-family:'Dejavu Sans';font-size:14;" x="0" y="64" /><text fill="rgb(178,76,63)" font-size="8px" opacity="1" style="font-family:'Dejavu Sans';" x="328" y="712">S3 Toilet</text></g><g id="1357_room"><polygon fill="rgb(119,151,159)" points="304,672 304,688 336,688 336,672" stroke="black" stroke-width="1" /><text opacity="0" style="font-family:'Dejavu Sans';font-size:14;" x="0" y="0">Second CUPD 1</text><text opacity="0" style="font-family:'Dejavu Sans';font-size:14;" x="0" y="16">Second CUPD 1 Hardware</text><text opacity="0" style="font-family:'Dejavu Sans';font-size=14:" x="0" y="32" /><text opacity="0" style="font-family:'Dejavu Sans';font-size=14:" x="0" y="48">Second CUPD 1 People</text><text opacity="0" style="font-family:'Dejavu Sans';font-size:14;" x="0" y="64" /><text fill="rgb(178,76,63)" font-size="8px" opacity="1" style="font-family:'Dejavu Sans';" x="312" y="680">Second CUPD 1</text></g><g id="792_room"><polygon fill="rgb(119,151,159)" points="368,672 368,752 424,752 424,672" stroke="black" stroke-width="1" /><text opacity="0" style="font-family:'Dejavu Sans';font-size:14;" x="0" y="0">S4</text><text opacity="0" style="font-family:'Dejavu Sans';font-size:14;" x="0" y="16">S4 Hardware</text><text opacity="0" style="font-family:'Dejavu Sans';font-size=14:" x="0" y="32">wabush</text><text opacity="0" style="font-family:'Dejavu Sans';font-size=14:" x="0" y="48">S4 People</text><text opacity="0" style="font-family:'Dejavu Sans';font-size:14;" x="0" y="64" /><text fill="rgb(178,76,63)" font-size="8px" opacity="1" style="font-family:'Dejavu Sans';" x="388" y="712">S4</text></g><g id="793_room"><polygon fill="rgb(119,151,159)" points="424,672 424,752 488,752 488,672" stroke="black" stroke-width="1" /><text opacity="0" style="font-family:'Dejavu Sans';font-size:14;" x="0" y="0">S5</text><text opacity="0" style="font-family:'Dejavu Sans';font-size:14;" x="0" y="16">S5 Hardware</text><text opacity="0" style="font-family:'Dejavu Sans';font-size=14:" x="0" y="32">pc350, markland, ungava, pc350 autoreg for 6151personal</text><text opacity="0" style="font-family:'Dejavu Sans';font-size=14:" x="0" y="48">S5 People</text><text opacity="0" style="font-family:'Dejavu Sans';font-size:14;" x="0" y="64" /><text fill="rgb(178,76,63)" font-size="8px" opacity="1" style="font-family:'Dejavu Sans';" x="448" y="712">S5</text></g><g id="783_room"><polygon fill="rgb(119,151,159)" points="424,536 424,632 488,632 488,536" stroke="black" stroke-width="1" /><text opacity="0" style="font-family:'Dejavu Sans';font-size:14;" x="0" y="0">S10</text><text opacity="0" style="font-family:'Dejavu Sans';font-size:14;" x="0" y="16">S10 Hardware</text><text opacity="0" style="font-family:'Dejavu Sans';font-size=14:" x="0" y="32">ay308 autoreg for 7587personal, emm36-laptop, nt283 autoreg for 6692personal, parry</text><text opacity="0" style="font-family:'Dejavu Sans';font-size=14:" x="0" y="48">S10 People</text><text opacity="0" style="font-family:'Dejavu Sans';font-size:14;" x="0" y="64" /><text fill="rgb(178,76,63)" font-size="8px" opacity="1" style="font-family:'Dejavu Sans';" x="448" y="584">S10</text></g><g id="794_room"><polygon fill="rgb(119,151,159)" points="424,632 424,672 488,672 488,752 584,752 584,536 488,536 488,632" stroke="black" stroke-width="1" /><text opacity="0" style="font-family:'Dejavu Sans';font-size:14;" x="0" y="0">S6 PostDocs</text><text opacity="0" style="font-family:'Dejavu Sans';font-size:14;" x="0" y="16">S6 PostDocs Hardware</text><text opacity="0" style="font-family:'Dejavu Sans';font-size=14:" x="0" y="32">DESKTOP-OI4UI1P, lc413 autoreg for 6693personal, aa962-personal, Scotia, husky, Antoniolaptop, enderby, weddell, lappa, seri, kah55, ekl1 autoreg for 6693personal, griper, Liddon, rs732 autoreg for 6530personal</text><text opacity="0" style="font-family:'Dejavu Sans';font-size=14:" x="0" y="48">S6 PostDocs People</text><text opacity="0" style="font-family:'Dejavu Sans';font-size:14;" x="0" y="64" /><text fill="rgb(178,76,63)" font-size="8px" opacity="1" style="font-family:'Dejavu Sans';" x="496" y="644">S6 PostDocs</text></g><g id="782_room"><polygon fill="rgb(119,151,159)" points="72,536 72,672 424,672 424,536" stroke="black" stroke-width="1" /><text opacity="0" style="font-family:'Dejavu Sans';font-size:14;" x="0" y="0">S1 PhD area</text><text opacity="0" style="font-family:'Dejavu Sans';font-size:14;" x="0" y="16">S1 PhD area Hardware</text><text opacity="0" style="font-family:'Dejavu Sans';font-size=14:" x="0" y="32">franklin, hudson, banwellmacbook</text><text opacity="0" style="font-family:'Dejavu Sans';font-size=14:" x="0" y="48">S1 PhD area People</text><text opacity="0" style="font-family:'Dejavu Sans';font-size:14;" x="0" y="64" /><text fill="rgb(178,76,63)" font-size="8px" opacity="1" style="font-family:'Dejavu Sans';" x="240" y="604">S1 PhD area</text></g><g id="790_room"><polygon fill="rgb(119,151,159)" points="200,336 200,536 424,536 424,336" stroke="black" stroke-width="1" /><text opacity="0" style="font-family:'Dejavu Sans';font-size:14;" x="0" y="0">S2 Wubbold Room</text><text opacity="0" style="font-family:'Dejavu Sans';font-size:14;" x="0" y="16">S2 Wubbold Room Hardware</text><text opacity="0" style="font-family:'Dejavu Sans';font-size=14:" x="0" y="32">7HRPK, ojc36 autoreg for 7415personal, gmg30 autoreg for 7868personal, kem67 autoreg for 7870personal, ccgb3 autoreg for 7864personal, rockhopper, rlc58 autoreg for 7414personal, odell, kem67 autoreg for 7870personal, hopedale, tp378 autoreg for 6903personal, jj413 autoreg for 7869personal, mz346 autoreg for 6906personal, mac204 autoreg for 6900personal, Fiennes, mps64 autoreg for 7416personal, hn290 autoreg for 7411personal, ojc36 autoreg for 7415personal, mcs89 autoreg for 7418personal, hv250 autoreg for 7417personal</text><text opacity="0" style="font-family:'Dejavu Sans';font-size=14:" x="0" y="48">S2 Wubbold Room People</text><text opacity="0" style="font-family:'Dejavu Sans';font-size:14;" x="0" y="64" /><text fill="rgb(178,76,63)" font-size="8px" opacity="1" style="font-family:'Dejavu Sans';" x="304" y="436">S2 Wubbold Room</text></g><g id="786_room"><polygon fill="rgb(119,151,159)" points="424,432 424,456 432,456 456,496 504,512 560,488 576,440 560,392 512,368 464,384 432,432" stroke="black" stroke-width="1" /><text opacity="0" style="font-family:'Dejavu Sans';font-size:14;" x="0" y="0">S13 Rotunda</text><text opacity="0" style="font-family:'Dejavu Sans';font-size:14;" x="0" y="16">S13 Rotunda Hardware</text><text opacity="0" style="font-family:'Dejavu Sans';font-size=14:" x="0" y="32">cgg24 autoreg for 6901personal</text><text opacity="0" style="font-family:'Dejavu Sans';font-size=14:" x="0" y="48">S13 Rotunda People</text><text opacity="0" style="font-family:'Dejavu Sans';font-size:14;" x="0" y="64" /><text fill="rgb(178,76,63)" font-size="8px" opacity="1" style="font-family:'Dejavu Sans';" x="492" y="440">S13 Rotunda</text></g><g id="1358_room"><polygon fill="rgb(119,151,159)" points="368,312 368,336 408,336 408,312" stroke="black" stroke-width="1" /><text opacity="0" style="font-family:'Dejavu Sans';font-size:14;" x="0" y="0">S14</text><text opacity="0" style="font-family:'Dejavu Sans';font-size:14;" x="0" y="16">S14 Hardware</text><text opacity="0" style="font-family:'Dejavu Sans';font-size=14:" x="0" y="32" /><text opacity="0" style="font-family:'Dejavu Sans';font-size=14:" x="0" y="48">S14 People</text><text opacity="0" style="font-family:'Dejavu Sans';font-size:14;" x="0" y="64" /><text fill="rgb(178,76,63)" font-size="8px" opacity="1" style="font-family:'Dejavu Sans';" x="380" y="324">S14</text></g><g id="787_room"><polygon fill="rgb(119,151,159)" points="360,256 360,312 424,312 424,256" stroke="black" stroke-width="1" /><text opacity="0" style="font-family:'Dejavu Sans';font-size:14;" x="0" y="0">S15 Plotter room</text><text opacity="0" style="font-family:'Dejavu Sans';font-size:14;" x="0" y="16">S15 Plotter room Hardware</text><text opacity="0" style="font-family:'Dejavu Sans';font-size=14:" x="0" y="32">spriplotter</text><text opacity="0" style="font-family:'Dejavu Sans';font-size=14:" x="0" y="48">S15 Plotter room People</text><text opacity="0" style="font-family:'Dejavu Sans';font-size:14;" x="0" y="64" /><text fill="rgb(178,76,63)" font-size="8px" opacity="1" style="font-family:'Dejavu Sans';" x="384" y="284">S15 Plotter room</text></g><g id="1359_room"><polygon fill="rgb(128,128,128)" points="360,224 360,256 448,256 448,208 384,208 368,224" stroke="black" stroke-width="1" /><text opacity="0" style="font-family:'Dejavu Sans';font-size:14;" x="0" y="0">Second-North-Stairs</text><text opacity="0" style="font-family:'Dejavu Sans';font-size:14;" x="0" y="16">Second-North-Stairs Hardware</text><text opacity="0" style="font-family:'Dejavu Sans';font-size=14:" x="0" y="32" /><text opacity="0" style="font-family:'Dejavu Sans';font-size=14:" x="0" y="48">Second-North-Stairs People</text><text opacity="0" style="font-family:'Dejavu Sans';font-size:14;" x="0" y="64" /><text fill="rgb(178,76,63)" font-size="8px" opacity="1" style="font-family:'Dejavu Sans';" x="396" y="232">Second-North-Stairs</text></g><g id="788_room"><polygon fill="rgb(119,151,159)" points="160,160 160,224 368,224 384,208 424,208 424,160" stroke="black" stroke-width="1" /><text opacity="0" style="font-family:'Dejavu Sans';font-size:14;" x="0" y="0">S16 Bookstore</text><text opacity="0" style="font-family:'Dejavu Sans';font-size:14;" x="0" y="16">S16 Bookstore Hardware</text><text opacity="0" style="font-family:'Dejavu Sans';font-size=14:" x="0" y="32">rabchick, clarkson, ishak, agw41 autoreg for 6905personal</text><text opacity="0" style="font-family:'Dejavu Sans';font-size=14:" x="0" y="48">S16 Bookstore People</text><text opacity="0" style="font-family:'Dejavu Sans';font-size:14;" x="0" y="64" /><text fill="rgb(178,76,63)" font-size="8px" opacity="1" style="font-family:'Dejavu Sans';" x="284" y="192">S16 Bookstore</text></g><g id="789_room"><polygon fill="rgb(119,151,159)" points="96,160 96,312 160,312 160,160" stroke="black" stroke-width="1" /><text opacity="0" style="font-family:'Dejavu Sans';font-size:14;" x="0" y="0">S17 Seminar room</text><text opacity="0" style="font-family:'Dejavu Sans';font-size:14;" x="0" y="16">S17 Seminar room Hardware</text><text opacity="0" style="font-family:'Dejavu Sans';font-size=14:" x="0" y="32" /><text opacity="0" style="font-family:'Dejavu Sans';font-size=14:" x="0" y="48">S17 Seminar room People</text><text opacity="0" style="font-family:'Dejavu Sans';font-size:14;" x="0" y="64" /><text fill="rgb(178,76,63)" font-size="8px" opacity="1" style="font-family:'Dejavu Sans';" x="120" y="236">S17 Seminar room</text></g><g id="1360_room"><polygon fill="rgb(119,151,159)" points="160,224 160,336 360,336 360,224" stroke="black" stroke-width="1" /><text opacity="0" style="font-family:'Dejavu Sans';font-size:14;" x="0" y="0">Roof Space</text><text opacity="0" style="font-family:'Dejavu Sans';font-size:14;" x="0" y="16">Roof Space Hardware</text><text opacity="0" style="font-family:'Dejavu Sans';font-size=14:" x="0" y="32" /><text opacity="0" style="font-family:'Dejavu Sans';font-size=14:" x="0" y="48">Roof Space People</text><text opacity="0" style="font-family:'Dejavu Sans';font-size:14;" x="0" y="64" /><text fill="rgb(178,76,63)" font-size="8px" opacity="1" style="font-family:'Dejavu Sans';" x="252" y="280">Roof Space</text></g></g></svg>