<?xml version="1.0" encoding="utf-8" ?>
<svg baseProfile="full" height="1300px" version="1.1" width="1500px" xmlns="http://www.w3.org/2000/svg" xmlns:ev="http://www.w3.org/2001/xml-events" xmlns:xlink="http://www.w3.org/1999/xlink"><defs /><polyline fill="white" points="0,0 0,1 1,1 1,0" stroke="black" stroke-width="3.5" /><g id="floor_n"><g id="815_room"><polygon fill="rgb(119,151,159)" points="672,304 664,352 768,368 776,320" stroke="black" stroke-width="1" /><text opacity="0" style="font-family:'Dejavu Sans';font-size:14;" x="0" y="0">B17</text><text opacity="0" style="font-family:'Dejavu Sans';font-size:14;" x="0" y="16">B17 Hardware</text><text opacity="0" style="font-family:'Dejavu Sans';font-size=14:" x="0" y="32" /><text opacity="0" style="font-family:'Dejavu Sans';font-size=14:" x="0" y="48">B17 People</text><text opacity="0" style="font-family:'Dejavu Sans';font-size:14;" x="0" y="64" /><text fill="rgb(178,76,63)" font-size="8px" opacity="1" style="font-family:'Dejavu Sans';" x="712" y="336">B17</text></g><g id="819_room"><polygon fill="rgb(119,151,159)" points="208,552 208,624 304,624 304,552" stroke="black" stroke-width="1" /><text opacity="0" style="font-family:'Dejavu Sans';font-size:14;" x="0" y="0">B5</text><text opacity="0" style="font-family:'Dejavu Sans';font-size:14;" x="0" y="16">B5 Hardware</text><text opacity="0" style="font-family:'Dejavu Sans';font-size=14:" x="0" y="32" /><text opacity="0" style="font-family:'Dejavu Sans';font-size=14:" x="0" y="48">B5 People</text><text opacity="0" style="font-family:'Dejavu Sans';font-size:14;" x="0" y="64" /><text fill="rgb(178,76,63)" font-size="8px" opacity="1" style="font-family:'Dejavu Sans';" x="248" y="588">B5</text></g><g id="820_room"><polygon fill="rgb(119,151,159)" points="304,552 304,616 368,616 368,552" stroke="black" stroke-width="1" /><text opacity="0" style="font-family:'Dejavu Sans';font-size:14;" x="0" y="0">B6</text><text opacity="0" style="font-family:'Dejavu Sans';font-size:14;" x="0" y="16">B6 Hardware</text><text opacity="0" style="font-family:'Dejavu Sans';font-size=14:" x="0" y="32">cpk26 autoreg for 6892personal, tf269 autoreg for 4688institutional</text><text opacity="0" style="font-family:'Dejavu Sans';font-size=14:" x="0" y="48">B6 People</text><text opacity="0" style="font-family:'Dejavu Sans';font-size:14;" x="0" y="64" /><text fill="rgb(178,76,63)" font-size="8px" opacity="1" style="font-family:'Dejavu Sans';" x="328" y="584">B6</text></g><g id="821_room"><polygon fill="rgb(119,151,159)" points="368,552 368,616 448,616 448,552" stroke="black" stroke-width="1" /><text opacity="0" style="font-family:'Dejavu Sans';font-size:14;" x="0" y="0">B7</text><text opacity="0" style="font-family:'Dejavu Sans';font-size:14;" x="0" y="16">B7 Hardware</text><text opacity="0" style="font-family:'Dejavu Sans';font-size=14:" x="0" y="32">mp717 autoreg for 6881personal, ul211 autoreg for 6655personal</text><text opacity="0" style="font-family:'Dejavu Sans';font-size=14:" x="0" y="48">B7 People</text><text opacity="0" style="font-family:'Dejavu Sans';font-size:14;" x="0" y="64" /><text fill="rgb(178,76,63)" font-size="8px" opacity="1" style="font-family:'Dejavu Sans';" x="400" y="584">B7</text></g><g id="822_room"><polygon fill="rgb(119,151,159)" points="368,680 368,696 424,696 424,680" stroke="black" stroke-width="1" /><text opacity="0" style="font-family:'Dejavu Sans';font-size:14;" x="0" y="0">B9-9a</text><text opacity="0" style="font-family:'Dejavu Sans';font-size:14;" x="0" y="16">B9-9a Hardware</text><text opacity="0" style="font-family:'Dejavu Sans';font-size=14:" x="0" y="32" /><text opacity="0" style="font-family:'Dejavu Sans';font-size=14:" x="0" y="48">B9-9a People</text><text opacity="0" style="font-family:'Dejavu Sans';font-size:14;" x="0" y="64" /><text fill="rgb(178,76,63)" font-size="8px" opacity="1" style="font-family:'Dejavu Sans';" x="388" y="688">B9-9a</text></g><g id="809_room"><polygon fill="rgb(119,151,159)" points="424,680 424,744 480,744 480,704 456,704 456,680" stroke="black" stroke-width="1" /><text opacity="0" style="font-family:'Dejavu Sans';font-size:14;" x="0" y="0">B10</text><text opacity="0" style="font-family:'Dejavu Sans';font-size:14;" x="0" y="16">B10 Hardware</text><text opacity="0" style="font-family:'Dejavu Sans';font-size=14:" x="0" y="32" /><text opacity="0" style="font-family:'Dejavu Sans';font-size=14:" x="0" y="48">B10 People</text><text opacity="0" style="font-family:'Dejavu Sans';font-size:14;" x="0" y="64" /><text fill="rgb(178,76,63)" font-size="8px" opacity="1" style="font-family:'Dejavu Sans';" x="444" y="712">B10</text></g><g id="811_room"><polygon fill="rgb(119,151,159)" points="480,704 480,752 576,752 576,704" stroke="black" stroke-width="1" /><text opacity="0" style="font-family:'Dejavu Sans';font-size:14;" x="0" y="0">B12</text><text opacity="0" style="font-family:'Dejavu Sans';font-size:14;" x="0" y="16">B12 Hardware</text><text opacity="0" style="font-family:'Dejavu Sans';font-size=14:" x="0" y="32" /><text opacity="0" style="font-family:'Dejavu Sans';font-size=14:" x="0" y="48">B12 People</text><text opacity="0" style="font-family:'Dejavu Sans';font-size:14;" x="0" y="64" /><text fill="rgb(178,76,63)" font-size="8px" opacity="1" style="font-family:'Dejavu Sans';" x="520" y="728">B12</text></g><g id="810_room"><polygon fill="rgb(119,151,159)" points="480,592 480,704 576,704 576,592" stroke="black" stroke-width="1" /><text opacity="0" style="font-family:'Dejavu Sans';font-size:14;" x="0" y="0">B11</text><text opacity="0" style="font-family:'Dejavu Sans';font-size:14;" x="0" y="16">B11 Hardware</text><text opacity="0" style="font-family:'Dejavu Sans';font-size=14:" x="0" y="32" /><text opacity="0" style="font-family:'Dejavu Sans';font-size=14:" x="0" y="48">B11 People</text><text opacity="0" style="font-family:'Dejavu Sans';font-size:14;" x="0" y="64" /><text fill="rgb(178,76,63)" font-size="8px" opacity="1" style="font-family:'Dejavu Sans';" x="520" y="648">B11</text></g><g id="812_room"><polygon fill="rgb(119,151,159)" points="480,552 480,592 520,592 520,552" stroke="black" stroke-width="1" /><text opacity="0" style="font-family:'Dejavu Sans';font-size:14;" x="0" y="0">B14</text><text opacity="0" style="font-family:'Dejavu Sans';font-size:14;" x="0" y="16">B14 Hardware</text><text opacity="0" style="font-family:'Dejavu Sans';font-size=14:" x="0" y="32" /><text opacity="0" style="font-family:'Dejavu Sans';font-size=14:" x="0" y="48">B14 People</text><text opacity="0" style="font-family:'Dejavu Sans';font-size:14;" x="0" y="64" /><text fill="rgb(178,76,63)" font-size="8px" opacity="1" style="font-family:'Dejavu Sans';" x="492" y="572">B14</text></g><g id="1323_room"><polygon fill="rgb(119,151,159)" points="8,552 8,616 136,616 136,552" stroke="black" stroke-width="1" /><text opacity="0" style="font-family:'Dejavu Sans';font-size:14;" x="0" y="0">B3 Plant Room</text><text opacity="0" style="font-family:'Dejavu Sans';font-size:14;" x="0" y="16">B3 Plant Room Hardware</text><text opacity="0" style="font-family:'Dejavu Sans';font-size=14:" x="0" y="32" /><text opacity="0" style="font-family:'Dejavu Sans';font-size=14:" x="0" y="48">B3 Plant Room People</text><text opacity="0" style="font-family:'Dejavu Sans';font-size:14;" x="0" y="64" /><text fill="rgb(178,76,63)" font-size="8px" opacity="1" style="font-family:'Dejavu Sans';" x="64" y="584">B3 Plant Room</text></g><g id="1324_room"><polygon fill="rgb(119,151,159)" points="312,696 312,752 368,752 368,432 120,464 120,464" stroke="black" stroke-width="1" /><text opacity="0" style="font-family:'Dejavu Sans';font-size:14;" x="0" y="0">B8 Male Toilet</text><text opacity="0" style="font-family:'Dejavu Sans';font-size:14;" x="0" y="16">B8 Male Toilet Hardware</text><text opacity="0" style="font-family:'Dejavu Sans';font-size=14:" x="0" y="32" /><text opacity="0" style="font-family:'Dejavu Sans';font-size=14:" x="0" y="48">B8 Male Toilet People</text><text opacity="0" style="font-family:'Dejavu Sans';font-size:14;" x="0" y="64" /><text fill="rgb(178,76,63)" font-size="8px" opacity="1" style="font-family:'Dejavu Sans';" x="236" y="592">B8 Male Toilet</text></g><g id="1325_room"><polygon fill="rgb(119,151,159)" points="368,696 368,744 424,744 424,696" stroke="black" stroke-width="1" /><text opacity="0" style="font-family:'Dejavu Sans';font-size:14;" x="0" y="0">B9A</text><text opacity="0" style="font-family:'Dejavu Sans';font-size:14;" x="0" y="16">B9A Hardware</text><text opacity="0" style="font-family:'Dejavu Sans';font-size=14:" x="0" y="32" /><text opacity="0" style="font-family:'Dejavu Sans';font-size=14:" x="0" y="48">B9A People</text><text opacity="0" style="font-family:'Dejavu Sans';font-size:14;" x="0" y="64" /><text fill="rgb(178,76,63)" font-size="8px" opacity="1" style="font-family:'Dejavu Sans';" x="388" y="720">B9A</text></g><g id="1326_room"><polygon fill="rgb(119,151,159)" points="520,552 520,592 576,592 576,552" stroke="black" stroke-width="1" /><text opacity="0" style="font-family:'Dejavu Sans';font-size:14;" x="0" y="0">B13 Cold Room Controls</text><text opacity="0" style="font-family:'Dejavu Sans';font-size:14;" x="0" y="16">B13 Cold Room Controls Hardware</text><text opacity="0" style="font-family:'Dejavu Sans';font-size=14:" x="0" y="32" /><text opacity="0" style="font-family:'Dejavu Sans';font-size=14:" x="0" y="48">B13 Cold Room Controls People</text><text opacity="0" style="font-family:'Dejavu Sans';font-size:14;" x="0" y="64" /><text fill="rgb(178,76,63)" font-size="8px" opacity="1" style="font-family:'Dejavu Sans';" x="540" y="572">B13 Cold Room Controls</text></g><g id="1327_room"><polygon fill="rgb(119,151,159)" points="416,416 416,552 568,552 568,440 568,416" stroke="black" stroke-width="1" /><text opacity="0" style="font-family:'Dejavu Sans';font-size:14;" x="0" y="0">B6 Compacters</text><text opacity="0" style="font-family:'Dejavu Sans';font-size:14;" x="0" y="16">B6 Compacters Hardware</text><text opacity="0" style="font-family:'Dejavu Sans';font-size=14:" x="0" y="32" /><text opacity="0" style="font-family:'Dejavu Sans';font-size=14:" x="0" y="48">B6 Compacters People</text><text opacity="0" style="font-family:'Dejavu Sans';font-size:14;" x="0" y="64" /><text fill="rgb(178,76,63)" font-size="8px" opacity="1" style="font-family:'Dejavu Sans';" x="484" y="484">B6 Compacters</text></g><g id="813_room"><polygon fill="rgb(119,151,159)" points="320,352 320,552 416,552 416,352" stroke="black" stroke-width="1" /><text opacity="0" style="font-family:'Dejavu Sans';font-size:14;" x="0" y="0">B15</text><text opacity="0" style="font-family:'Dejavu Sans';font-size:14;" x="0" y="16">B15 Hardware</text><text opacity="0" style="font-family:'Dejavu Sans';font-size=14:" x="0" y="32" /><text opacity="0" style="font-family:'Dejavu Sans';font-size=14:" x="0" y="48">B15 People</text><text opacity="0" style="font-family:'Dejavu Sans';font-size:14;" x="0" y="64" /><text fill="rgb(178,76,63)" font-size="8px" opacity="1" style="font-family:'Dejavu Sans';" x="360" y="452">B15</text></g><g id="814_room"><polygon fill="rgb(119,151,159)" points="416,352 416,416 448,416 448,352" stroke="black" stroke-width="1" /><text opacity="0" style="font-family:'Dejavu Sans';font-size:14;" x="0" y="0">B16</text><text opacity="0" style="font-family:'Dejavu Sans';font-size:14;" x="0" y="16">B16 Hardware</text><text opacity="0" style="font-family:'Dejavu Sans';font-size=14:" x="0" y="32" /><text opacity="0" style="font-family:'Dejavu Sans';font-size=14:" x="0" y="48">B16 People</text><text opacity="0" style="font-family:'Dejavu Sans';font-size:14;" x="0" y="64" /><text fill="rgb(178,76,63)" font-size="8px" opacity="1" style="font-family:'Dejavu Sans';" x="424" y="384">B16</text></g><g id="816_room"><polygon fill="rgb(119,151,159)" points="480,400 480,416 536,416 504,400" stroke="black" stroke-width="1" /><text opacity="0" style="font-family:'Dejavu Sans';font-size:14;" x="0" y="0">B18</text><text opacity="0" style="font-family:'Dejavu Sans';font-size:14;" x="0" y="16">B18 Hardware</text><text opacity="0" style="font-family:'Dejavu Sans';font-size=14:" x="0" y="32" /><text opacity="0" style="font-family:'Dejavu Sans';font-size=14:" x="0" y="48">B18 People</text><text opacity="0" style="font-family:'Dejavu Sans';font-size:14;" x="0" y="64" /><text fill="rgb(178,76,63)" font-size="8px" opacity="1" style="font-family:'Dejavu Sans';" x="500" y="408">B18</text></g><g id="1328_room"><polygon fill="rgb(119,151,159)" points="360,264 360,328 440,328 440,264 472,264 472,216 416,216 416,264" stroke="black" stroke-width="1" /><text opacity="0" style="font-family:'Dejavu Sans';font-size:14;" x="0" y="0">B19 Plant Room</text><text opacity="0" style="font-family:'Dejavu Sans';font-size:14;" x="0" y="16">B19 Plant Room Hardware</text><text opacity="0" style="font-family:'Dejavu Sans';font-size=14:" x="0" y="32" /><text opacity="0" style="font-family:'Dejavu Sans';font-size=14:" x="0" y="48">B19 Plant Room People</text><text opacity="0" style="font-family:'Dejavu Sans';font-size:14;" x="0" y="64" /><text fill="rgb(178,76,63)" font-size="8px" opacity="1" style="font-family:'Dejavu Sans';" x="408" y="272">B19 Plant Room</text></g><g id="1329_room"><polygon fill="rgb(119,151,159)" points="384,240 384,264 416,264 416,240" stroke="black" stroke-width="1" /><text opacity="0" style="font-family:'Dejavu Sans';font-size:14;" x="0" y="0">B20</text><text opacity="0" style="font-family:'Dejavu Sans';font-size:14;" x="0" y="16">B20 Hardware</text><text opacity="0" style="font-family:'Dejavu Sans';font-size=14:" x="0" y="32" /><text opacity="0" style="font-family:'Dejavu Sans';font-size=14:" x="0" y="48">B20 People</text><text opacity="0" style="font-family:'Dejavu Sans';font-size:14;" x="0" y="64" /><text fill="rgb(178,76,63)" font-size="8px" opacity="1" style="font-family:'Dejavu Sans';" x="392" y="252">B20</text></g><g id="1330_room"><polygon fill="rgb(119,151,159)" points="384,184 384,216 440,216 440,184" stroke="black" stroke-width="1" /><text opacity="0" style="font-family:'Dejavu Sans';font-size:14;" x="0" y="0">B21 Male Toilet</text><text opacity="0" style="font-family:'Dejavu Sans';font-size:14;" x="0" y="16">B21 Male Toilet Hardware</text><text opacity="0" style="font-family:'Dejavu Sans';font-size=14:" x="0" y="32" /><text opacity="0" style="font-family:'Dejavu Sans';font-size=14:" x="0" y="48">B21 Male Toilet People</text><text opacity="0" style="font-family:'Dejavu Sans';font-size:14;" x="0" y="64" /><text fill="rgb(178,76,63)" font-size="8px" opacity="1" style="font-family:'Dejavu Sans';" x="404" y="200">B21 Male Toilet</text></g><g id="1331_room"><polygon fill="rgb(119,151,159)" points="384,152 384,184 440,184 440,152" stroke="black" stroke-width="1" /><text opacity="0" style="font-family:'Dejavu Sans';font-size:14;" x="0" y="0">B22 Female Toilets</text><text opacity="0" style="font-family:'Dejavu Sans';font-size:14;" x="0" y="16">B22 Female Toilets Hardware</text><text opacity="0" style="font-family:'Dejavu Sans';font-size=14:" x="0" y="32" /><text opacity="0" style="font-family:'Dejavu Sans';font-size=14:" x="0" y="48">B22 Female Toilets People</text><text opacity="0" style="font-family:'Dejavu Sans';font-size:14;" x="0" y="64" /><text fill="rgb(178,76,63)" font-size="8px" opacity="1" style="font-family:'Dejavu Sans';" x="404" y="168">B22 Female Toilets</text></g><g id="1332_room"><polygon fill="rgb(119,151,159)" points="360,152 360,168 384,168 384,152" stroke="black" stroke-width="1" /><text opacity="0" style="font-family:'Dejavu Sans';font-size:14;" x="0" y="0">B23</text><text opacity="0" style="font-family:'Dejavu Sans';font-size:14;" x="0" y="16">B23 Hardware</text><text opacity="0" style="font-family:'Dejavu Sans';font-size=14:" x="0" y="32" /><text opacity="0" style="font-family:'Dejavu Sans';font-size=14:" x="0" y="48">B23 People</text><text opacity="0" style="font-family:'Dejavu Sans';font-size:14;" x="0" y="64" /><text fill="rgb(178,76,63)" font-size="8px" opacity="1" style="font-family:'Dejavu Sans';" x="364" y="160">B23</text></g><g id="1333_room"><polygon fill="rgb(128,128,128)" points="360,168 360,264 384,264 384,168" stroke="black" stroke-width="1" /><text opacity="0" style="font-family:'Dejavu Sans';font-size:14;" x="0" y="0">Basement-North-Corridor</text><text opacity="0" style="font-family:'Dejavu Sans';font-size:14;" x="0" y="16">Basement-North-Corridor Hardware</text><text opacity="0" style="font-family:'Dejavu Sans';font-size=14:" x="0" y="32" /><text opacity="0" style="font-family:'Dejavu Sans';font-size=14:" x="0" y="48">Basement-North-Corridor People</text><text opacity="0" style="font-family:'Dejavu Sans';font-size:14;" x="0" y="64" /><text fill="rgb(178,76,63)" font-size="8px" opacity="1" style="font-family:'Dejavu Sans';" x="364" y="216">Basement-North-Corridor</text></g><g id="1334_room"><polygon fill="rgb(128,128,128)" points="384,216 384,240 416,240 416,216" stroke="black" stroke-width="1" /><text opacity="0" style="font-family:'Dejavu Sans';font-size:14;" x="0" y="0">Basement-North-Stairs</text><text opacity="0" style="font-family:'Dejavu Sans';font-size:14;" x="0" y="16">Basement-North-Stairs Hardware</text><text opacity="0" style="font-family:'Dejavu Sans';font-size=14:" x="0" y="32" /><text opacity="0" style="font-family:'Dejavu Sans';font-size=14:" x="0" y="48">Basement-North-Stairs People</text><text opacity="0" style="font-family:'Dejavu Sans';font-size:14;" x="0" y="64" /><text fill="rgb(178,76,63)" font-size="8px" opacity="1" style="font-family:'Dejavu Sans';" x="392" y="228">Basement-North-Stairs</text></g><g id="1335_room"><polygon fill="rgb(128,128,128)" points="448,344 448,416 480,416 480,344" stroke="black" stroke-width="1" /><text opacity="0" style="font-family:'Dejavu Sans';font-size:14;" x="0" y="0">Basement-Central-Corridor</text><text opacity="0" style="font-family:'Dejavu Sans';font-size:14;" x="0" y="16">Basement-Central-Corridor Hardware</text><text opacity="0" style="font-family:'Dejavu Sans';font-size=14:" x="0" y="32" /><text opacity="0" style="font-family:'Dejavu Sans';font-size=14:" x="0" y="48">Basement-Central-Corridor People</text><text opacity="0" style="font-family:'Dejavu Sans';font-size:14;" x="0" y="64" /><text fill="rgb(178,76,63)" font-size="8px" opacity="1" style="font-family:'Dejavu Sans';" x="456" y="380">Basement-Central-Corridor</text></g><g id="1336_room"><polygon fill="rgb(128,128,128)" points="480,376 480,400 504,400 536,416 560,416 536,384 504,376" stroke="black" stroke-width="1" /><text opacity="0" style="font-family:'Dejavu Sans';font-size:14;" x="0" y="0">Library-Stairs</text><text opacity="0" style="font-family:'Dejavu Sans';font-size:14;" x="0" y="16">Library-Stairs Hardware</text><text opacity="0" style="font-family:'Dejavu Sans';font-size=14:" x="0" y="32" /><text opacity="0" style="font-family:'Dejavu Sans';font-size=14:" x="0" y="48">Library-Stairs People</text><text opacity="0" style="font-family:'Dejavu Sans';font-size:14;" x="0" y="64" /><text fill="rgb(178,76,63)" font-size="8px" opacity="1" style="font-family:'Dejavu Sans';" x="512" y="396">Library-Stairs</text></g><g id="1337_room"><polygon fill="rgb(128,128,128)" points="448,552 448,616 312,616 312,624 208,624 120,320 120,320" stroke="black" stroke-width="1" /><text opacity="0" style="font-family:'Dejavu Sans';font-size:14;" x="0" y="0">Basement-South-Corridor</text><text opacity="0" style="font-family:'Dejavu Sans';font-size:14;" x="0" y="16">Basement-South-Corridor Hardware</text><text opacity="0" style="font-family:'Dejavu Sans';font-size=14:" x="0" y="32" /><text opacity="0" style="font-family:'Dejavu Sans';font-size=14:" x="0" y="48">Basement-South-Corridor People</text><text opacity="0" style="font-family:'Dejavu Sans';font-size:14;" x="0" y="64" /><text fill="rgb(178,76,63)" font-size="8px" opacity="1" style="font-family:'Dejavu Sans';" x="276" y="472">Basement-South-Corridor</text></g><g id="1338_room"><polygon fill="rgb(128,128,128)" points="208,680 208,776 312,776 312,680" stroke="black" stroke-width="1" /><text opacity="0" style="font-family:'Dejavu Sans';font-size:14;" x="0" y="0">Basement-South-Stairs</text><text opacity="0" style="font-family:'Dejavu Sans';font-size:14;" x="0" y="16">Basement-South-Stairs Hardware</text><text opacity="0" style="font-family:'Dejavu Sans';font-size=14:" x="0" y="32" /><text opacity="0" style="font-family:'Dejavu Sans';font-size=14:" x="0" y="48">Basement-South-Stairs People</text><text opacity="0" style="font-family:'Dejavu Sans';font-size:14;" x="0" y="64" /><text fill="rgb(178,76,63)" font-size="8px" opacity="1" style="font-family:'Dejavu Sans';" x="252" y="728">Basement-South-Stairs</text></g><g id="817_room"><polygon fill="rgb(119,151,159)" points="144,680 144,744 208,744 208,680" stroke="black" stroke-width="1" /><text opacity="0" style="font-family:'Dejavu Sans';font-size:14;" x="0" y="0">B2</text><text opacity="0" style="font-family:'Dejavu Sans';font-size:14;" x="0" y="16">B2 Hardware</text><text opacity="0" style="font-family:'Dejavu Sans';font-size=14:" x="0" y="32">dorset</text><text opacity="0" style="font-family:'Dejavu Sans';font-size=14:" x="0" y="48">B2 People</text><text opacity="0" style="font-family:'Dejavu Sans';font-size:14;" x="0" y="64" /><text fill="rgb(178,76,63)" font-size="8px" opacity="1" style="font-family:'Dejavu Sans';" x="168" y="712">B2</text></g><g id="808_room"><polygon fill="rgb(119,151,159)" points="8,616 8,744 144,744 144,616" stroke="black" stroke-width="1" /><text opacity="0" style="font-family:'Dejavu Sans';font-size:14;" x="0" y="0">B1 Museum Store A</text><text opacity="0" style="font-family:'Dejavu Sans';font-size:14;" x="0" y="16">B1 Museum Store A Hardware</text><text opacity="0" style="font-family:'Dejavu Sans';font-size=14:" x="0" y="32">frobisher</text><text opacity="0" style="font-family:'Dejavu Sans';font-size=14:" x="0" y="48">B1 Museum Store A People</text><text opacity="0" style="font-family:'Dejavu Sans';font-size:14;" x="0" y="64" /><text fill="rgb(178,76,63)" font-size="8px" opacity="1" style="font-family:'Dejavu Sans';" x="68" y="680">B1 Museum Store A</text></g><g id="818_room"><polygon fill="rgb(119,151,159)" points="144,552 144,680 208,680 208,552" stroke="black" stroke-width="1" /><text opacity="0" style="font-family:'Dejavu Sans';font-size:14;" x="0" y="0">B4</text><text opacity="0" style="font-family:'Dejavu Sans';font-size:14;" x="0" y="16">B4 Hardware</text><text opacity="0" style="font-family:'Dejavu Sans';font-size=14:" x="0" y="32" /><text opacity="0" style="font-family:'Dejavu Sans';font-size=14:" x="0" y="48">B4 People</text><text opacity="0" style="font-family:'Dejavu Sans';font-size:14;" x="0" y="64" /><text fill="rgb(178,76,63)" font-size="8px" opacity="1" style="font-family:'Dejavu Sans';" x="168" y="616">B4</text></g></g></svg>